FantasqueSansMono-BoldItalic.sfdir
StartChar: exclam
Encoding: 33 33 68
Width: 517
VWidth: 0
Flags: HW
HStem: 0 132<160 305> 645 10G<268 424>
VStem: 134 290
LayerCount: 2
Fore
SplineSet
424 655 m 1
 329 210 l 1
 190 209 l 1
 270 655 l 1
 424 655 l 1
160 132 m 1
 331 132 l 1
 305 0 l 1
 134 0 l 1
 160 132 l 1
EndSplineSet
EndChar
StartChar: quotedbl
Encoding: 34 34 92
Width: 517
VWidth: -12
Flags: HW
HStem: 388 327
LayerCount: 2
Fore
SplineSet
400 715 m 1
 525 696 l 1
 498 558 477 486 441 388 c 1
 346 413 l 1
 362 455 381 517 381 572 c 0
 381 583 380 593 378 603 c 1
 400 715 l 1
194 715 m 1
 319 696 l 1
 292 558 271 486 235 388 c 1
 140 413 l 1
 156 455 175 517 175 572 c 0
 175 583 174 593 172 603 c 1
 194 715 l 1
EndSplineSet
EndChar
StartChar: numbersign
Encoding: 35 35 93
Width: 517
VWidth: 2
Flags: HW
HStem: -9 10G<122 141 208 219> 176 97<16 78 217 258 401 460> 380 96<60 144 282 321 461 503> 642 10G<208 224 497 504>
VStem: 217 112<568 650>
LayerCount: 2
Fore
SplineSet
251 382 m 1
 240 345 228 309 217 272 c 1
 242 272 267 272 292 272 c 1
 302 308 311 344 321 380 c 1
 298 380 274 382 251 382 c 1
141 -9 m 1
 102 -9 64 -7 25 -7 c 1
 39 48 53 93 78 175 c 1
 52 175 30 170 15 166 c 1
 13 196 12 224 10 254 c 1
 39 264 77 269 110 271 c 1
 125 310 132 341 144 380 c 1
 141 380 138 380 135 380 c 1
 103 378 79 376 60 370 c 1
 57 400 54 429 51 459 c 1
 85 471 125 474 167 476 c 1
 195 566 199 580 217 651 c 1
 231 651 286 650 305 650 c 0
 314 650 322 650 329 650 c 1
 314 591 303 548 282 478 c 1
 304 478 326 476 348 476 c 1
 373 556 383 588 404 646 c 1
 441 646 479 646 516 646 c 1
 492 587 485 555 461 478 c 1
 481 478 501 478 521 478 c 1
 515 446 508 413 502 381 c 1
 479 381 457 383 434 383 c 1
 423 346 412 309 401 272 c 1
 427 272 454 272 480 272 c 1
 473 240 466 209 459 177 c 1
 429 177 400 178 370 178 c 1
 341 82 329 48 313 -11 c 1
 275 -11 238 -12 200 -12 c 1
 216 43 232 90 258 176 c 1
 236 176 214 176 192 176 c 1
 171 103 141 -9 141 -9 c 1
EndSplineSet
EndChar
StartChar: dollar
Encoding: 36 36 94
Width: 517
VWidth: 0
Flags: HW
HStem: 31 97<269 319> 519 99<223 267>
VStem: 20 119<143 219> 83 126<424 506> 354 124<165 268>
LayerCount: 2
Fore
SplineSet
146 343 m 0xe8
 106 362 83 391 83 441 c 0xd8
 83 452 84 465 86 478 c 0
 103 567 193 614 288 618 c 1
 292 648 297 678 301 708 c 1
 341 706 381 704 421 702 c 1
 412 674 403 645 394 617 c 1
 461 610 512 574 527 514 c 1
 488 499 449 485 410 470 c 1
 410 474 l 0
 410 500 392 510 368 514 c 1
 358 473 347 433 337 392 c 1
 364 382 380 376 402 365 c 1
 442 345 479 309 479 245 c 0
 479 233 477 221 475 207 c 0
 452 85 356 33 245 31 c 1
 239 1 232 -28 226 -58 c 1
 188 -57 151 -55 113 -54 c 1
 122 -24 131 6 140 36 c 1
 51 50 20 108 20 173 c 0
 20 188 21 203 24 219 c 1
 64 219 105 219 145 219 c 1
 143 212 141 205 140 199 c 0
 139 193 138 188 138 183 c 0
 138 159 149 142 168 138 c 1
 183 197 199 255 214 314 c 1
 195 319 167 333 146 343 c 0xe8
267 519 m 1
 238 519 216 498 211 474 c 0
 210 468 209 462 209 457 c 0
 209 437 218 424 241 418 c 1
 249 452 259 485 267 519 c 1
269 128 m 1
 313 134 342 156 352 208 c 0
 353 216 354 223 354 229 c 0
 354 256 339 267 308 282 c 1
 295 231 282 179 269 128 c 1
EndSplineSet
EndChar
StartChar: percent
Encoding: 37 37 156
Width: 517
VWidth: 0
Flags: HW
HStem: -7 94<307 360> 191 94<326 383> 353 94<166 219> 551 94<185 242> 662 10G<458 500>
VStem: 57 107<448 531> 198 107<89 171> 242 112<470 549> 383 112<113 190>
LayerCount: 2
Fore
SplineSet
331 87 m 0xfe80
 347 87 376 123 381 148 c 0
 382 154 383 160 383 165 c 0
 383 183 374 190 357 191 c 0
 356 191 l 0
 340 191 310 157 306 135 c 0
 305 131 305 127 305 123 c 0
 305 103 315 87 331 87 c 0xfe80
190 447 m 0
 206 447 235 483 240 508 c 0
 241 514 242 519 242 524 c 0xfd80
 242 542 233 550 216 551 c 0
 215 551 l 0
 199 551 169 517 165 495 c 0
 164 491 164 486 164 482 c 0
 164 462 174 447 190 447 c 0
-18 40 m 1
 33 109 84 177 135 246 c 1
 198 331 277 385 300 417 c 1
 266 379 219 353 169 353 c 0
 102 353 57 402 57 466 c 0
 57 475 58 484 60 494 c 0
 76 574 157 644 237 645 c 0
 241 645 l 0
 309 645 354 601 354 541 c 0xfd80
 354 533 353 525 352 516 c 0
 352 515 351 514 350 508 c 0
 348 495 341 476 331 458 c 1
 382 529 432 601 483 672 c 1
 516 654 550 635 583 617 c 1
 532 548 480 478 429 409 c 1
 383 345 299 289 245 220 c 1
 280 259 330 285 378 286 c 0
 382 286 l 0
 450 286 495 242 495 182 c 0
 495 174 494 166 493 157 c 0
 493 156 492 154 492 153 c 0
 483 74 398 -7 311 -7 c 0
 244 -7 198 43 198 107 c 0xfe80
 198 116 199 125 201 135 c 0
 204 152 210 168 219 184 c 1
 173 118 127 52 81 -14 c 1
 48 4 15 22 -18 40 c 1
EndSplineSet
EndChar
StartChar: ampersand
Encoding: 38 38 168
Width: 517
VWidth: 0
Flags: HW
HStem: -11 99<142 271> 560 98<234 306>
VStem: 7 125<98 231> 101 117<425 543> 308 123<472 559>
LayerCount: 2
Fore
SplineSet
328 46 m 1xd8
 278 6 225 -11 166 -11 c 0
 79 -11 7 23 7 125 c 0xe8
 7 142 9 159 13 179 c 0
 31 273 90 327 151 370 c 1
 120 405 101 448 101 486 c 0
 101 493 102 499 103 506 c 0
 124 610 211 658 299 658 c 0
 371 658 431 632 431 559 c 0
 431 550 430 539 428 528 c 0
 411 434 347 383 285 342 c 1
 311 293 336 244 362 195 c 1
 370 203 376 218 379 236 c 0
 382 253 384 274 384 297 c 0
 384 304 383 311 383 318 c 1
 423 318 462 318 502 318 c 1
 475 177 416 120 416 120 c 1
 430 97 442 73 456 50 c 25
 425 28 393 6 362 -16 c 25
 351 5 339 25 328 46 c 1xd8
191 280 m 1
 165 259 142 217 135 181 c 0
 133 171 132 159 132 149 c 0
 132 117 145 88 187 88 c 0
 229 88 262 101 281 116 c 1
 251 171 221 225 191 280 c 1
238 423 m 1
 272 446 302 486 307 516 c 0
 307 519 308 523 308 526 c 0
 308 544 299 560 277 560 c 0
 249 560 225 535 221 514 c 0
 219 505 218 497 218 489 c 0xd8
 218 465 225 443 238 423 c 1
EndSplineSet
EndChar
StartChar: quotesingle
Encoding: 39 39 70
Width: 517
VWidth: -12
Flags: HW
VStem: 230 190
LayerCount: 2
Fore
SplineSet
284 715 m 1
 420 698 l 1
 393 560 372 473 336 375 c 1
 230 401 l 1
 245 443 267 509 267 563 c 0
 267 577 265 590 262 601 c 1
 284 715 l 1
EndSplineSet
EndChar
StartChar: parenleft
Encoding: 40 40 98
Width: 517
VWidth: 32
Flags: HW
HStem: -128 122<320 375> 610 114<420 518>
VStem: 108 134<78 329>
LayerCount: 2
Fore
SplineSet
518 610 m 1
 515 610 l 0
 387 610 295 521 253 301 c 0
 245 259 242 222 242 190 c 0
 242 53 308 -6 398 -6 c 1
 390 -47 382 -87 374 -128 c 1
 227 -127 108 -38 108 168 c 0
 108 207 113 251 122 299 c 0
 180 598 328 719 540 725 c 1
 533 687 525 648 518 610 c 1
EndSplineSet
EndChar
StartChar: parenright
Encoding: 41 41 99
Width: 517
VWidth: 32
Flags: HW
HStem: -128 122<33 118> 610 114<175 243>
VStem: 312 133<271 538>
LayerCount: 2
Fore
SplineSet
153 610 m 1
 160 648 168 687 175 725 c 1
 345 720 445 639 445 448 c 0
 445 404 440 355 429 299 c 0
 371 0 186 -127 10 -128 c 1
 18 -87 26 -47 34 -6 c 1
 146 -6 256 85 298 301 c 0
 308 350 312 392 312 429 c 0
 312 556 256 610 156 610 c 0
 153 610 l 1
EndSplineSet
EndChar
StartChar: asterisk
Encoding: 42 42 191
Width: 517
VWidth: 0
Flags: HW
VStem: 256 144<462 542>
LayerCount: 2
Fore
SplineSet
239 343 m 1
 245 409 250 476 256 542 c 1
 304 542 351 542 399 542 c 1
 381 476 364 409 346 343 c 1
 398 372 449 402 501 431 c 1
 512 390 522 351 533 310 c 1
 471 291 408 273 346 254 c 1
 382 210 419 167 455 123 c 1
 413 94 373 66 331 37 c 1
 310 95 290 151 269 209 c 1
 225 151 180 93 136 35 c 1
 108 63 80 91 52 119 c 1
 103 164 155 210 206 255 c 1
 153 270 99 286 46 301 c 1
 69 343 92 386 115 428 c 1
 157 400 197 371 239 343 c 1
EndSplineSet
EndChar
StartChar: plus
Encoding: 43 43 101
Width: 517
VWidth: 2
Flags: HW
HStem: 0 10G<159 288> 191 115<51 196 338 474> 487 10G<356 370>
LayerCount: 2
Fore
SplineSet
51 301 m 1
 75 305 90 306 122 306 c 0
 141 306 l 1
 167 306 193 306 219 306 c 1
 231 369 244 434 256 497 c 1
 296 497 336 497 376 497 c 1
 363 434 351 369 338 306 c 1
 400 306 426 305 456 305 c 0
 496 305 l 1
 489 267 481 229 474 191 c 1
 472 191 469 191 467 191 c 1
 464 191 421 191 319 192 c 1
 307 128 294 64 282 0 c 1
 241 0 200 0 159 0 c 1
 171 63 184 128 196 191 c 1
 152 191 l 0
 87 191 59 191 30 187 c 1
 37 225 44 263 51 301 c 1
EndSplineSet
EndChar
StartChar: comma
Encoding: 44 44 54
Width: 517
VWidth: 12
Flags: HW
VStem: 155 160<40 151>
LayerCount: 2
Fore
SplineSet
155 151 m 1
 208 151 261 152 314 152 c 1
 305 103 295 54 286 5 c 1
 286 4 l 1
 267 -92 209 -175 120 -212 c 1
 110 -183 99 -153 89 -124 c 1
 139 -99 170 -64 183 3 c 1
 164 3 147 2 128 2 c 1
 137 51 146 102 155 151 c 1
EndSplineSet
EndChar
StartChar: hyphen
Encoding: 45 45 100
Width: 517
VWidth: 2
Flags: HW
HStem: 202 119<65 479>
LayerCount: 2
Fore
SplineSet
65 319 m 1
 87 320 113 321 137 321 c 0
 186 321 235 319 268 319 c 0
 326 319 l 0
 366 319 440 318 492 318 c 1
 495 318 498 318 501 318 c 1
 493 278 486 239 478 199 c 1
 475 199 472 199 469 199 c 1
 404 200 305 200 244 200 c 0
 223 200 178 202 129 202 c 0
 101 202 72 201 45 200 c 1
 49 220 53 239 57 259 c 1
 60 279 62 299 65 319 c 1
EndSplineSet
EndChar
StartChar: period
Encoding: 46 46 53
Width: 517
VWidth: 12
Flags: HW
HStem: 0 153<160 286>
VStem: 131 184
LayerCount: 2
Fore
SplineSet
161 153 m 1
 212 153 264 153 315 153 c 1
 305 102 295 51 285 0 c 1
 234 0 182 0 131 0 c 1
 141 51 151 102 161 153 c 1
EndSplineSet
EndChar
StartChar: slash
Encoding: 47 47 104
Width: 517
VWidth: 29
Flags: HW
LayerCount: 2
Fore
SplineSet
-6 -19 m 1
 83 116 350 549 450 723 c 1
 481 705 513 688 544 670 c 1
 443 498 173 65 88 -73 c 1
 57 -55 25 -37 -6 -19 c 1
EndSplineSet
EndChar
StartChar: zero
Encoding: 48 48 52
Width: 517
VWidth: 0
Flags: HW
HStem: -8 102<189 272> 540 101<272 355>
LayerCount: 2
Fore
SplineSet
188 284 m 1
 246 347 305 411 363 474 c 1
 357 523 354 540 319 540 c 0
 244 540 209 397 192 308 c 0
 190 297 188 284 188 284 c 1
357 354 m 1
 298 290 238 226 179 162 c 1
 183 116 192 93 225 93 c 0
 302 93 332 216 353 331 c 0
 355 345 357 354 357 354 c 1
339 641 m 0
 453 641 489 556 489 452 c 0
 489 410 483 366 475 322 c 0
 445 164 376 -8 212 -8 c 0
 90 -8 52 68 52 172 c 0
 52 212 57 256 66 301 c 0
 98 465 165 641 339 641 c 0
EndSplineSet
EndChar
StartChar: one
Encoding: 49 49 105
Width: 517
VWidth: 0
Flags: HW
HStem: -4 10G<211 357> 636 10G<343 364>
LayerCount: 2
Fore
SplineSet
345 646 m 1
 383 639 421 631 459 624 c 1
 418 415 378 205 337 -4 c 1
 295 -4 253 -4 211 -4 c 1
 241 153 271 308 301 465 c 1
 259 423 200 373 130 337 c 1
 113 372 98 407 81 442 c 1
 246 517 340 639 345 646 c 1
EndSplineSet
EndChar
StartChar: two
Encoding: 50 50 106
Width: 517
VWidth: 0
Flags: HW
HStem: 0 105<187 420> 535 103<255 369>
VStem: 95 125<421 502> 380 123<410 521>
LayerCount: 2
Fore
SplineSet
223 422 m 1
 181 415 138 408 96 401 c 1
 96 407 95 416 95 424 c 0
 95 435 95 446 97 456 c 0
 98 460 98 464 99 468 c 0
 120 561 203 638 328 638 c 0
 441 638 503 598 503 504 c 0
 503 488 502 471 498 452 c 0
 479 355 411 305 364 263 c 1
 332 236 192 132 187 105 c 1
 271 105 355 105 439 105 c 1
 432 70 425 35 418 0 c 1
 278 0 139 0 -1 0 c 1
 2 15 3 30 6 46 c 0
 8 59 12 72 17 86 c 0
 35 133 84 183 146 232 c 0
 218 288 360 369 377 452 c 0
 379 461 380 470 380 478 c 0
 380 517 357 535 315 535 c 0
 279 535 233 513 223 464 c 0
 222 457 221 450 221 442 c 0
 221 436 222 429 223 422 c 1
EndSplineSet
EndChar
StartChar: three
Encoding: 51 51 107
Width: 517
VWidth: 0
Flags: HW
HStem: -11 104<145 276> 303 98<206 287> 508 10G<160 177> 548 97<196 345>
VStem: 328 127<145 266> 354 127<451 538>
LayerCount: 2
Fore
SplineSet
3 163 m 1xf8
 44 163 84 163 125 163 c 1
 125 104 173 93 212 93 c 0
 271 93 316 139 325 185 c 0
 327 196 328 205 328 213 c 0xf8
 328 247 313 262 294 276 c 0
 269 295 227 303 188 303 c 1
 194 336 202 368 208 401 c 1
 210 401 213 401 215 401 c 1
 278 401 343 430 354 493 c 0
 354 496 354 500 354 503 c 0
 354 529 333 548 292 548 c 0
 239 548 183 526 171 508 c 1
 149 536 126 564 104 592 c 1
 108 599 170 645 307 645 c 1
 309 645 310 645 312 645 c 1
 376 645 481 614 481 525 c 0xf4
 481 517 480 510 479 501 c 0
 468 439 404 369 354 360 c 1
 423 336 455 289 455 227 c 0
 455 213 453 200 450 185 c 0
 426 63 359 -11 189 -11 c 0
 51 -11 3 60 3 163 c 1xf8
EndSplineSet
EndChar
StartChar: four
Encoding: 52 52 108
Width: 517
VWidth: 0
Flags: HW
HStem: 0 10G<251 383> 192 103<184 289 434 477> 629 10G<481 490>
LayerCount: 2
Fore
SplineSet
309 294 m 1
 319 347 329 400 339 453 c 1
 291 390 232 335 184 293 c 1
 226 293 267 294 309 294 c 1
40 272 m 1
 61 294 315 508 379 638 c 1
 420 638 460 639 501 639 c 1
 479 524 456 409 434 294 c 1
 455 294 475 294 496 294 c 1
 489 260 483 226 476 192 c 1
 455 192 435 192 414 192 c 1
 402 128 389 64 377 0 c 1
 335 0 293 0 251 0 c 1
 263 63 277 127 289 190 c 1
 215 190 141 189 67 189 c 1
 58 217 49 244 40 272 c 1
EndSplineSet
EndChar
StartChar: five
Encoding: 53 53 109
Width: 517
VWidth: 0
Flags: HW
HStem: -1 104<164 275> 346 93<230 310> 532 97<251 472>
VStem: 333 131<171 322>
LayerCount: 2
Fore
SplineSet
261 346 m 0
 202 346 167 302 158 292 c 1
 130 305 101 318 73 331 c 1
 102 430 131 530 160 629 c 1
 270 629 380 628 490 628 c 1
 484 596 477 564 471 532 c 1
 400 532 327 532 256 532 c 1
 247 500 238 467 229 435 c 1
 229 435 250 439 288 439 c 0
 316 439 353 437 383 421 c 1
 423 398 464 363 464 281 c 0
 464 263 461 242 457 219 c 0
 427 64 311 0 194 -1 c 1
 193 -1 l 1
 101 -1 44 36 20 114 c 1
 61 132 101 150 142 168 c 1
 148 130 173 103 213 103 c 0
 257 103 312 134 329 220 c 0
 331 233 333 245 333 256 c 0
 333 313 303 346 261 346 c 0
EndSplineSet
EndChar
StartChar: six
Encoding: 54 54 110
Width: 517
VWidth: 0
Flags: HW
HStem: -1 99<179 280> 293 98<230 356> 533 110<381 504>
VStem: 35 127<112 246> 329 126<150 277>
LayerCount: 2
Fore
SplineSet
509 533 m 1
 370 533 255 474 197 349 c 1
 197 349 246 392 311 392 c 0
 400 392 455 320 455 228 c 0
 455 78 337 -1 201 -1 c 0
 110 -1 35 75 35 183 c 0
 35 444 229 643 504 643 c 1
 506 606 507 570 509 533 c 1
162 178 m 0
 162 134 178 98 223 98 c 0
 272 98 329 149 329 214 c 0
 329 257 304 293 277 293 c 0
 209 293 162 247 162 178 c 0
EndSplineSet
EndChar
StartChar: seven
Encoding: 55 55 111
Width: 517
VWidth: 0
Flags: HW
HStem: 0 10G<107 256> 522 105<208 429>
VStem: 107 127<0 78>
LayerCount: 2
Fore
SplineSet
160 631 m 1
 201 631 253 628 291 628 c 0
 365 628 445 631 515 631 c 1
 522 631 528 631 535 631 c 1
 546 605 558 578 569 552 c 1
 379 323 277 222 234 0 c 1
 192 0 149 0 107 0 c 1
 146 199 250 329 429 524 c 1
 386 523 335 522 291 522 c 0
 260 522 248 523 218 524 c 1
 217 524 203 491 198 473 c 1
 159 483 119 494 80 504 c 1
 95 533 138 599 160 631 c 1
EndSplineSet
EndChar
StartChar: eight
Encoding: 56 56 112
Width: 517
VWidth: 0
Flags: HW
HStem: -4 104<172 294> 533 99<247 372>
VStem: 21 129<122 232> 109 124<427 518> 342 127<146 268> 375 124<447 528>
LayerCount: 2
Fore
SplineSet
229 99 m 0xe8
 263 99 328 122 341 189 c 0
 342 194 342 200 342 206 c 0
 342 242 321 284 270 309 c 1
 200 280 160 229 152 189 c 0
 151 182 150 176 150 170 c 0
 150 117 199 99 229 99 c 0xe8
290 410 m 1
 345 421 370 461 374 483 c 0
 375 488 375 493 375 497 c 0
 375 531 342 533 313 533 c 0
 281 533 242 529 234 483 c 0
 234 480 233 477 233 473 c 0xd4
 233 451 247 420 290 410 c 1
333 631 m 0
 444 631 499 586 499 514 c 0xd4
 499 504 497 493 495 481 c 0
 485 431 433 372 387 359 c 1
 433 338 470 291 470 224 c 0
 470 212 468 199 466 185 c 0
 445 69 335 -4 209 -4 c 0
 97 -4 21 53 21 147 c 0xe8
 21 159 23 172 25 185 c 0
 42 274 109 334 173 359 c 1
 137 370 109 416 109 461 c 0
 109 468 110 475 111 481 c 0
 131 572 206 631 333 631 c 0
EndSplineSet
EndChar
StartChar: nine
Encoding: 57 57 113
Width: 517
VWidth: 0
Flags: HW
HStem: -1 101<124 266> 285 98<227 354> 540 96<246 366>
VStem: 84 126<400 506> 381 119<417 525>
LayerCount: 2
Fore
SplineSet
306 540 m 1
 252 540 219 501 212 468 c 0
 211 462 210 455 210 449 c 0
 210 407 240 383 280 383 c 0
 327 383 356 404 379 425 c 1
 380 437 381 448 381 459 c 0
 381 511 365 540 306 540 c 1
87 466 m 0
 107 564 188 636 321 636 c 0
 454 636 500 556 500 441 c 0
 500 402 495 359 486 314 c 0
 452 138 391 -1 200 -1 c 0
 81 -1 42 32 -5 83 c 1
 28 108 61 133 94 158 c 1
 117 116 143 100 199 100 c 0
 277 100 335 173 356 284 c 0
 357 292 360 308 360 308 c 1
 345 298 316 285 253 285 c 0
 160 285 84 342 84 432 c 0
 84 443 85 454 87 466 c 0
EndSplineSet
EndChar
StartChar: less
Encoding: 60 60 102
Width: 517
VWidth: 1
Flags: HW
LayerCount: 2
Fore
SplineSet
422 69 m 1
 392 38 363 7 333 -24 c 1
 325 -6 305 16 285 35 c 1
 246 74 69 184 58 193 c 1
 65 230 71 266 78 303 c 1
 167 366 341 477 413 515 c 0
 429 523 441 530 459 535 c 1
 474 501 488 468 503 434 c 1
 416 392 281 304 192 244 c 1
 252 195 395 130 422 69 c 1
EndSplineSet
EndChar
StartChar: equal
Encoding: 61 61 114
Width: 517
VWidth: 2
Flags: HW
HStem: 83 109<27 420> 306 108<72 462>
LayerCount: 2
Fore
SplineSet
27 192 m 1
 96 196 151 196 207 196 c 0
 294 196 358 192 440 192 c 1
 433 155 426 120 419 83 c 1
 334 83 264 85 175 85 c 0
 151 85 126 86 101 86 c 0
 72 86 41 85 7 83 c 1
 14 120 20 155 27 192 c 1
68 420 m 1
 137 416 191 415 237 415 c 0
 331 415 385 419 482 419 c 1
 475 383 469 348 462 312 c 1
 368 312 312 306 216 306 c 0
 169 306 117 310 47 314 c 1
 50 329 55 353 59 376 c 0
 62 393 66 409 68 420 c 1
EndSplineSet
EndChar
StartChar: greater
Encoding: 62 62 103
Width: 517
VWidth: 1
Flags: HW
LayerCount: 2
Fore
SplineSet
5 81 m 1
 56 142 224 203 304 252 c 1
 238 312 147 394 77 436 c 1
 100 465 124 495 147 524 c 1
 163 519 172 511 185 503 c 0
 243 465 374 355 438 292 c 1
 435 259 431 227 428 194 c 1
 414 185 194 75 140 36 c 1
 113 17 83 -4 68 -22 c 1
 47 13 26 46 5 81 c 1
EndSplineSet
EndChar
StartChar: question
Encoding: 63 63 119
Width: 517
VWidth: 0
Flags: HW
HStem: 0 132<141 290> 495 10G<139 184> 563 94<216 368>
VStem: 175 133<210 276> 386 125<448 545>
LayerCount: 2
Fore
SplineSet
142 132 m 1
 199 132 257 132 314 132 c 1
 306 88 297 44 289 0 c 1
 232 0 174 0 117 0 c 1
 125 44 134 88 142 132 c 1
83 593 m 1
 168 655 264 657 312 657 c 0
 319 657 l 0
 429 657 511 608 511 522 c 0
 511 510 509 498 507 484 c 0
 491 401 434 368 385 334 c 0
 352 311 320 277 312 234 c 1
 311 226 309 218 308 210 c 1
 264 210 219 210 175 210 c 1
 176 217 178 225 179 232 c 1
 193 303 251 358 291 388 c 0
 338 424 376 443 384 485 c 0
 385 492 386 500 386 506 c 0
 386 540 350 563 306 563 c 0
 282 563 217 563 150 495 c 1
 128 528 105 560 83 593 c 1
EndSplineSet
EndChar
StartChar: at
Encoding: 64 64 163
Width: 517
VWidth: 2
Flags: HW
HStem: -124 98<175 324> -12 10G<308 326> 79 98<236 342> 321 98<301 377> 535 100<271 389>
VStem: 10 110<36 289> 167 109<177 294> 409 110<391 516>
LayerCount: 2
Back
SplineSet
337.40234375 102.05078125 m 4
 362.3046875 102.05078125 387.6953125 152.34375 390.625 160.64453125 c 5
 395.01953125 184.08203125 l 5
 389.16015625 203.61328125 374.51171875 218.75 365.72265625 218.75 c 4
 346.19140625 218.75 324.70703125 202.1484375 316.89453125 162.59765625 c 6
 315.91796875 157.2265625 l 5
 313.96484375 145.99609375 312.98828125 136.71875 312.98828125 129.39453125 c 4
 312.98828125 106.93359375 321.77734375 102.05078125 337.40234375 102.05078125 c 4
418.9453125 307.12890625 m 5
 428.7109375 356.93359375 l 5
 429.19921875 358.88671875 429.19921875 360.3515625 429.19921875 362.3046875 c 4
 429.19921875 383.30078125 406.25 402.83203125 377.9296875 402.83203125 c 4
 354.4921875 402.83203125 327.63671875 389.16015625 308.59375 351.5625 c 5
 233.88671875 389.16015625 l 5
 282.71484375 473.6328125 340.8203125 502.44140625 387.6953125 502.44140625 c 7
 420.41015625 502.44140625 450.1953125 487.3046875 457.03125 476.07421875 c 5
 457.03125 476.07421875 453.61328125 575.1953125 369.62890625 575.1953125 c 4
 282.71484375 575.1953125 193.359375 441.89453125 156.73828125 252.9296875 c 4
 149.4140625 215.33203125 145.99609375 179.19921875 145.99609375 145.01953125 c 4
 145.99609375 8.7890625 200.68359375 -90.33203125 274.4140625 -90.33203125 c 4
 310.05859375 -90.33203125 339.35546875 -77.1484375 356.93359375 -66.89453125 c 5
 384.765625 -156.25 l 5
 359.375 -170.41015625 310.546875 -185.546875 253.90625 -185.546875 c 4
 127.9296875 -185.546875 40.52734375 -88.37890625 40.52734375 103.515625 c 4
 40.52734375 150.87890625 45.8984375 204.1015625 57.12890625 262.6953125 c 4
 112.3046875 546.875 250.48828125 676.26953125 384.27734375 676.26953125 c 4
 516.11328125 676.26953125 551.7578125 583.49609375 551.7578125 479.00390625 c 4
 551.7578125 434.08203125 544.921875 387.20703125 536.62109375 344.23828125 c 5
 491.69921875 113.76953125 l 5
 490.234375 105.46875 489.74609375 97.65625 489.74609375 89.84375 c 4
 489.74609375 58.59375 499.51171875 32.2265625 499.51171875 32.2265625 c 5
 391.6015625 -10.7421875 l 5
 386.23046875 38.0859375 l 5
 386.23046875 38.0859375 354.4921875 -4.39453125 273.4375 -4.39453125 c 4
 218.75 -4.39453125 200.1953125 39.55078125 200.1953125 92.7734375 c 4
 200.1953125 111.328125 202.1484375 130.859375 206.0546875 150.390625 c 4
 214.84375 195.3125 231.4453125 238.28125 247.55859375 258.7890625 c 4
 288.0859375 310.546875 327.63671875 325.68359375 361.328125 327.1484375 c 4
 362.3046875 327.1484375 363.28125 327.1484375 364.2578125 327.1484375 c 4
 384.765625 327.1484375 409.66796875 313.96484375 418.9453125 307.12890625 c 5
EndSplineSet
Fore
SplineSet
279 242 m 0
 277 231 276 222 276 213 c 0
 276 191 283 177 299 177 c 0
 347 177 363 235 377 259 c 1
 379 270 382 281 384 292 c 1
 364 313 364 321 340 321 c 0
 316 321 290 301 279 242 c 0
380 130 m 1
 345 99 333 79 271 79 c 0
 202 79 167 133 167 198 c 0
 167 211 169 224 171 237 c 0
 191 342 255 419 345 419 c 0
 379 419 390 407 403 390 c 1
 407 410 409 430 409 449 c 0
 409 497 393 535 337 535 c 0
 256 535 171 450 131 244 c 0
 124 208 121 174 121 143 c 0
 121 44 158 -26 241 -26 c 0
 264 -26 292 -20 323 -2 c 1
 329 -33 336 -65 342 -96 c 1
 299 -117 250 -124 216 -124 c 0
 65 -124 10 -1 10 134 c 0
 10 170 14 206 21 242 c 0
 69 489 203 635 355 635 c 0
 476 635 519 550 519 463 c 0
 519 445 517 427 514 409 c 1
 504 355 492 302 482 248 c 1
 479 230 475 209 475 191 c 0
 475 172 479 152 490 129 c 1
 457 113 425 99 392 83 c 1
 385 101 383 104 380 130 c 1
EndSplineSet
EndChar
StartChar: A
Encoding: 65 65 26
Width: 517
VWidth: 0
Flags: HW
HStem: 0 10G<-34 96 338 475> 137 109<200 329> 637 10G<247 415>
AnchorPoint: "above_accent" 337 646 basechar 0
LayerCount: 2
Fore
SplineSet
329 246 m 1
 329 250 l 0
 329 306 311 378 311 442 c 0
 311 458 311 472 314 487 c 1
 295 405 231 305 199 237 c 1
 230 243 288 244 329 246 c 1
293 647 m 1
 330 647 366 647 403 647 c 1
 427 431 454 219 475 0 c 1
 430 0 385 0 340 0 c 1
 336 46 333 92 329 137 c 1
 254 136 213 138 151 123 c 1
 143 108 136 94 128 79 c 1
 112 49 98 21 93 0 c 1
 51 0 8 0 -34 0 c 1
 -26 30 -7 70 14 109 c 1
 107 288 200 468 293 647 c 1
EndSplineSet
EndChar
StartChar: B
Encoding: 66 66 27
Width: 517
VWidth: 0
Flags: HW
HStem: -2 96<134 289> 311 97<198 286> 548 99<224 315>
VStem: 320 128<443 542> 354 126<161 289>
LayerCount: 2
Fore
SplineSet
75 409 m 0xe8
 92 495 106 576 114 639 c 1
 154 642 225 647 280 647 c 0
 289 647 l 0
 384 647 449 612 449 531 c 0xf0
 449 520 447 508 445 495 c 0
 432 425 402 402 361 382 c 1
 426 363 479 323 479 242 c 0
 479 229 478 214 475 199 c 0
 446 52 353 11 270 1 c 0
 250 -1 229 -2 210 -2 c 0
 174 -2 147 0 105 0 c 0
 86 0 l 1
 54 0 24 0 -8 0 c 1
 11 97 35 202 75 409 c 0xe8
319 494 m 2
 320 500 320 505 320 509 c 0
 320 547 286 548 276 548 c 0
 274 548 l 1
 272 548 268 548 266 548 c 1
 247 548 239 547 224 546 c 1
 222 529 218 510 214 490 c 0
 209 464 203 435 198 407 c 1
 216 407 l 0
 252 407 303 413 318 490 c 1
 318 491 319 493 319 494 c 2
258 312 m 0
 234 312 236 311 200 311 c 1
 193 311 185 311 178 311 c 1
 154 193 142 135 134 97 c 1
 157 96 176 94 195 94 c 0
 210 94 224 95 242 97 c 0
 258 99 334 116 351 205 c 0
 353 216 354 225 354 234 c 0xe8
 354 294 309 312 258 312 c 0
EndSplineSet
EndChar
StartChar: C
Encoding: 67 67 28
Width: 517
VWidth: 0
Flags: HW
HStem: -1 98<203 317> 551 100<289 400>
VStem: 41 129<133 355>
AnchorPoint: "above_accent" 372 646 basechar 0
LayerCount: 2
Fore
SplineSet
347 551 m 0
 291 551 212 485 178 307 c 0
 173 279 170 253 170 230 c 0
 170 144 205 97 246 97 c 1
 248 97 250 97 252 97 c 1
 313 97 338 128 374 191 c 1
 410 169 445 147 481 125 c 1
 430 48 337 -1 244 -1 c 1
 242 -1 l 1
 188 -1 126 11 89 57 c 1
 57 99 41 150 41 214 c 0
 41 243 44 276 51 311 c 0
 75 437 130 515 163 553 c 0
 208 606 284 650 369 650 c 0
 437 650 516 620 544 541 c 1
 502 520 461 500 419 479 c 1
 406 540 389 551 347 551 c 0
EndSplineSet
EndChar
StartChar: D
Encoding: 68 68 29
Width: 517
VWidth: 0
Flags: HW
HStem: -5 100<140 269> 550 100<227 321>
VStem: 370 131<236 493>
AnchorPoint: "above_accent" 293 646 basechar 0
LayerCount: 2
Fore
SplineSet
267 550 m 1
 262 550 257 550 252 550 c 1
 244 550 239 550 230 549 c 1
 228 536 226 521 223 506 c 0
 217 475 214 466 208 432 c 0
 180 283 150 145 140 97 c 1
 182 96 159 95 188 95 c 0
 190 95 l 0
 210 95 280 96 327 172 c 0
 341 194 353 239 358 266 c 0
 366 308 370 345 370 378 c 0
 370 491 326 550 267 550 c 1
10 62 m 1
 15 89 56 283 86 440 c 1
 88 452 91 465 93 477 c 1
 105 540 115 600 119 643 c 1
 160 647 182 650 230 650 c 0
 374 650 428 616 474 521 c 1
 492 482 501 432 501 379 c 0
 501 348 498 315 492 283 c 0
 460 121 356 10 236 -1 c 0
 209 -3 184 -5 157 -5 c 0
 116 -5 52 -1 -4 -1 c 1
 -1 16 -1 14 10 62 c 1
EndSplineSet
EndChar
StartChar: E
Encoding: 69 69 30
Width: 517
VWidth: 0
Flags: HW
HStem: 0 100<158 424> 315 99<220 367> 546 100<241 505>
AnchorPoint: "above_accent" 340 646 basechar 0
LayerCount: 2
Fore
SplineSet
138 644 m 1
 166 646 200 646 238 646 c 0
 286 646 l 1
 304 646 322 646 340 646 c 1
 413 646 479 645 515 645 c 1
 517 645 521 645 523 645 c 1
 517 612 509 579 503 546 c 1
 417 546 331 546 245 546 c 1
 237 502 228 459 220 415 c 1
 275 415 330 415 385 415 c 1
 379 382 372 348 366 315 c 1
 311 315 256 315 201 315 c 1
 200 310 199 305 198 300 c 1
 178 199 165 139 158 100 c 1
 226 100 293 101 361 101 c 1
 388 101 424 114 424 114 c 1
 429 82 436 49 441 17 c 1
 416 11 394 0 346 0 c 1
 235 0 124 0 13 0 c 1
 55 215 96 429 138 644 c 1
EndSplineSet
EndChar
StartChar: F
Encoding: 70 70 31
Width: 517
VWidth: 0
Flags: HW
HStem: 0 10G<128 154> 313 105<229 384> 544 102<253 514>
LayerCount: 2
Fore
SplineSet
150 0 m 1
 107 0 64 1 21 1 c 1
 63 216 104 431 146 646 c 1
 254 646 363 646 471 646 c 1
 521 646 541 638 556 630 c 1
 542 597 528 564 514 531 c 1
 503 538 494 544 446 544 c 1
 435 544 423 544 412 544 c 1
 361 544 342 544 253 544 c 1
 245 502 237 460 229 418 c 1
 288 418 266 419 326 419 c 0
 370 419 401 412 419 403 c 1
 408 370 396 336 385 303 c 1
 368 311 345 313 323 313 c 0
 281 313 l 0
 266 313 240 313 208 312 c 1
 196 252 159 46 150 0 c 1
EndSplineSet
EndChar
StartChar: G
Encoding: 71 71 32
Width: 517
VWidth: 0
Flags: HW
HStem: -4 101<182 302> 277 101<247 373> 547 101<272 401>
VStem: 24 126<131 357>
AnchorPoint: "cedilla_accent" 202 0 basechar 0
AnchorPoint: "above_accent" 359 646 basechar 0
LayerCount: 2
Fore
SplineSet
520 370 m 1
 515 342 508 314 503 286 c 1
 461 69 392 24 301 1 c 1
 278 -4 247 -4 226 -4 c 0
 83 -4 24 90 24 216 c 0
 24 247 28 279 34 313 c 0
 56 431 102 528 178 591 c 1
 235 635 294 648 350 648 c 1
 353 648 356 648 359 648 c 1
 463 646 527 604 548 523 c 1
 506 504 465 485 423 466 c 1
 417 524 397 547 333 547 c 0
 251 547 187 449 160 308 c 0
 154 275 150 244 150 218 c 0
 150 142 179 97 241 97 c 0
 325 97 354 182 373 277 c 1
 363 277 351 277 341 277 c 0
 306 277 292 276 245 259 c 1
 238 292 232 324 225 357 c 1
 275 375 327 378 376 378 c 0
 426 378 483 373 520 370 c 1
EndSplineSet
EndChar
StartChar: H
Encoding: 72 72 33
Width: 517
VWidth: 0
Flags: HW
HStem: 0 10G<-7 127 293 438> 292 105<195 350> 636 7G<223 235 410 542>
AnchorPoint: "above_accent" 324 646 basechar 0
LayerCount: 2
Fore
SplineSet
244 646 m 1
 227 559 209 470 192 383 c 1
 239 393 269 397 328 397 c 1
 342 397 356 397 370 397 c 1
 396 534 401 562 417 643 c 1
 459 643 500 643 542 643 c 1
 500 429 459 214 417 0 c 1
 375 0 335 0 293 0 c 1
 312 98 331 194 350 292 c 1
 334 292 l 0
 263 292 232 291 172 278 c 1
 139 107 137 90 119 0 c 1
 77 0 35 0 -7 0 c 1
 35 215 76 430 118 645 c 1
 160 645 202 646 244 646 c 1
EndSplineSet
EndChar
StartChar: I
Encoding: 73 73 50
Width: 517
VWidth: 0
Flags: HW
HStem: 2 104<49 167 288 379> 543 104<153 249 370 486>
AnchorPoint: "above_accent" 321 646 basechar 0
LayerCount: 2
Fore
SplineSet
153 646 m 1
 230 648 279 649 326 649 c 0
 377 649 426 648 506 647 c 1
 499 613 492 578 485 544 c 1
 425 544 420 547 374 547 c 1
 346 401 316 253 288 107 c 1
 310 107 303 107 328 107 c 0
 350 107 373 106 398 105 c 1
 391 70 385 35 378 -0 c 1
 337 2 307 2 276 2 c 0
 253 2 229 2 200 2 c 0
 164 2 104 -1 28 -1 c 1
 35 34 42 69 49 104 c 1
 91 106 109 106 137 106 c 1
 145 106 155 106 163 106 c 1
 192 252 220 400 249 546 c 1
 217 546 188 546 136 543 c 1
 142 578 147 611 153 646 c 1
EndSplineSet
EndChar
StartChar: J
Encoding: 74 74 51
Width: 517
VWidth: 0
Flags: HW
HStem: -4 104<149 221> 541 105<185 340>
VStem: 10 129<107 211>
AnchorPoint: "above_accent" 332 646 basechar 0
LayerCount: 2
Fore
SplineSet
165 -4 m 0
 54 -4 10 71 10 158 c 0
 10 176 13 193 16 212 c 1
 58 212 101 212 143 212 c 1
 141 197 139 183 139 171 c 0
 139 123 156 100 182 100 c 0
 279 100 323 378 340 540 c 1
 316 540 261 541 243 541 c 1
 192 540 198 535 184 532 c 1
 177 567 171 601 164 636 c 1
 179 639 183 645 241 646 c 1
 312 646 406 646 482 646 c 1
 419 224 373 -4 165 -4 c 0
EndSplineSet
EndChar
StartChar: K
Encoding: 75 75 34
Width: 517
VWidth: 0
Flags: HW
HStem: -5 3G<4 137 364 389> 642 10G<110 257 477 500>
AnchorPoint: "cedilla_accent" 229 0 basechar 0
AnchorPoint: "above_accent" 336 646 basechar 0
LayerCount: 2
Fore
SplineSet
312 362 m 1
 359 304 472 93 484 26 c 1
 446 12 408 -2 370 -16 c 1
 358 38 278 217 227 280 c 1
 227 280 193 250 172 215 c 1
 158 143 144 70 130 -2 c 1
 88 -2 46 -2 4 -2 c 1
 46 216 89 434 131 652 c 1
 173 652 215 652 257 652 c 1
 242 576 228 501 213 425 c 1
 277 496 466 654 487 672 c 1
 513 643 540 614 566 585 c 1
 464 519 348 398 312 362 c 1
EndSplineSet
EndChar
StartChar: L
Encoding: 76 76 35
Width: 517
VWidth: 0
Flags: HW
HStem: -1 103<184 449> 637 10G<145 290>
AnchorPoint: "cedilla_accent" 239 0 basechar 0
AnchorPoint: "above_accent" 220 646 basechar 0
LayerCount: 2
Fore
SplineSet
40 -1 m 1
 82 215 124 431 166 647 c 1
 208 647 248 647 290 647 c 1
 254 465 220 283 184 101 c 1
 254 101 323 101 393 101 c 1
 422 102 427 104 450 111 c 1
 455 79 462 47 467 15 c 1
 443 7 411 -1 374 -1 c 1
 263 -1 151 -1 40 -1 c 1
EndSplineSet
EndChar
StartChar: M
Encoding: 77 77 36
Width: 517
VWidth: 15
Flags: HW
HStem: 0 10G<-6 125 306 426> 636 10G<98 232 419 551>
LayerCount: 2
Fore
SplineSet
119 646 m 1
 152 646 186 646 219 646 c 1
 245 590 275 498 288 407 c 1
 331 496 393 581 445 646 c 1
 480 646 516 646 551 646 c 1
 513 452 426 0 426 0 c 1
 386 0 346 0 306 0 c 1
 325 97 342 194 361 291 c 1
 371 342 402 438 402 438 c 1
 360 378 308 287 299 269 c 1
 275 269 250 268 226 268 c 1
 226 268 202 398 186 438 c 1
 186 438 183 346 172 291 c 1
 153 194 135 97 116 0 c 1
 75 0 35 0 -6 0 c 1
 36 215 77 431 119 646 c 1
EndSplineSet
EndChar
StartChar: N
Encoding: 78 78 37
Width: 517
VWidth: 0
Flags: HW
HStem: 0 10G<-0 127 291 425> 637 10G<105 143 421 451>
VStem: 301 122<0 110>
AnchorPoint: "cedilla_accent" 208 0 basechar 0
AnchorPoint: "above_accent" 322 646 basechar 0
LayerCount: 2
Fore
SplineSet
301 0 m 1
 281 126 243 306 199 413 c 1
 191 368 182 323 174 278 c 1
 146 132 135 75 120 -1 c 1
 80 -1 40 -1 -0 -1 c 1
 42 215 84 431 126 647 c 1
 160 646 194 645 228 644 c 1
 271 552 342 321 352 199 c 1
 359 259 362 321 374 380 c 0
 392 473 411 564 432 649 c 1
 472 649 511 648 551 648 c 1
 537 592 522 518 506 437 c 0
 484 324 461 198 439 83 c 0
 434 55 427 26 422 0 c 1
 381 0 342 0 301 0 c 1
EndSplineSet
EndChar
StartChar: O
Encoding: 79 79 38
Width: 517
VWidth: 0
Flags: HW
HStem: -8 99<176 275> 560 99<280 369>
VStem: 25 128<114 328> 391 126<290 538>
AnchorPoint: "above_accent" 343 646 basechar 0
LayerCount: 2
Fore
SplineSet
346 659 m 1
 411 659 517 635 517 448 c 0
 517 411 512 367 503 316 c 1
 503 314 502 313 502 311 c 1
 486 229 455 152 423 106 c 0
 373 34 292 -8 211 -8 c 0
 151 -8 83 12 53 62 c 0
 33 94 25 134 25 179 c 0
 25 211 29 246 36 283 c 0
 70 455 114 533 157 580 c 0
 198 625 269 658 346 659 c 1
230 91 m 0
 297 91 357 226 375 312 c 1
 375 315 376 318 376 321 c 1
 383 355 391 403 391 447 c 0
 391 507 377 560 327 560 c 0
 259 560 192 424 165 289 c 0
 159 257 153 223 153 193 c 0
 153 136 171 91 230 91 c 0
EndSplineSet
EndChar
StartChar: P
Encoding: 80 80 39
Width: 517
VWidth: 0
Flags: HW
HStem: 0 10G<14 144> 214 102<198 332> 545 103<239 388>
VStem: 402 131<390 533>
LayerCount: 2
Fore
SplineSet
398 444 m 0
 401 458 402 470 402 480 c 0
 402 544 356 545 321 545 c 0
 316 545 l 1
 286 545 265 543 243 543 c 1
 241 531 238 520 236 508 c 1
 218 417 198 317 198 317 c 1
 216 317 233 316 249 316 c 0
 306 316 375 331 398 444 c 0
136 0 m 1
 95 0 55 0 14 0 c 1
 56 215 98 430 140 645 c 1
 198 645 216 648 281 648 c 0
 391 648 473 642 516 573 c 0
 528 553 533 529 533 503 c 0
 533 486 531 469 528 451 c 0
 497 293 421 214 253 214 c 0
 230 214 204 215 178 216 c 1
 153 85 151 78 136 0 c 1
EndSplineSet
EndChar
StartChar: Q
Encoding: 81 81 40
Width: 517
VWidth: 0
Flags: HW
HStem: -89 105<353 423> -1 98<177 252> 156 106<190 257> 544 105<256 359>
VStem: 37 120<156 356> 385 117<297 519>
LayerCount: 2
Fore
SplineSet
380 -89 m 0xbc
 324 -89 252 -59 252 4 c 1
 237 0 228 -1 208 -1 c 0x7c
 151 -1 103 19 72 60 c 0
 48 92 37 139 37 197 c 0
 37 232 41 271 49 313 c 0
 69 416 102 512 160 573 c 0
 217 633 269 650 329 650 c 0
 411 650 460 617 485 547 c 0
 497 513 502 479 502 447 c 0
 502 406 495 369 489 338 c 0
 468 231 426 106 351 57 c 1
 351 49 l 0
 351 20 359 16 395 16 c 1
 397 16 398 16 400 16 c 1
 418 16 431 18 443 21 c 1
 436 -15 429 -50 422 -86 c 1
 411 -88 402 -89 380 -89 c 0xbc
252 262 m 0
 308 262 330 233 339 197 c 1
 349 217 356 263 372 333 c 0
 373 337 373 341 374 345 c 0
 380 374 385 404 385 435 c 0
 385 453 383 471 378 489 c 0
 368 523 345 544 310 544 c 0
 247 544 199 471 174 345 c 0
 172 335 169 323 167 312 c 0
 164 293 157 256 157 229 c 0
 157 221 158 215 159 209 c 1
 184 242 217 262 252 262 c 0
260 103 m 1
 260 105 l 0
 260 108 261 112 261 115 c 0
 261 133 253 156 225 156 c 0
 209 156 188 151 171 132 c 1
 173 107 202 97 221 97 c 0
 229 97 l 0
 238 97 251 99 260 103 c 1
EndSplineSet
EndChar
StartChar: R
Encoding: 82 82 41
Width: 517
VWidth: 0
Flags: HW
HStem: 0 10G<7 135> 549 100<229 366>
VStem: 397 131<397 522>
AnchorPoint: "cedilla_accent" 222 0 basechar 0
AnchorPoint: "above_accent" 306 646 basechar 0
LayerCount: 2
Fore
SplineSet
346 268 m 1
 372 207 417 133 438 101 c 1
 445 93 464 75 484 70 c 1
 459 39 434 10 409 -21 c 1
 382 -17 358 7 345 28 c 1
 308 81 251 212 233 259 c 1
 216 260 199 263 179 272 c 1
 161 181 144 91 126 0 c 1
 86 0 47 0 7 0 c 1
 43 185 79 370 115 555 c 1
 121 588 125 612 129 642 c 1
 150 644 207 649 237 649 c 0
 359 649 466 645 511 570 c 0
 523 550 528 524 528 496 c 0
 528 482 527 467 524 453 c 0
 502 344 435 283 346 268 c 1
394 442 m 0
 396 452 397 462 397 470 c 0
 397 531 346 549 263 549 c 0
 250 549 246 548 232 548 c 1
 221 490 210 433 199 375 c 1
 228 362 255 354 276 354 c 0
 280 354 l 1
 363 354 384 392 394 442 c 0
EndSplineSet
EndChar
StartChar: S
Encoding: 83 83 42
Width: 517
VWidth: 0
Flags: HW
HStem: -4 102<163 303> 546 103<239 411>
VStem: 11 131<118 205> 80 133<437 520> 352 130<143 259>
AnchorPoint: "cedilla_accent" 193 0 basechar 0
AnchorPoint: "above_accent" 328 646 basechar 0
LayerCount: 2
Fore
SplineSet
143 343 m 1xe8
 103 363 80 409 80 458 c 0
 80 469 82 480 84 491 c 0
 107 598 194 648 319 648 c 0
 323 648 l 0
 440 648 510 626 548 582 c 1
 519 551 489 519 460 488 c 1
 420 538 340 546 306 546 c 1
 282 546 221 528 215 495 c 1
 214 488 213 482 213 477 c 0xd8
 213 444 235 434 257 425 c 0
 313 402 346 397 405 367 c 1
 445 346 481 306 481 237 c 0
 481 223 480 209 477 193 c 0
 450 47 334 -4 217 -4 c 1
 214 -4 211 -4 208 -4 c 1
 64 0 11 67 11 155 c 0
 11 172 14 188 17 206 c 1
 60 206 103 205 146 205 c 1
 144 192 143 180 143 170 c 0
 143 123 169 98 230 98 c 0
 269 98 336 116 350 187 c 0
 351 194 352 201 352 207 c 0
 352 247 325 269 295 284 c 0
 243 309 202 313 143 343 c 1xe8
EndSplineSet
EndChar
StartChar: T
Encoding: 84 84 43
Width: 517
VWidth: 0
Flags: HW
HStem: 0 10G<137 281> 546 101<107 243 366 513 513 525>
AnchorPoint: "cedilla_accent" 192 0 basechar 0
AnchorPoint: "above_accent" 319 646 basechar 0
LayerCount: 2
Fore
SplineSet
137 0 m 1
 172 182 208 364 243 546 c 1
 146 546 125 545 88 545 c 1
 94 579 102 612 108 646 c 1
 168 646 389 647 481 647 c 0
 517 647 550 642 561 639 c 1
 545 606 529 573 513 540 c 1
 513 540 488 546 459 546 c 1
 429 546 400 546 370 546 c 1
 335 364 299 182 264 0 c 1
 222 0 179 0 137 0 c 1
EndSplineSet
EndChar
StartChar: U
Encoding: 85 85 44
Width: 517
VWidth: 0
Flags: HW
HStem: -5 103<179 283> 649 0G<115 250 428 454>
VStem: 35 129<113 322> 434 121<577 646>
AnchorPoint: "above_accent" 329 646 basechar 0
LayerCount: 2
Fore
SplineSet
434 659 m 1
 475 655 514 650 555 646 c 1
 547 622 543 604 539 583 c 0
 538 579 537 574 536 569 c 0
 522 497 511 433 500 378 c 1
 498 368 497 360 495 350 c 1
 473 234 448 123 381 59 c 0
 332 12 266 -3 203 -5 c 1
 78 -5 35 52 35 154 c 0
 35 175 37 198 40 223 c 0
 45 261 56 321 69 388 c 0
 86 473 106 570 124 649 c 1
 166 649 208 649 250 649 c 1
 232 567 208 455 190 363 c 0
 185 339 181 315 177 294 c 0
 171 263 166 237 165 219 c 0
 165 207 164 193 164 179 c 0
 164 139 172 99 222 98 c 1
 321 102 343 211 370 351 c 0
 382 413 393 485 410 569 c 0
 417 604 423 628 434 659 c 1
EndSplineSet
EndChar
StartChar: V
Encoding: 86 86 45
Width: 517
VWidth: 0
Flags: HW
HStem: 0 10G<143 304> 652 10G<188 221 442 496>
VStem: 85 124<491 620>
LayerCount: 2
Fore
SplineSet
143 0 m 1
 143 7 144 16 144 27 c 0
 144 157 107 515 85 618 c 1
 126 633 168 647 209 662 c 1
 234 537 238 346 250 162 c 1
 316 318 406 534 479 658 c 1
 514 645 547 633 582 620 c 1
 512 505 318 100 290 0 c 1
 241 0 192 0 143 0 c 1
EndSplineSet
EndChar
StartChar: W
Encoding: 87 87 46
Width: 517
VWidth: 0
Flags: HW
HStem: 0 10G<39 158 267 404> 634 10G<192 209 465 501>
VStem: 94 118<465 631>
AnchorPoint: "above_accent" 341 646 basechar 0
LayerCount: 2
Back
SplineSet
162.109375 0 m 5
 98.14453125 0 l 5
 77.1484375 83.0078125 25.390625 505.37109375 2.9296875 627.9296875 c 5
 78.125 643.5546875 l 5
 136.71875 329.58984375 120.1171875 296.875 141.6015625 145.5078125 c 5
 175.78125 257.8125 209.47265625 432.6171875 212.40234375 467.28515625 c 5
 234.375 467.28515625 277.34375 467.28515625 293.9453125 473.14453125 c 5
 311.5234375 379.8828125 334.9609375 236.81640625 363.28125 146.484375 c 5
 379.39453125 285.64453125 361.81640625 304.6875 423.828125 642.08984375 c 5
 499.51171875 625.48828125 l 5
 474.12109375 502.9296875 423.828125 86.9140625 407.71484375 0 c 5
 341.30859375 0 l 5
 341.30859375 0 270.01953125 209.47265625 254.39453125 299.31640625 c 5
 231.4453125 189.453125 166.015625 10.7421875 162.109375 0 c 5
EndSplineSet
Fore
SplineSet
156 0 m 1
 117 0 78 0 39 0 c 1
 39 11 l 0
 39 116 92 509 94 630 c 1
 134 635 172 639 212 644 c 1
 206 550 197 512 193 481 c 0
 175 361 143 201 139 154 c 1
 139 154 254 447 264 482 c 1
 274 482 289 481 305 481 c 0
 324 481 345 483 361 490 c 1
 355 384 354 156 354 156 c 1
 375 224 399 355 429 470 c 0
 437 502 447 553 483 645 c 1
 518 639 554 632 589 626 c 1
 539 501 420 89 387 0 c 1
 347 0 307 0 267 0 c 1
 267 0 271 194 273 286 c 1
 228 174 159 6 156 0 c 1
EndSplineSet
EndChar
StartChar: X
Encoding: 88 88 47
Width: 517
VWidth: 0
Flags: HW
HStem: -15 10G<346 391> 658 14G<172 213 450 495>
LayerCount: 2
Fore
SplineSet
481 667 m 1
 508 648 536 630 563 611 c 1
 489 514 415 418 341 321 c 1
 399 188 412 113 468 45 c 1
 437 25 407 5 376 -15 c 1
 316 58 314 108 263 229 c 1
 199 144 135 59 71 -26 c 1
 41 -5 10 17 -20 38 c 1
 58 138 137 238 215 338 c 1
 176 440 141 528 88 606 c 1
 121 628 155 650 188 672 c 1
 237 599 262 514 296 429 c 1
 358 509 419 587 481 667 c 1
EndSplineSet
EndChar
StartChar: Y
Encoding: 89 89 48
Width: 517
VWidth: 0
Flags: HW
HStem: 655 10G<175 198 439 478>
AnchorPoint: "above_accent" 340 646 basechar 0
LayerCount: 2
Fore
SplineSet
136 9 m 1
 185 105 227 193 276 289 c 1
 248 344 101 544 86 597 c 1
 121 620 157 642 192 665 c 1
 204 626 308 469 337 401 c 1
 378 491 419 582 460 672 c 1
 496 656 531 641 567 625 c 1
 466 417 350 176 249 -32 c 1
 218 -22 173 -9 136 9 c 1
EndSplineSet
EndChar
StartChar: Z
Encoding: 90 90 49
Width: 517
VWidth: 0
Flags: HW
HStem: 0 105<173 437> 546 102<132 401>
AnchorPoint: "above_accent" 341 646 basechar 0
LayerCount: 2
Fore
SplineSet
23 0 m 1
 16 24 9 48 2 72 c 1
 135 230 268 388 401 546 c 1
 297 546 169 544 113 544 c 1
 119 578 126 612 132 646 c 1
 191 646 397 648 489 648 c 0
 526 648 547 642 556 641 c 1
 556 640 555 638 555 637 c 0
 550 618 550 566 546 550 c 0
 546 549 545 547 545 546 c 1
 421 400 297 252 173 106 c 1
 232 106 291 105 350 105 c 1
 392 105 405 108 439 118 c 1
 444 83 448 48 453 13 c 1
 430 5 395 0 358 0 c 0
 27 0 l 1
 26 0 24 0 23 0 c 1
EndSplineSet
EndChar
StartChar: bracketleft
Encoding: 91 91 96
Width: 517
VWidth: 32
Flags: HW
HStem: -126 101<242 373> 618 102<364 510>
LayerCount: 2
Fore
SplineSet
516 724 m 1
 514 690 512 658 510 624 c 1
 469 620 433 620 368 618 c 1
 326 403 284 188 242 -27 c 1
 280 -26 322 -25 329 -25 c 1
 330 -25 332 -25 333 -25 c 1
 357 -25 383 -28 388 -29 c 1
 383 -63 377 -97 372 -131 c 1
 360 -130 341 -126 306 -126 c 0
 277 -126 140 -127 95 -127 c 1
 112 -40 121 0 138 88 c 0
 146 132 157 191 174 278 c 0
 191 363 206 450 218 514 c 1
 231 582 245 651 258 719 c 1
 303 719 440 721 465 721 c 1
 501 722 505 723 516 724 c 1
EndSplineSet
EndChar
StartChar: backslash
Encoding: 92 92 115
Width: 517
VWidth: 29
Flags: HW
VStem: 125 284
LayerCount: 2
Fore
SplineSet
409 -31 m 1
 370 -43 332 -54 293 -66 c 1
 261 72 159 505 125 677 c 1
 164 688 202 699 241 710 c 1
 273 536 373 104 409 -31 c 1
EndSplineSet
EndChar
StartChar: bracketright
Encoding: 93 93 97
Width: 517
VWidth: 32
Flags: HW
HStem: -126 101<36 183> 624 101<199 309>
LayerCount: 2
Fore
SplineSet
201 724 m 1
 212 723 216 722 251 721 c 1
 276 721 413 719 458 719 c 1
 445 651 430 582 417 514 c 1
 405 450 388 363 371 278 c 0
 354 191 341 132 333 88 c 0
 316 0 309 -40 292 -127 c 1
 247 -127 110 -126 81 -126 c 0
 46 -126 27 -130 14 -131 c 1
 21 -97 29 -63 36 -29 c 1
 42 -28 69 -25 93 -25 c 1
 94 -25 97 -25 98 -25 c 1
 105 -25 146 -26 183 -27 c 1
 225 188 267 403 309 618 c 1
 245 620 207 620 168 624 c 1
 179 658 190 690 201 724 c 1
EndSplineSet
EndChar
StartChar: asciicircum
Encoding: 94 94 116
Width: 517
VWidth: -4
Flags: HW
HStem: 207 331
LayerCount: 2
Fore
SplineSet
322 538 m 1
 388 455 454 370 520 287 c 1
 490 260 460 234 430 207 c 1
 385 264 339 321 294 378 c 1
 228 322 160 265 94 209 c 1
 75 234 56 259 37 284 c 1
 132 368 227 454 322 538 c 1
EndSplineSet
EndChar
StartChar: underscore
Encoding: 95 95 117
Width: 517
VWidth: 20
Flags: HW
HStem: -163 104<-26 417>
LayerCount: 2
Fore
SplineSet
-26 -59 m 1
 128 -59 282 -59 436 -59 c 1
 429 -94 423 -128 416 -163 c 1
 261 -163 107 -163 -48 -163 c 1
 -41 -128 -33 -94 -26 -59 c 1
EndSplineSet
EndChar
StartChar: grave
Encoding: 96 96 118
Width: 517
VWidth: -12
Flags: HW
HStem: 437 294
VStem: 176 332
LayerCount: 2
Fore
SplineSet
276 731 m 1
 301 675 465 561 507 543 c 1
 438 437 l 1
 349 484 241 556 176 646 c 1
 276 731 l 1
EndSplineSet
EndChar
StartChar: a
Encoding: 97 97 0
Width: 517
VWidth: 2
Flags: HW
HStem: -15 10G<380 403> -5 98<125 251> 400 102<228 335>
VStem: 34 122<96 286> 342 91<39 134>
AnchorPoint: "above_accent" 330 541 basechar 0
LayerCount: 2
Back
SplineSet
185.360351562 154.78515625 m 0
 176.05859375 106.93359375 206.903320312 92.28515625 238.153320312 92.28515625 c 0
 291.864257812 92.28515625 341.583984375 142.08984375 355.688476562 169.43359375 c 1
 360.149414062 192.3828125 l 1
 346.557617188 212.890625 316.581054688 229.4921875 285.331054688 229.4921875 c 0
 253.104492188 229.4921875 195.80078125 208.49609375 185.360351562 154.78515625 c 0
471.88671875 154.296875 m 2
 463.154296875 109.375 467.497070312 83.984375 491.059570312 62.01171875 c 1
 421.740234375 -10.7421875 l 1
 400.146484375 8.7890625 384.587890625 14.16015625 370.9140625 49.31640625 c 1
 326.40234375 11.23046875 283.134765625 -5.37109375 194.267578125 -5.37109375 c 0
 110.771484375 -5.37109375 43.1279296875 58.59375 60.40234375 147.4609375 c 0
 68.943359375 191.40625 91.849609375 233.88671875 126.448242188 263.671875 c 0
 182.041015625 311.03515625 234.977539062 327.1484375 304.313476562 327.1484375 c 0
 335.563476562 327.1484375 365.796875 316.89453125 381.884765625 304.19921875 c 1
 397.639648438 385.25390625 343.94140625 400.390625 314.64453125 400.390625 c 0
 258.4921875 400.390625 224.12109375 395.99609375 177.982421875 365.72265625 c 1
 109.86328125 445.80078125 l 1
 207.51953125 506.34765625 251.09375 499.643554688 338.29296875 501.953125 c 1
 448.15625 501.953125 526.650390625 436.03515625 504.0625 319.82421875 c 0
 471.88671875 154.296875 l 2
EndSplineSet
Fore
SplineSet
167 250 m 0x78
 158 206 155 175 155 152 c 0
 155 93 180 92 202 92 c 0
 256 92 313 183 327 210 c 1
 336 258 346 308 355 356 c 1
 341 377 313 400 282 400 c 0
 250 400 193 380 167 250 c 0x78
435 154 m 2
 434 146 433 138 433 130 c 0
 433 95 448 67 467 49 c 1
 441 28 416 6 390 -15 c 1xb8
 370 3 342 36 342 81 c 0
 342 84 342 87 342 90 c 1
 302 24 247 -5 158 -5 c 0
 92 -5 34 24 34 147 c 0
 34 179 38 219 47 265 c 0
 84 457 210 502 281 502 c 1
 321 502 361 486 380 459 c 1
 383 473 387 486 390 500 c 1
 502 495 l 0
 480 382 457 267 435 154 c 2
EndSplineSet
EndChar
StartChar: b
Encoding: 98 98 1
Width: 517
VWidth: 0
Flags: HW
HStem: -3 88<205 292> 397 98<271 399> 680 10G<245 264>
VStem: 144 122<545 685> 356 123<191 393>
LayerCount: 2
Back
SplineSet
381.305664062 233.3984375 m 0
 406.267578125 361.81640625 377.45703125 396.97265625 332.53515625 396.97265625 c 0
 297.37890625 396.97265625 260.474609375 360.3515625 239.141601562 333.49609375 c 1
 207.44140625 170.41015625 l 1
 222.662109375 120.60546875 250.306640625 84.47265625 280.091796875 84.47265625 c 0
 332.826171875 84.47265625 363.271484375 140.625 381.305664062 233.3984375 c 0
504.013671875 224.12109375 m 0
 474.875976562 74.21875 402.16796875 -3.41796875 279.609375 -3.41796875 c 0
 219.0625 -3.41796875 184.94921875 19.53125 171.423828125 45.41015625 c 1
 167.4375 24.90234375 139.87890625 -6.34765625 139.87890625 -6.34765625 c 1
 46.07421875 3.41796875 l 1
 57.220703125 35.64453125 69.873046875 78.125 77.7509765625 118.65234375 c 0
 78.509765625 122.55859375 79.26953125 126.46484375 80.029296875 130.37109375 c 0
 103.662109375 251.953125 137.4375 428.22265625 164.012695312 564.94140625 c 0
 172.934570312 610.83984375 177.000976562 651.85546875 180.037109375 685.05859375 c 1
 301.49609375 689.453125 l 1
 298.962890625 653.80859375 292.29296875 606.93359375 283.655273438 562.5 c 0
 275.11328125 518.5546875 266.962890625 491.69921875 250.865234375 454.1015625 c 1
 271.58984375 467.7734375 312.943359375 494.62890625 368.607421875 494.62890625 c 0
 501.420898438 494.62890625 539.321289062 405.76171875 504.013671875 224.12109375 c 0
EndSplineSet
Fore
SplineSet
345 233 m 0
 353 275 356 307 356 331 c 0
 356 381 342 397 324 397 c 0
 257 397 217 337 192 278 c 1
 185 242 178 206 171 170 c 1
 186 120 214 84 244 84 c 0
 297 84 327 140 345 233 c 0
467 224 m 0
 438 74 366 -3 243 -3 c 0
 182 -3 149 19 135 45 c 1
 131 24 103 -6 103 -6 c 1
 72 -3 40 0 9 3 c 1
 20 35 32 79 41 119 c 0
 42 123 42 126 43 130 c 0
 70 251 101 428 127 565 c 0
 136 611 141 652 144 685 c 1
 185 686 224 688 265 689 c 1
 263 653 249 570 240 526 c 0
 232 482 211 441 195 403 c 1
 218 431 260 495 363 495 c 0
 434 495 479 441 479 332 c 0
 479 301 475 265 467 224 c 0
EndSplineSet
EndChar
StartChar: c
Encoding: 99 99 2
Width: 517
VWidth: 1
Flags: HW
HStem: -3 103<191 316> 394 103<242 390>
VStem: 38 129<123 302>
AnchorPoint: "above_accent" 330 541 basechar 0
LayerCount: 2
Back
SplineSet
209.78125 257.8125 m 0
 179.50390625 102.05078125 260.966796875 99.12109375 283.916015625 99.12109375 c 2
 289.775390625 99.12109375 l 2
 338.603515625 99.12109375 371.234375 131.34765625 402.359375 170.8984375 c 1
 499.995117188 105.46875 l 1
 452.552734375 32.2265625 381.171875 -3.41796875 274.7265625 -3.41796875 c 0
 223.9453125 -3.41796875 164.645507812 0.48828125 124.603515625 35.64453125 c 1
 70.7138671875 84.9609375 65.798828125 160.15625 84.6865234375 257.32421875 c 0
 116.95703125 423.33984375 218.203125 497.0703125 372.01171875 497.0703125 c 0
 418.3984375 497.0703125 463.958007812 487.79296875 490.732421875 467.28515625 c 0
 516.235351562 447.75390625 533.095703125 418.9453125 538.901367188 393.5546875 c 1
 421.798828125 343.75 l 1
 420.522460938 362.3046875 411.5546875 394.04296875 343.1953125 394.04296875 c 0
 271.41796875 394.04296875 223.354492188 327.63671875 209.78125 257.8125 c 0
EndSplineSet
Fore
SplineSet
173 258 m 0
 168 234 167 213 167 196 c 0
 167 101 227 99 247 99 c 1
 249 99 251 99 253 99 c 1
 302 99 335 131 366 171 c 1
 399 149 430 127 463 105 c 1
 416 32 344 -3 238 -3 c 0
 187 -3 128 1 88 36 c 1
 52 69 38 112 38 167 c 0
 38 194 42 224 48 257 c 0
 80 423 181 497 335 497 c 0
 424 497 481 469 522 428 c 1
 494 395 466 363 438 330 c 1
 428 351 375 394 307 394 c 0
 235 394 187 328 173 258 c 0
EndSplineSet
EndChar
StartChar: d
Encoding: 100 100 3
Width: 517
VWidth: 0
Flags: HW
HStem: -3 88<152 235> 398 98<231 323> 680 10G<416 442>
VStem: 21 123<89 273> 309 110<4 85> 422 120<607 685>
LayerCount: 2
Back
SplineSet
215.290039062 233.3984375 m 4
 197.255859375 140.625 205.873046875 84.47265625 258.607421875 84.47265625 c 4
 288.392578125 84.47265625 329.595703125 120.60546875 364.1796875 170.41015625 c 5
 395.879882812 333.49609375 l 5
 384.986328125 360.3515625 362.3203125 396.97265625 327.1640625 396.97265625 c 4
 282.2421875 396.97265625 240.251953125 361.81640625 215.290039062 233.3984375 c 4
88.974609375 224.12109375 m 4
 125.13671875 410.15625 201.126953125 494.62890625 329.544921875 494.62890625 c 4
 385.208984375 494.62890625 415.6328125 467.7734375 431.041015625 454.1015625 c 5
 429.560546875 491.69921875 431.8515625 518.5546875 440.393554688 562.5 c 4
 449.03125 606.93359375 460.583984375 653.80859375 471.90625 689.453125 c 5
 592.1484375 685.05859375 l 5
 582.275390625 651.85546875 570.395507812 610.83984375 561.474609375 564.94140625 c 4
 534.897460938 428.22265625 499.658203125 251.953125 476.025390625 130.37109375 c 4
 475.265625 126.46484375 474.505859375 122.55859375 473.747070312 118.65234375 c 4
 465.869140625 78.125 462.494140625 35.64453125 461.11328125 3.41796875 c 5
 363.51171875 -6.34765625 l 5
 363.51171875 -6.34765625 347.61328125 24.90234375 351.599609375 45.41015625 c 5
 328.015625 19.53125 284.98046875 -3.41796875 224.43359375 -3.41796875 c 4
 101.875 -3.41796875 59.8369140625 74.21875 88.974609375 224.12109375 c 4
EndSplineSet
Fore
SplineSet
155 233 m 0
 148 195 145 164 145 140 c 0
 145 104 162 84 177 84 c 1
 221 84 283 126 326 229 c 1
 333 264 339 298 346 333 c 1
 335 360 319 398 277 398 c 0
 251 398 180 361 155 233 c 0
29 224 m 0
 65 410 152 496 280 496 c 0
 336 496 365 468 381 454 c 1
 381 461 381 468 381 474 c 0
 381 502 384 526 391 562 c 0
 400 606 411 653 422 689 c 1
 462 688 502 686 542 685 c 1
 532 652 521 611 512 565 c 0
 486 428 453 251 426 130 c 0
 425 126 425 123 424 119 c 0
 420 102 419 84 419 66 c 0
 419 41 422 18 429 3 c 1
 394 1 359 -3 324 -5 c 1
 317 2 309 46 309 72 c 0
 309 77 310 82 310 85 c 1
 280 24 221 -3 160 -3 c 0
 87 -3 21 50 21 154 c 0
 21 175 24 199 29 224 c 0
EndSplineSet
EndChar
StartChar: e
Encoding: 101 101 4
Width: 517
VWidth: 15
Flags: HW
HStem: -5 101<188 349> 399 99<240 347>
VStem: 43 125<116 164> 360 124<308 386>
AnchorPoint: "above_accent" 319 541 basechar 0
LayerCount: 2
Back
SplineSet
221.580078125 295.8984375 m 1
 278.653320312 305.6640625 324.931640625 307.6171875 389.873046875 307.6171875 c 1
 399.865234375 371.58203125 370.119140625 399.4140625 327.150390625 399.4140625 c 0
 277.345703125 399.4140625 235.51953125 352.5390625 221.580078125 295.8984375 c 1
345.440429688 498.53515625 m 0
 501.201171875 498.53515625 534.682617188 396.97265625 502.79296875 232.91015625 c 1
 500.893554688 223.14453125 498.22265625 211.9140625 498.22265625 211.9140625 c 1
 358.68359375 209.9609375 253.350585938 203.125 201.6484375 193.359375 c 1
 198.924804688 139.16015625 233.447265625 95.703125 278.369140625 95.703125 c 1
 330.126953125 95.703125 356.98046875 113.28125 397.20703125 149.4140625 c 1
 469.314453125 73.2421875 l 1
 409.369140625 18.5546875 372.5859375 -4.8828125 255.88671875 -4.8828125 c 1
 116.23828125 -4.8828125 57.353515625 99.12109375 87.060546875 251.953125 c 0
 114.205078125 391.6015625 207.256835938 498.53515625 345.440429688 498.53515625 c 0
EndSplineSet
Fore
SplineSet
177 265 m 1
 242 273 321 293 335 305 c 0
 347 315 360 331 360 347 c 0
 360 372 344 399 291 399 c 0
 243 399 193 349 177 265 c 1
309 499 m 0
 446 499 484 416 484 350 c 0
 484 333 480 312 476 300 c 0
 446 219 361 185 167 162 c 1
 167 131 196 96 242 96 c 0
 294 96 349 109 397 144 c 1
 414 115 430 85 447 56 c 1
 364 12 336 -5 219 -5 c 1
 103 -5 43 67 43 179 c 0
 43 202 45 226 50 252 c 0
 77 392 171 499 309 499 c 0
EndSplineSet
EndChar
StartChar: f
Encoding: 102 102 5
Width: 517
VWidth: 0
Flags: HW
HStem: 0 10G<82 220> 394 100<107 158 303 441> 594 98<330 516>
LayerCount: 2
Back
SplineSet
428.49609375 594.23828125 m 0
 364.04296875 594.23828125 351.6484375 558.10546875 345.954101562 528.80859375 c 0
 343.391601562 515.625 339.703125 494.140625 339.703125 494.140625 c 1
 372.90625 494.140625 393.90234375 494.140625 429.546875 494.140625 c 1
 480.81640625 494.140625 499.697265625 488.28125 513.491210938 483.88671875 c 1
 473.309570312 387.6953125 l 1
 463.719726562 391.11328125 454.03515625 394.04296875 426.69140625 394.04296875 c 2
 319.7578125 394.04296875 l 1
 243.65234375 0 l 1
 118.1640625 0 l 1
 194.7578125 394.04296875 l 1
 124.93359375 394.04296875 l 1
 144.390625 494.140625 l 1
 214.21484375 494.140625 l 1
 215.734375 501.953125 217.34765625 510.25390625 219.150390625 519.53125 c 0
 231.489257812 583.0078125 284.9765625 692.3828125 439.2734375 692.3828125 c 0
 534.975585938 692.3828125 593.979492188 671.875 617.353515625 596.19140625 c 1
 504.62890625 548.828125 l 1
 499.716796875 588.8671875 472.44140625 594.23828125 428.49609375 594.23828125 c 0
EndSplineSet
Fore
SplineSet
508 563 m 1
 473 591 419 594 392 594 c 0
 328 594 316 558 310 529 c 0
 308 516 303 494 303 494 c 1
 387 494 l 1
 438 494 457 488 471 484 c 1
 461 452 452 420 442 388 c 1
 432 391 423 394 396 394 c 1
 358 394 321 394 283 394 c 1
 258 263 232 131 207 0 c 1
 165 0 124 0 82 0 c 1
 107 131 133 263 158 394 c 1
 137 394 118 394 97 394 c 1
 100 427 104 461 107 494 c 1
 130 494 155 494 178 494 c 1
 179 502 181 511 183 520 c 0
 196 583 249 692 403 692 c 0
 445 692 517 682 562 661 c 1
 544 629 526 595 508 563 c 1
EndSplineSet
EndChar
StartChar: g
Encoding: 103 103 6
Width: 517
VWidth: 6
Flags: HW
HStem: -196 106<75 232> -4 107<143 220> 404 101<215 339>
VStem: 22 114<107 300>
AnchorPoint: "above_accent" 329 541 basechar 0
LayerCount: 2
Back
SplineSet
246.696289062 -89.84375 m 2
 276.969726562 -89.84375 344.255859375 -72.75390625 353.55859375 -24.90234375 c 0
 357.44921875 -4.8828125 349.83984375 11.23046875 294.17578125 11.23046875 c 0
 163.708984375 10.7421875 l 1
 149.630859375 -3.90625 146.59375 -19.53125 142.41796875 -41.015625 c 0
 136.533203125 -71.2890625 169.059570312 -89.84375 202.750976562 -89.84375 c 2
 246.696289062 -89.84375 l 2
383.84765625 354.4921875 m 0
 392.009765625 396.484375 356.337890625 401.3671875 314.345703125 401.3671875 c 0
 271.376953125 401.3671875 234.837890625 386.71875 227.720703125 350.09765625 c 0
 219.177734375 306.15234375 249.723632812 292.48046875 293.668945312 292.48046875 c 0
 351.286132812 292.48046875 376.729492188 317.87109375 383.84765625 354.4921875 c 0
502.5390625 399.90234375 m 1
 502.5390625 399.90234375 510.703125 389.16015625 503.017578125 349.609375 c 0
 486.311523438 263.671875 422.147460938 194.82421875 285.428710938 194.82421875 c 2
 283.963867188 194.82421875 l 2
 247.342773438 194.82421875 219.686523438 198.2421875 213.419921875 201.171875 c 1
 202.0546875 190.4296875 194.12109375 177.24609375 191.2734375 162.59765625 c 0
 187.952148438 145.5078125 192.158203125 109.375 243.916015625 109.375 c 0
 331.318359375 109.375 l 0
 406.025390625 109.375 497.36328125 86.9140625 478.28515625 -11.23046875 c 0
 457.12109375 -120.1171875 338.553710938 -187.5 254.081054688 -187.5 c 3
 224.295898438 -187.5 218.436523438 -187.5 178.397460938 -187.5 c 0
 78.7880859375 -187.5 11.2529296875 -143.06640625 31.6591796875 -38.0859375 c 0
 41.2451171875 11.23046875 64.396484375 44.921875 94.736328125 67.87109375 c 1
 75.1083984375 84.9609375 63.455078125 125.48828125 71.6171875 167.48046875 c 0
 81.203125 216.796875 104.802734375 240.234375 126.759765625 260.25390625 c 1
 112.462890625 284.66796875 97.908203125 302.734375 104.931640625 338.8671875 c 0
 127.236328125 453.61328125 215.056640625 500.9765625 339.080078125 500.9765625 c 0
 387.908203125 500.9765625 433.453125 494.140625 466.1015625 471.19140625 c 1
 494.39453125 493.65234375 522.670898438 500.9765625 579.311523438 500.9765625 c 1
 559.951171875 401.3671875 l 1
 554.282226562 402.34375 545.288085938 403.80859375 540.405273438 403.80859375 c 0
 523.803710938 403.80859375 514.82421875 402.83203125 502.5390625 399.90234375 c 1
EndSplineSet
Fore
SplineSet
136 169 m 0
 136 114 153 103 175 103 c 0
 223 103 350 246 365 293 c 1
 368 312 372 330 375 349 c 1
 360 368 326 404 275 404 c 0
 202 404 136 319 136 169 c 0
525 495 m 1
 504 388 483 281 462 174 c 1
 425 -14 356 -196 163 -196 c 0
 107 -196 38 -175 -46 -125 c 1
 -30 -92 -14 -60 2 -27 c 1
 73 -76 128 -90 171 -90 c 0
 275 -90 314 54 333 114 c 1
 305 73 251 -4 147 -4 c 0
 71 -4 22 68 22 167 c 0
 22 357 132 505 285 505 c 0
 347 505 380 479 403 463 c 1
 405 472 410 489 413 500 c 1
 451 498 487 497 525 495 c 1
EndSplineSet
EndChar
StartChar: h
Encoding: 104 104 8
Width: 517
VWidth: 0
Flags: HW
HStem: -5 5G<6 133 351 377> 389 106<285 359> 679 10G<234 253>
VStem: 132 122<548 685> 318 126<36 188> 362 123<201 388>
AnchorPoint: "above_accent" 188 684 basechar 0
LayerCount: 2
Back
SplineSet
513.681640625 276.3671875 m 1
 480.65234375 106.4453125 l 0
 472.869140625 66.40625 476.451171875 37.109375 485.2421875 19.53125 c 1
 367.296875 -19.53125 l 1
 359.103515625 -3.90625 346.107421875 32.2265625 356.548828125 85.9375 c 0
 386.4453125 239.74609375 l 1
 415.7734375 390.625 370.1328125 396.97265625 325.2109375 396.97265625 c 0
 287.61328125 396.97265625 248.661132812 359.86328125 227.328125 333.0078125 c 1
 162.59765625 0 l 1
 42.96875 0 l 1
 152.6875 564.453125 l 0
 161.609375 610.3515625 165.1875 651.3671875 168.22265625 684.5703125 c 1
 290.171875 688.96484375 l 1
 287.63671875 653.3203125 280.966796875 606.4453125 272.330078125 562.01171875 c 0
 263.787109375 518.06640625 255.638671875 491.2109375 239.541015625 453.61328125 c 1
 260.263671875 467.28515625 302.689453125 494.62890625 360.794921875 494.62890625 c 0
 482.865234375 494.62890625 544.243164062 433.59375 513.681640625 276.3671875 c 1
EndSplineSet
Fore
SplineSet
477 276 m 1xf4
 467 226 458 175 448 125 c 0
 446 112 444 102 444 93 c 0
 444 74 450 62 464 47 c 1
 429 26 395 5 360 -16 c 1
 341 -3 318 23 318 64 c 0xf8
 318 71 319 78 320 86 c 0
 330 137 340 189 350 240 c 1
 359 286 362 318 362 340 c 0
 362 388 345 389 333 389 c 0
 332 389 l 0
 281 389 192 279 166 204 c 1
 153 136 139 68 126 0 c 1
 86 0 46 0 6 0 c 1
 43 188 80 376 116 564 c 0
 125 610 129 652 132 685 c 1
 173 686 213 688 254 689 c 1
 252 653 234 553 225 509 c 0
 217 465 185 412 169 374 c 1
 190 388 253 495 361 495 c 0
 425 495 484 452 484 347 c 0
 484 326 482 302 477 276 c 1xf4
EndSplineSet
EndChar
StartChar: i
Encoding: 105 105 9
Width: 517
VWidth: 0
Flags: HW
HStem: -9 98<241 412> 498 10G<221 255> 577 110<257 378>
VStem: 157 133<60 188>
LayerCount: 2
Back
SplineSet
160.64453125 686.5234375 m 5
 302.734375 686.5234375 l 5
 302.734375 576.66015625 l 5
 160.64453125 576.66015625 l 5
 160.64453125 686.5234375 l 5
EndSplineSet
Refer: 177 305 N 1 0 0 1 0 0 2
Fore
SplineSet
257 687 m 1
 399 687 l 1
 378 577 l 1
 236 577 l 1
 257 687 l 1
EndSplineSet
Refer: 177 305 N 1 0 0 1 0 0 2
EndChar
StartChar: j
Encoding: 106 106 10
Width: 517
VWidth: 0
Flags: HW
HStem: -190 98<117 223> -14 10G<61 91> 407 87<216 318> 577 110<363 484>
VStem: 322 124<262 403>
LayerCount: 2
Back
SplineSet
266.6015625 686.5234375 m 1
 408.69140625 686.5234375 l 1
 408.69140625 576.66015625 l 1
 266.6015625 576.66015625 l 1
 266.6015625 686.5234375 l 1
EndSplineSet
Refer: 332 567 N 1 0 0 1 0 0 2
Fore
SplineSet
363 687 m 1
 505 687 l 1
 484 577 l 1
 342 577 l 1
 363 687 l 1
EndSplineSet
Refer: 332 567 N 1 0 0 1 0 0 2
EndChar
StartChar: k
Encoding: 107 107 11
Width: 517
VWidth: 0
Flags: HW
HStem: 0 10G<29 161 367 404> 397 100<279 367> 687 10G<251 273>
VStem: 150 126<540 676> 370 124<305 430>
AnchorPoint: "cedilla_accent" 231 0 basechar 0
AnchorPoint: "above_accent" 211 684 basechar 0
LayerCount: 2
Back
SplineSet
338.888671875 291.50390625 m 0
 382.833984375 291.50390625 393.900390625 320.80078125 400.828125 356.4453125 c 0
 404.24609375 374.0234375 399.91796875 396.97265625 372.0859375 396.97265625 c 0
 336.44140625 396.97265625 252.026367188 334.47265625 252.026367188 334.47265625 c 1
 246.426757812 305.6640625 l 1
 253.955078125 304.19921875 319.845703125 291.50390625 338.888671875 291.50390625 c 0
187.01171875 0 m 1
 65.4296875 0 l 1
 181.982421875 599.609375 l 2
 187.771484375 629.39453125 187.918945312 655.2734375 185.462890625 675.29296875 c 1
 308.779296875 696.77734375 l 1
 310.991210938 685.546875 315.998046875 663.57421875 309.733398438 631.34765625 c 2
 288.568359375 522.4609375 l 1
 283.0625 494.140625 271.712890625 463.37890625 257.404296875 437.5 c 1
 257.404296875 437.5 326.017578125 496.58203125 395.841796875 496.58203125 c 0
 493.49609375 496.58203125 544.228515625 453.61328125 525.717773438 358.3984375 c 0
 514.047851562 298.33984375 492.890625 257.32421875 416.028320312 223.6328125 c 1
 462.904296875 206.0546875 470.041015625 169.921875 475.60546875 118.1640625 c 0
 477.77734375 96.6796875 498.676757812 78.61328125 512.514648438 66.89453125 c 1
 403.19921875 -13.18359375 l 1
 344.46875 11.23046875 337.927734375 62.98828125 332.30859375 124.51171875 c 0
 325.969726562 192.3828125 235.041015625 194.3359375 225.763671875 194.3359375 c 0
 224.787109375 194.3359375 l 1
 187.01171875 0 l 1
EndSplineSet
Fore
SplineSet
223 209 m 1
 229 218 272 292 277 297 c 1
 290 293 302 290 312 290 c 0
 343 290 361 311 369 354 c 0
 369 356 370 360 370 362 c 0
 370 379 359 397 335 397 c 0
 299 397 215 334 215 334 c 1
 194 223 171 111 150 0 c 1
 109 0 70 0 29 0 c 1
 68 200 107 400 146 600 c 1
 149 618 150 634 150 649 c 0
 150 659 150 667 149 675 c 1
 190 682 231 690 272 697 c 1
 273 690 276 678 276 661 c 0
 276 652 275 642 273 631 c 1
 266 595 259 558 252 522 c 1
 247 494 235 464 221 438 c 1
 221 438 289 497 359 497 c 0
 443 497 493 465 493 395 c 0
 493 384 491 371 489 358 c 0
 472 269 431 221 367 212 c 1
 415 136 443 108 493 66 c 1
 457 39 422 12 386 -15 c 1
 349 20 282 113 223 209 c 1
EndSplineSet
Substitution2: "'ss01' Style Set 1 - No loop k-1" k.noloop
EndChar
StartChar: l
Encoding: 108 108 12
Width: 517
VWidth: 0
Flags: HW
HStem: -9 105<240 399> 694 10G<175 212>
VStem: 91 129<115 273>
AnchorPoint: "cedilla_accent" 252 0 basechar 0
AnchorPoint: "above_accent" 241 684 basechar 0
LayerCount: 2
Back
SplineSet
309.064453125 698.2421875 m 2
 433.087890625 698.2421875 l 1
 407.176757812 564.94140625 324.345703125 133.7890625 324.345703125 133.7890625 c 1
 318.271484375 102.5390625 323.42578125 88.8671875 368.34765625 88.8671875 c 0
 413.7578125 88.8671875 446.1875 104.98046875 480.98828125 133.30078125 c 1
 510.317382812 40.52734375 l 1
 461.587890625 5.859375 385.009765625 -8.7890625 324.462890625 -8.7890625 c 0
 282.958984375 -8.7890625 239.85546875 -1.953125 220.6484375 9.765625 c 0
 183.60546875 32.71484375 187.291992188 71.77734375 192.891601562 100.5859375 c 1
 214.4375 211.42578125 236.822265625 329.1015625 258.3671875 439.94140625 c 0
 269.1875 495.60546875 279.72265625 549.8046875 290.08203125 600.5859375 c 1
 285.19921875 600.5859375 278.36328125 600.5859375 270.55078125 600.5859375 c 0
 242.71875 600.5859375 201.025390625 599.609375 162.791015625 591.30859375 c 1
 166.283203125 682.12890625 l 1
 214.83984375 695.80078125 270.001953125 698.2421875 309.064453125 698.2421875 c 2
EndSplineSet
Fore
SplineSet
316 694 m 9
 285 533 255 373 224 212 c 1
 222 197 220 185 220 173 c 0
 220 121 247 96 305 96 c 0
 350 96 400 114 439 139 c 1
 451 106 462 74 474 41 c 1
 425 6 353 -9 292 -9 c 0
 165 -9 91 56 91 141 c 0
 91 155 92 169 95 185 c 1
 127 358 159 531 191 704 c 25
 233 701 274 697 316 694 c 9
EndSplineSet
EndChar
StartChar: m
Encoding: 109 109 13
Width: 517
VWidth: 1
Flags: HW
HStem: -5 5G<-27 92 242 270 411 436> 397 101<199 268 391 396> 500 10G<144 163>
VStem: 341 110<70 204> 396 109<274 443>
LayerCount: 2
Back
SplineSet
461.806640625 -15.625 m 5
 428.466796875 -8.7890625 361.462890625 10.7421875 381.014648438 111.328125 c 6
 381.205078125 112.3046875 l 5
 431.4140625 370.60546875 l 21
 434.422851562 391.11328125 432.6328125 396.97265625 417.984375 396.97265625 c 5
 407.2421875 396.97265625 366.950195312 320.3125 354.798828125 292.96875 c 5
 296.875 0 l 5
 187.106445312 0.48828125 l 1
 259.240234375 371.58203125 l 1
 262.751953125 389.6484375 263.19921875 396.97265625 250.502929688 396.97265625 c 1
 238.78515625 396.97265625 197.745117188 349.12109375 176.942382812 297.36328125 c 5
 119.140625 0 l 5
 9.765625 0 l 1
 84.908203125 391.6015625 l 2
 93.736328125 437.01171875 90.126953125 453.61328125 86.4765625 477.5390625 c 1
 199.185546875 509.765625 l 1
 203.47265625 494.140625 199.3515625 462.890625 199.2578125 444.82421875 c 1
 217.025390625 463.37890625 254.525390625 498.046875 297.982421875 498.046875 c 0
 351.693359375 498.046875 362.42578125 447.75390625 360.080078125 413.0859375 c 1
 388.37109375 453.125 427.376953125 498.046875 471.810546875 498.046875 c 6
 475.716796875 498.046875 l 6
 536.264648438 498.046875 550.415039062 430.17578125 536.938476562 360.83984375 c 6
 488.247070312 110.3515625 l 6
 483.40625 85.44921875 504.580078125 71.2890625 523.081054688 63.4765625 c 5
 461.806640625 -15.625 l 5
EndSplineSet
Fore
SplineSet
425 -16 m 1xf0
 396 -10 341 6 341 78 c 0xf0
 341 88 342 99 344 111 c 1
 345 112 l 1
 362 198 378 285 395 371 c 17
 396 376 396 380 396 383 c 0
 396 393 392 397 381 397 c 1
 370 397 330 320 318 293 c 1
 298 195 280 98 260 0 c 1
 223 0 187 0 150 0 c 1
 174 124 199 248 223 372 c 1
 224 378 225 383 225 387 c 0
 225 394 222 397 214 397 c 1
 202 397 161 349 140 297 c 1
 121 198 102 99 83 0 c 1
 46 0 10 0 -27 0 c 1
 -2 130 23 262 48 392 c 1
 52 413 54 427 54 439 c 0
 54 454 52 465 50 478 c 1
 88 489 125 499 163 510 c 1
 164 505 165 498 165 490 c 0
 165 475 163 457 163 445 c 1
 181 464 218 498 261 498 c 0
 310 498 324 456 324 422 c 0
 324 419 323 416 323 413 c 1
 351 453 391 498 435 498 c 1
 436 498 438 498 439 498 c 1
 486 498 505 458 505 407 c 0xe8
 505 392 503 377 500 361 c 1
 484 278 468 193 452 110 c 1
 452 108 451 105 451 103 c 0
 451 82 469 70 486 63 c 1
 465 37 446 10 425 -16 c 1xf0
EndSplineSet
EndChar
StartChar: n
Encoding: 110 110 15
Width: 517
VWidth: 2
Flags: HW
HStem: 0 10G<12 143> 400 101<300 424> 504 10G<190 210>
VStem: 94 117<401 497> 317 129<56 207> 369 131<294 447>
AnchorPoint: "cedilla_accent" 221 0 basechar 0
AnchorPoint: "above_accent" 320 541 basechar 0
LayerCount: 2
Back
SplineSet
253.022460938 452.63671875 m 5
 285.111328125 477.05078125 355.193359375 500.9765625 408.904296875 500.9765625 c 4
 488.979492188 500.9765625 549.125976562 468.75 533.559570312 388.671875 c 6
 484.393554688 135.7421875 l 6
 478.12890625 103.515625 500.454101562 92.7734375 524.951171875 78.125 c 5
 449.328125 -19.53125 l 5
 405.7890625 -4.8828125 341.5234375 31.25 356.51953125 108.3984375 c 6
 401.79296875 341.30859375 l 6
 408.81640625 377.44140625 405.857421875 399.90234375 373.142578125 399.90234375 c 4
 342.380859375 399.90234375 287.017578125 381.34765625 238.490234375 345.21484375 c 5
 171.38671875 0 l 5
 48.828125 0 l 5
 115.8359375 344.7265625 l 6
 132.73046875 431.640625 131.291992188 444.3359375 128.495117188 490.234375 c 5
 246.33203125 513.671875 l 5
 248.9375 501.953125 254.255859375 476.5625 253.022460938 452.63671875 c 5
EndSplineSet
Fore
SplineSet
207 401 m 1xf4
 255 457 295 501 394 501 c 0
 455 501 500 477 500 417 c 0xf4
 500 409 499 399 497 389 c 1
 480 305 465 220 448 136 c 1
 447 132 447 128 447 125 c 0
 447 101 467 91 488 78 c 1
 463 45 438 13 413 -20 c 1
 374 -7 317 24 317 86 c 0xf8
 317 93 319 100 320 108 c 1
 335 186 350 263 365 341 c 1
 367 353 369 364 369 373 c 0
 369 390 364 400 350 400 c 0
 298 400 219 304 183 246 c 1
 167 164 151 82 135 0 c 1
 94 0 53 0 12 0 c 1
 34 115 57 230 79 345 c 1
 90 403 94 428 94 451 c 0
 94 463 93 474 92 490 c 1
 131 498 170 506 209 514 c 1
 209 512 210 505 210 497 c 0
 210 470 208 420 207 401 c 1xf4
EndSplineSet
EndChar
StartChar: o
Encoding: 111 111 14
Width: 517
VWidth: 2
Flags: HW
HStem: -3 99<183 288> 405 99<234 342>
VStem: 35 127<116 284> 356 126<207 393>
AnchorPoint: "above_accent" 319 541 basechar 0
LayerCount: 2
Back
SplineSet
328.619140625 120.60546875 m 5
 356.50390625 145.99609375 372.72265625 196.77734375 384.775390625 258.7890625 c 4
 385.345703125 261.71875 385.725585938 263.671875 386.294921875 266.6015625 c 4
 400.21875 343.26171875 395.18359375 405.2734375 332.68359375 405.2734375 c 4
 258.953125 405.2734375 223.692382812 336.9140625 203.951171875 235.3515625 c 4
 188.1953125 154.296875 207.662109375 96.19140625 266.744140625 96.19140625 c 5
 293.6953125 96.6796875 307.625 103.02734375 328.619140625 120.60546875 c 5
246.989257812 -2.9296875 m 5
 95.6220703125 -2.9296875 52.6201171875 89.84375 79.1953125 226.5625 c 4
 114.408203125 407.71484375 201.953125 503.90625 344.53125 503.90625 c 4
 440.72265625 503.90625 487.884765625 470.21484375 509.536132812 405.76171875 c 4
 522.055664062 367.1875 520.122070312 312.01171875 511.010742188 265.13671875 c 4
 483.959960938 125.9765625 412.028320312 -2.9296875 247.965820312 -2.9296875 c 6
 246.989257812 -2.9296875 l 5
EndSplineSet
Fore
SplineSet
292 121 m 1
 320 146 337 197 348 259 c 0
 348 262 350 264 350 267 c 0
 354 289 356 309 356 328 c 0
 356 374 341 405 296 405 c 0
 222 405 187 337 167 235 c 0
 164 217 162 200 162 185 c 0
 162 131 184 96 230 96 c 1
 257 96 271 103 292 121 c 1
210 -3 m 1
 86 -3 35 59 35 157 c 0
 35 178 37 202 42 227 c 0
 77 408 165 504 308 504 c 0
 404 504 452 470 473 406 c 0
 479 387 482 363 482 339 c 0
 482 314 480 289 475 265 c 0
 447 126 375 -3 211 -3 c 1
 210 -3 l 1
EndSplineSet
EndChar
StartChar: p
Encoding: 112 112 7
Width: 517
VWidth: 0
Flags: HW
HStem: -4 98<183 288> 396 99<278 410>
VStem: -23 122<-194 -58> 93 114<408 489> 357 126<219 395>
LayerCount: 2
Back
SplineSet
382.91796875 259.27734375 m 0xd0
 401.236328125 353.515625 391.427734375 395.99609375 348.458984375 395.99609375 c 0
 285.470703125 395.99609375 257.626953125 363.28125 227.301757812 320.3125 c 1
 195.533203125 151.85546875 l 1
 208.583007812 123.53515625 229.255859375 94.23828125 265.876953125 94.23828125 c 0
 322.029296875 94.23828125 357.576171875 128.90625 382.91796875 259.27734375 c 0xd0
116.0390625 360.83984375 m 1
 118.505859375 373.53515625 l 2
 126.383789062 414.0625 128.40234375 454.58984375 129.689453125 486.328125 c 1
 243.484375 499.0234375 l 1xb0
 245.6015625 487.3046875 245.412109375 468.75 243.6640625 449.70703125 c 1
 276.892578125 479.98046875 320.56640625 493.65234375 375.25390625 493.65234375 c 0
 509.53125 493.65234375 535.25390625 399.90234375 509.814453125 269.04296875 c 0
 477.92578125 104.98046875 421.115234375 -3.90625 244.357421875 -3.90625 c 0
 195.529296875 -3.90625 176.091796875 14.16015625 164.875 29.296875 c 1
 163.03125 9.765625 162.9375 -8.30078125 160.2265625 -29.78515625 c 1
 151.588867188 -74.21875 l 2
 142.66796875 -120.1171875 138.112304688 -161.1328125 135.076171875 -194.3359375 c 1
 13.318359375 -197.75390625 l 1
 15.8525390625 -162.109375 22.427734375 -115.72265625 31.064453125 -71.2890625 c 2
 116.0390625 360.83984375 l 1
EndSplineSet
Fore
SplineSet
346 259 m 0xc8
 353 297 357 327 357 349 c 0
 357 381 350 396 331 396 c 0
 268 396 200 295 174 236 c 1
 169 208 164 180 159 152 c 1
 172 124 192 94 229 94 c 0
 285 94 321 129 346 259 c 0xc8
80 361 m 1
 81 365 81 370 82 374 c 1
 90 415 92 454 93 486 c 1
 131 490 169 495 207 499 c 1
 207 498 208 496 208 494 c 0
 208 475 201 424 199 407 c 1
 222 448 285 495 367 495 c 0
 452 495 483 442 483 361 c 0
 483 333 479 302 473 269 c 0
 441 105 385 -4 208 -4 c 0xd8
 159 -4 139 14 128 29 c 1
 126 9 127 -9 124 -30 c 1
 121 -45 118 -59 115 -74 c 1
 106 -120 101 -161 98 -194 c 1
 57 -195 18 -197 -23 -198 c 1xe8
 -21 -162 -14 -115 -5 -71 c 1
 23 73 52 217 80 361 c 1
EndSplineSet
EndChar
StartChar: q
Encoding: 113 113 16
Width: 517
VWidth: 0
Flags: HW
HStem: -5 98<168 241> 396 98<219 326> 489 10G<403 425>
VStem: 38 124<95 299> 279 121<-172 41>
LayerCount: 2
Back
SplineSet
210.5546875 259.27734375 m 0xd0
 185.212890625 128.90625 207.283203125 94.23828125 263.435546875 94.23828125 c 0
 300.056640625 94.23828125 332.606445312 123.53515625 356.666015625 151.85546875 c 1
 389.899414062 320.3125 l 1
 376.279296875 363.28125 361.642578125 395.99609375 298.654296875 395.99609375 c 0
 255.685546875 395.99609375 228.873046875 353.515625 210.5546875 259.27734375 c 0xd0
517.407226562 360.83984375 m 1
 433.896484375 -71.2890625 l 2
 431.14453125 -85.44921875 l 0
 423.076171875 -126.953125 414.263671875 -174.8046875 418.265625 -191.89453125 c 1
 300.18359375 -206.54296875 l 1
 295.841796875 -181.15234375 303.80078125 -120.1171875 312.721679688 -74.21875 c 2
 321.359375 -29.78515625 l 1
 327 -8.30078125 333.44140625 9.765625 339.19140625 29.296875 c 1
 322.087890625 14.16015625 295.626953125 -3.90625 246.798828125 -3.90625 c 0
 70.041015625 -3.90625 55.5625 104.98046875 87.453125 269.04296875 c 0
 112.888671875 399.90234375 175.546875 493.65234375 309.82421875 493.65234375 c 0xd0
 364.51171875 493.65234375 402.869140625 479.98046875 424.328125 449.70703125 c 1
 429.982421875 468.75 436.51953125 487.3046875 443.19140625 499.0234375 c 1xb0
 552.05078125 486.328125 l 1
 541.000976562 454.58984375 527.749023438 414.0625 519.873046875 373.53515625 c 2
 517.407226562 360.83984375 l 1
EndSplineSet
Fore
SplineSet
174 259 m 0xd8
 165 215 162 182 162 157 c 0
 162 109 175 93 190 93 c 0
 241 93 305 171 339 252 c 1
 344 275 349 297 354 320 c 1
 340 363 325 396 262 396 c 0
 219 396 193 353 174 259 c 0xd8
481 361 m 1
 456 232 431 103 406 -26 c 1
 402 -47 400 -64 400 -78 c 0
 400 -115 411 -133 419 -152 c 0
 421 -156 424 -160 425 -162 c 1
 390 -182 356 -201 321 -221 c 1
 298 -187 279 -146 279 -87 c 0
 279 -67 281 -46 286 -22 c 1
 292 -1 300 42 306 62 c 1
 289 47 232 -5 174 -5 c 0
 74 -5 38 54 38 150 c 0
 38 185 43 225 51 269 c 0
 76 400 139 494 273 494 c 0xd8
 328 494 367 480 388 450 c 1
 394 469 400 487 407 499 c 1xb8
 443 495 480 490 516 486 c 1
 505 454 491 415 483 374 c 1
 482 370 482 365 481 361 c 1
EndSplineSet
EndChar
StartChar: r
Encoding: 114 114 17
Width: 517
VWidth: 1
Flags: HW
HStem: -9 10G<67 195> 395 104<368 458> 500 10G<172 199>
VStem: 411 122<337 429>
AnchorPoint: "cedilla_accent" 128 0 basechar 0
AnchorPoint: "above_accent" 330 541 basechar 0
LayerCount: 2
Back
SplineSet
279.26953125 421.875 m 5
 325.192382812 469.7265625 381.478515625 498.046875 460.091796875 498.046875 c 4
 541.635742188 498.046875 583.22265625 448.2421875 565.190429688 355.46875 c 4
 562.34375 340.8203125 l 5
 439.10546875 339.84375 l 5
 440.638671875 345.21484375 442.64453125 353.02734375 444.258789062 361.328125 c 4
 447.76953125 379.39453125 446.779296875 399.4140625 419.435546875 399.4140625 c 5
 392.091796875 399.4140625 346.099609375 363.76953125 281.666015625 273.4375 c 5
 226.806640625 -8.7890625 l 5
 103.759765625 -8.7890625 l 5
 172.287109375 343.75 l 6
 177.697265625 371.58203125 158.24609375 392.08984375 133.192382812 418.9453125 c 5
 223.111328125 509.765625 l 5
 248.24609375 485.83984375 272.444335938 472.16796875 279.26953125 421.875 c 5
EndSplineSet
Fore
SplineSet
251 366 m 1
 289 425 344 498 423 498 c 0
 492 498 533 463 533 396 c 0
 533 384 533 365 530 351 c 0
 529 346 528 341 527 336 c 1
 486 336 444 335 403 335 c 1
 404 341 411 360 411 375 c 0
 411 386 407 395 397 395 c 0
 370 395 262 254 218 135 c 1
 209 87 199 39 190 -9 c 1
 149 -9 108 -9 67 -9 c 1
 90 109 113 226 136 344 c 1
 136 347 137 350 137 353 c 0
 137 376 119 395 97 419 c 1
 127 449 157 480 187 510 c 1
 212 486 251 465 251 366 c 1
EndSplineSet
EndChar
StartChar: s
Encoding: 115 115 18
Width: 517
VWidth: 2
Flags: HW
HStem: -10 99<169 301> 405 98<234 436>
VStem: 37 125<97 161> 104 124<343 398> 323 125<111 201>
AnchorPoint: "cedilla_accent" 190 0 basechar 0
AnchorPoint: "above_accent" 327 541 basechar 0
LayerCount: 2
Back
SplineSet
188.337890625 268.06640625 m 4
 152.094726562 287.59765625 132.926757812 327.1484375 143.462890625 381.34765625 c 4
 161.116210938 472.16796875 259.774414062 502.44140625 345.223632812 502.44140625 c 4
 413.094726562 502.44140625 486.377929688 495.1171875 529.091796875 436.03515625 c 5
 427.1953125 356.4453125 l 5
 406.333984375 384.765625 374.581054688 404.78515625 327.706054688 404.78515625 c 4
 287.666992188 404.78515625 269.953125 394.04296875 266.251953125 375 c 4
 263.5 360.83984375 264.53125 351.07421875 276.494140625 342.28515625 c 5
 391.623046875 291.50390625 507.44140625 274.4140625 480.487304688 135.7421875 c 4
 465.111328125 56.640625 386.446289062 13.671875 331.54296875 0 c 5
 302.96484375 -6.34765625 273.00390625 -9.765625 245.171875 -9.765625 c 4
 120.171875 -9.765625 56.8134765625 56.15234375 77.2197265625 161.1328125 c 5
 200.754882812 161.1328125 l 5
 190.50390625 108.3984375 210.14453125 88.8671875 263.3671875 88.8671875 c 4
 292.17578125 88.8671875 349.25 98.6328125 357.602539062 141.6015625 c 4
 363.203125 170.41015625 356.080078125 186.5234375 335.287109375 202.63671875 c 5
 305.771484375 224.12109375 229.4765625 246.09375 188.337890625 268.06640625 c 4
EndSplineSet
Fore
SplineSet
152 268 m 0xe8
 123 284 104 313 104 353 c 0
 104 362 105 371 107 381 c 0
 125 472 224 502 309 502 c 0
 377 502 434 494 501 462 c 1
 482 431 462 401 443 370 c 1
 404 395 338 405 291 405 c 0
 251 405 233 394 229 375 c 0
 228 371 228 367 228 364 c 0xd8
 228 356 231 348 240 342 c 1
 344 296 448 277 448 173 c 0
 448 161 446 150 444 136 c 0
 429 57 350 14 295 0 c 1
 266 -6 236 -10 208 -10 c 0
 99 -10 37 41 37 124 c 0
 37 136 39 148 41 161 c 1
 82 161 123 161 164 161 c 1
 162 152 162 144 162 137 c 0
 162 102 183 89 227 89 c 0
 256 89 314 99 321 142 c 0
 322 148 323 154 323 159 c 0
 323 178 315 190 299 203 c 1
 270 224 193 246 152 268 c 0xe8
EndSplineSet
EndChar
StartChar: t
Encoding: 116 116 19
Width: 517
VWidth: 0
Flags: HW
HStem: -3 99<228 361> 393 100<254 463>
VStem: 86 124<112 231>
AnchorPoint: "cedilla_accent" 229 0 basechar 0
AnchorPoint: "above_accent" 327 623 basechar 0
LayerCount: 2
Back
SplineSet
251.342773438 212.890625 m 1
 247.546875 193.359375 l 2
 234.828125 127.9296875 249.315429688 104.4921875 289.001953125 97.65625 c 0
 297.6015625 96.6796875 314.013671875 95.703125 320.361328125 95.703125 c 0
 352.099609375 95.703125 368.076171875 102.5390625 381.611328125 109.375 c 0
 409.66015625 123.046875 421.485351562 156.25 426.80078125 166.015625 c 1
 518.872070312 117.1875 l 1
 511.333007812 103.515625 474.334960938 48.828125 413.573242188 17.578125 c 0
 382.025390625 0.9765625 343.668945312 -2.9296875 302.165039062 -2.9296875 c 0
 212.321289062 -2.9296875 142.143554688 7.8125 121.522460938 80.078125 c 0
 111.266601562 115.234375 116.526367188 152.34375 124.689453125 194.3359375 c 2
 128.67578125 214.84375 l 1
 138.193359375 258.7890625 149.706054688 312.98828125 167.712890625 393.06640625 c 1
 160.876953125 393.06640625 l 2
 147.205078125 393.06640625 133.153320312 391.11328125 119.69921875 387.20703125 c 1
 130.759765625 486.81640625 l 1
 143.23828125 490.72265625 165.590820312 492.67578125 181.704101562 492.67578125 c 2
 189.028320312 492.67578125 l 1
 195.671875 526.85546875 205.74609375 576.171875 212.390625 610.3515625 c 1
 334.37890625 607.421875 l 1
 328.115234375 575.1953125 318.419921875 527.83203125 311.478515625 494.62890625 c 1
 364.701171875 494.62890625 516.665039062 492.67578125 520.571289062 492.67578125 c 1
 499.74609375 393.06640625 l 1
 432.849609375 393.06640625 355.890625 394.04296875 290.94921875 394.04296875 c 1
 272.264648438 312.98828125 262.787109375 261.71875 251.342773438 212.890625 c 1
EndSplineSet
Fore
SplineSet
216 607 m 1025
477 71 m 0
 445 54 367 -3 266 -3 c 0
 133 -3 86 72 86 160 c 0
 86 179 88 198 92 217 c 1
 93 224 96 230 97 237 c 1
 106 281 113 313 131 393 c 1
 129 393 126 393 124 393 c 1
 110 393 97 391 83 387 c 1
 87 420 90 454 94 487 c 1
 107 491 129 493 145 493 c 1
 147 493 150 493 152 493 c 1
 159 527 169 576 176 610 c 1
 217 609 257 608 298 607 c 1
 292 575 282 528 275 495 c 1
 328 495 480 493 484 493 c 1
 477 460 470 426 463 393 c 1
 396 393 319 394 254 394 c 1
 235 313 230 284 219 235 c 1
 218 229 216 222 215 216 c 1
 212 199 210 183 210 170 c 0
 210 118 236 96 284 96 c 0
 361 96 400 147 414 164 c 1
 415 164 477 71 477 71 c 0
EndSplineSet
EndChar
StartChar: u
Encoding: 117 117 20
Width: 517
VWidth: 2
Flags: HW
HStem: -8 10G<384 412> 1 104<154 222> 488 6G<191 212 380 508>
VStem: 22 130<105 215> 86 126<343 484>
AnchorPoint: "above_accent" 304 541 basechar 0
LayerCount: 2
Back
SplineSet
434.421875 -8.30078125 m 5xa0
 405.923828125 5.859375 389.782226562 28.3203125 384.2734375 52.734375 c 5
 340.34375 15.13671875 281.724609375 2.44140625 208.197265625 0.9765625 c 5
 203.802734375 0.9765625 l 6
 129.583984375 0.9765625 43.6044921875 25.87890625 60.30859375 111.81640625 c 4
 68.091796875 151.85546875 77.787109375 199.21875 86.8984375 246.09375 c 4
 107.399414062 351.5625 126.340820312 456.54296875 122.47265625 484.375 c 5
 249.154296875 498.046875 l 5
 251.1640625 453.125 223.177734375 324.21875 189.416992188 145.5078125 c 5
 188.916992188 112.79296875 195.821289062 100.5859375 237.325195312 100.5859375 c 5x60
 312.208984375 104.00390625 353.302734375 142.08984375 365.357421875 204.1015625 c 5
 421.830078125 494.62890625 l 5
 544.389648438 494.62890625 l 5
 477.28515625 149.4140625 l 5
 473.326171875 124.0234375 498.706054688 91.30859375 521.616210938 81.0546875 c 5
 434.421875 -8.30078125 l 5xa0
EndSplineSet
Fore
SplineSet
398 -8 m 1xb0
 370 6 348 25 332 114 c 1
 294 60 245 2 171 1 c 1
 170 1 168 1 167 1 c 1
 101 1 22 9 22 91 c 0x70
 22 100 24 112 26 123 c 0
 34 163 41 199 50 246 c 0
 69 342 86 438 86 475 c 0
 86 478 86 482 86 484 c 1
 128 488 170 494 212 498 c 1
 212 493 l 0x68
 212 444 186 319 153 146 c 1
 153 144 l 0
 153 112 156 105 178 105 c 1x70
 239 105 343 278 355 340 c 1
 365 391 375 444 385 495 c 1
 426 495 467 495 508 495 c 1
 486 380 462 264 440 149 c 1
 440 147 440 146 440 144 c 0
 440 120 464 91 485 81 c 1
 456 51 427 22 398 -8 c 1xb0
EndSplineSet
EndChar
StartChar: v
Encoding: 118 118 21
Width: 517
VWidth: 2
Flags: HW
HStem: -4 10G<132 180> 485 10G<394 518>
VStem: 395 123<387 495>
LayerCount: 2
Back
SplineSet
207.59375 525.390625 m 1
 263.7421875 387.20703125 277.70703125 248.046875 286.517578125 122.55859375 c 1
 360.637695312 192.3828125 391.297851562 297.36328125 413.874023438 398.4375 c 0
 416.166015625 407.71484375 418.5390625 419.921875 420.911132812 432.12890625 c 0
 425.27734375 454.58984375 429.345703125 478.02734375 431.595703125 494.62890625 c 1
 554.155273438 494.62890625 l 1
 554.1015625 486.81640625 544.458007812 429.6875 538.955078125 401.3671875 c 0
 508.8671875 246.58203125 430.27734375 103.515625 327.552734375 32.2265625 c 0
 287.474609375 4.39453125 267.794921875 -3.90625 166.232421875 -3.90625 c 1
 190.720703125 122.0703125 135.89453125 372.55859375 91.740234375 461.9140625 c 1
 207.59375 525.390625 l 1
EndSplineSet
Fore
SplineSet
171 525 m 1
 227 387 241 248 250 123 c 1
 324 193 353 297 377 398 c 0
 379 407 382 420 384 432 c 0
 388 454 393 478 395 495 c 1
 436 495 477 495 518 495 c 1
 518 487 507 429 502 401 c 0
 472 246 394 103 291 32 c 0
 251 4 231 -4 129 -4 c 1
 133 17 135 43 135 70 c 0
 135 203 92 388 55 462 c 1
 94 483 132 504 171 525 c 1
EndSplineSet
EndChar
StartChar: w
Encoding: 119 119 22
Width: 517
VWidth: 1
Flags: HW
HStem: -12 9G<90 150 302 362> 485 10G<425 546>
VStem: 73 125<252 484> 431 116<315 495>
AnchorPoint: "above_accent" 340 541 basechar 0
LayerCount: 2
Back
SplineSet
101.6953125 480.46875 m 1
 230.110351562 515.625 l 1
 244.548828125 414.0625 225.728515625 322.265625 209.890625 238.28125 c 0
 208.84765625 232.91015625 207.8984375 228.02734375 206.94921875 223.14453125 c 0
 198.02734375 177.24609375 178.147460938 117.67578125 169.73828125 102.05078125 c 1
 228.712890625 104.00390625 255.4296875 145.99609375 270.995117188 226.07421875 c 0
 306.302734375 407.71484375 l 1
 385.010742188 408.203125 l 1
 385.010742188 408.203125 380.048828125 370.1171875 364.388671875 289.55078125 c 0
 355.27734375 242.67578125 342.341796875 181.15234375 324.999023438 104.4921875 c 1
 325.975585938 104.4921875 326.463867188 104.4921875 327.440429688 104.4921875 c 0
 394.334960938 104.4921875 415.6640625 201.66015625 434.646484375 299.31640625 c 0
 436.165039062 307.12890625 437.68359375 314.94140625 439.201171875 322.75390625 c 0
 444.517578125 350.09765625 449.154296875 376.46484375 453.708984375 399.90234375 c 0
 460.54296875 435.05859375 465.775390625 494.62890625 465.775390625 494.62890625 c 1
 585.893554688 494.62890625 l 1
 583.833007812 479.00390625 581.840820312 468.75 577.661132812 447.265625 c 0
 574.814453125 432.6171875 571.967773438 417.96875 569.404296875 404.78515625 c 0
 554.8828125 330.078125 534.653320312 228.515625 496.694335938 136.23046875 c 0
 463.551757812 56.15234375 390.13671875 0 283.203125 0 c 2
 266.6015625 0 l 1
 266.6015625 0 264.076171875 32.2265625 269.404296875 74.70703125 c 1
 245.96875 39.55078125 190.267578125 -5.859375 94.076171875 -5.859375 c 2
 91.146484375 -5.859375 l 1
 68.779296875 -5.37109375 66.3251953125 -2.9296875 60.05859375 0 c 1
 62.958984375 40.0390625 110.97265625 254.39453125 110.013671875 407.71484375 c 0
 109.767578125 434.08203125 109.033203125 460.44921875 101.6953125 480.46875 c 1
EndSplineSet
Fore
SplineSet
65 480 m 1
 108 492 150 504 193 516 c 1
 197 490 199 464 199 440 c 0
 199 368 190 297 173 238 c 0
 160 192 131 125 121 107 c 1
 180 149 224 214 235 246 c 0
 251 291 259 342 262 408 c 1
 288 408 332 408 358 408 c 1
 358 408 346 328 330 247 c 0
 321 201 311 156 304 101 c 1
 334 115 378 214 403 295 c 0
 426 371 431 411 431 441 c 0
 431 462 427 480 425 495 c 1
 465 495 505 495 545 495 c 1
 546 483 547 471 547 459 c 0
 547 398 537 340 512 264 c 0
 478 163 406 59 317 -13 c 1
 286 -5 256 2 225 10 c 1
 225 10 226 69 231 111 c 1
 207 75 194 61 106 -12 c 1
 74 -1 43 9 11 20 c 1
 50 103 73 233 73 344 c 0
 73 420 69 464 65 480 c 1
EndSplineSet
EndChar
StartChar: x
Encoding: 120 120 23
Width: 517
VWidth: 1
Flags: HW
HStem: -3 111<405 445> 495 6G<160 194 407 535>
LayerCount: 2
Back
SplineSet
535.68359375 409.66796875 m 0
 507.802734375 366.69921875 421.232421875 288.0859375 369.125 246.09375 c 1
 398.411132812 195.80078125 445.196289062 125 454.704101562 118.65234375 c 0
 456.373046875 117.1875 458.85546875 109.86328125 475.45703125 109.86328125 c 0
 484.24609375 109.86328125 493.3203125 111.328125 501.416015625 112.79296875 c 1
 478.705078125 0.9765625 l 1
 469.631835938 -0.48828125 457.62890625 -1.953125 448.83984375 -1.953125 c 0
 428.33203125 -1.953125 400.959960938 2.9296875 384.0859375 16.6015625 c 1
 353.390625 39.55078125 314.162109375 104.00390625 283.369140625 161.62109375 c 1
 85.857421875 -20.5078125 l 1
 18.1298828125 58.10546875 l 1
 233.259765625 250.48828125 l 1
 111.19140625 441.40625 l 1
 213.44140625 510.25390625 l 1
 319.735351562 328.61328125 l 1
 355.486328125 361.81640625 382.33984375 379.39453125 428.194335938 439.453125 c 0
 441.282226562 456.54296875 452.048828125 486.81640625 455.616210938 495.1171875 c 1
 571.733398438 494.62890625 l 1
 564.150390625 470.703125 552.529296875 436.03515625 535.68359375 409.66796875 c 0
EndSplineSet
Fore
SplineSet
499 410 m 0
 472 367 385 288 333 246 c 1
 369 185 412 108 430 108 c 0
 439 108 437 110 445 111 c 1
 446 74 448 37 449 0 c 1
 440 -1 428 -3 419 -3 c 0
 398 -3 369 7 352 21 c 1
 321 44 282 108 251 166 c 1
 184 104 116 41 49 -21 c 1
 25 7 2 37 -22 65 c 1
 51 131 124 196 197 262 c 1
 157 324 119 384 79 446 c 1
 112 467 144 489 177 510 c 1
 212 452 248 394 283 336 c 1
 319 369 335 379 381 439 c 0
 394 456 406 487 409 495 c 1
 451 495 493 495 535 495 c 1
 527 471 516 436 499 410 c 0
EndSplineSet
EndChar
StartChar: y
Encoding: 121 121 24
Width: 517
VWidth: 6
Flags: HW
HStem: -184 99<62 159> -25 10G<11 28> 367 128<75 141>
VStem: 409 125<402 495>
AnchorPoint: "above_accent" 323 541 basechar 0
LayerCount: 2
Back
SplineSet
155.360351562 -84.9609375 m 0
 198.817382812 -84.9609375 246.2578125 -11.71875 264.944335938 34.1796875 c 1
 207.962890625 268.5546875 177.236328125 366.69921875 120.595703125 366.69921875 c 3
 110.830078125 366.69921875 103.994140625 366.69921875 99.015625 366.2109375 c 1
 123.30078125 493.65234375 l 1
 123.30078125 493.65234375 143.998046875 494.62890625 160.599609375 494.62890625 c 3
 254.349609375 494.62890625 301.856445312 364.74609375 349.259765625 166.50390625 c 1
 405.98828125 272.4609375 420.3046875 383.7890625 445.755859375 494.62890625 c 1
 570.756835938 494.62890625 l 1
 565.05859375 465.33203125 559.174804688 435.05859375 553.26171875 409.66796875 c 0
 515.283203125 251.953125 416.73046875 63.96484375 298.915039062 -84.9609375 c 0
 232.202148438 -169.43359375 188.43359375 -183.59375 116.65625 -183.59375 c 1
 12.1650390625 -183.59375 6.041015625 -84.47265625 20.5078125 0 c 1
 142.578125 0 l 1
 136.463867188 -41.50390625 131.922851562 -84.9609375 155.360351562 -84.9609375 c 0
EndSplineSet
Fore
SplineSet
26 -16 m 1
 29 -19 65 -85 101 -85 c 0
 143 -85 171 -66 220 18 c 1
 183 332 151 367 94 367 c 3
 84 367 77 366 72 366 c 1
 73 409 74 452 75 495 c 1
 124 495 l 3
 218 495 273 386 297 115 c 1
 369 293 388 363 409 495 c 1
 451 495 492 495 534 495 c 1
 534 475 525 435 517 410 c 0
 465 239 419 137 309 -26 c 0
 221 -156 170 -184 99 -184 c 1
 11 -184 -23 -142 -67 -98 c 1
 -36 -71 -5 -43 26 -16 c 1
EndSplineSet
EndChar
StartChar: z
Encoding: 122 122 25
Width: 517
VWidth: 2
Flags: HW
HStem: -7 102<231 378> 27 91<192 268> 392 104<118 343> 497 10G<482 503>
AnchorPoint: "above_accent" 328 541 basechar 0
LayerCount: 2
Back
SplineSet
122.763671875 397.94921875 m 1
 157.072265625 496.58203125 l 1
 179.05859375 494.140625 233.1640625 493.65234375 293.7109375 493.65234375 c 0
 384.53125 493.65234375 490.283203125 495.1171875 524.653320312 496.09375 c 1
 544.21875 403.3203125 l 1
 524.970703125 387.20703125 258.125976562 187.5 214.986328125 96.19140625 c 1
 410.869140625 99.12109375 l 2
 411.845703125 99.12109375 412.822265625 99.12109375 413.798828125 99.12109375 c 0
 440.166015625 99.12109375 462.857421875 92.7734375 489.86328125 83.49609375 c 1
 450.060546875 -10.7421875 l 1
 429.322265625 -4.39453125 422.36328125 0 390.625 0 c 2
 34.66796875 0 l 1
 36.56640625 9.765625 l 2
 43.4951171875 45.41015625 50.681640625 69.82421875 63.3486328125 92.28515625 c 0
 122.234375 196.77734375 256.24609375 313.4765625 369.46875 393.5546875 c 1
 336.169921875 393.06640625 319.8671875 392.08984375 270.55078125 392.08984375 c 0
 209.515625 392.08984375 149.7421875 393.5546875 122.763671875 397.94921875 c 1
EndSplineSet
Fore
SplineSet
86 398 m 1x70
 98 431 109 464 121 497 c 1
 143 495 368 494 429 494 c 0
 458 494 471 495 494 507 c 1
 512 481 531 456 549 430 c 1
 530 414 274 190 192 118 c 1x70
 238 118 291 95 344 95 c 1
 378 95 386 135 386 143 c 9
 424 136 462 130 500 123 c 1
 489 71 482 -7 355 -7 c 1xb0
 277 -7 216 27 156 27 c 0
 129 27 103 21 76 2 c 1
 66 -5 57 -14 47 -21 c 1
 40 -16 -37 39 -37 39 c 0
 44 133 241 303 343 394 c 1
 310 394 283 392 234 392 c 0
 173 392 113 394 86 398 c 1x70
EndSplineSet
EndChar
StartChar: braceleft
Encoding: 123 123 160
Width: 517
VWidth: 32
Flags: HW
HStem: -138 106<315 373> 618 106<431 521>
VStem: 178 130<-29 47> 245 127<105 197> 293 122<465 601> 304 120<405 559>
LayerCount: 2
Fore
SplineSet
271 293 m 1xc8
 314 282 373 247 373 186 c 0xd0
 373 178 371 169 370 161 c 0
 361 112 329 64 312 26 c 0
 310 22 309 18 309 15 c 0
 309 12 308 9 308 7 c 0
 308 -19 338 -29 394 -31 c 1
 386 -67 379 -102 371 -138 c 1
 307 -135 228 -134 193 -81 c 0
 182 -64 178 -47 178 -29 c 0xe0
 178 -22 179 -14 180 -7 c 0
 187 29 208 65 226 97 c 1
 236 115 242 129 244 142 c 0
 245 147 245 152 245 156 c 0xd0
 245 208 181 218 128 234 c 1
 131 253 136 270 139 289 c 1
 143 310 147 332 151 353 c 1
 215 370 290 380 302 445 c 0
 303 451 304 458 304 465 c 0xc4
 304 473 303 481 302 490 c 1
 299 512 293 537 293 562 c 0
 293 572 294 584 296 594 c 0
 301 619 314 645 338 668 c 0
 394 721 473 722 538 725 c 1
 532 689 526 654 520 618 c 1
 458 616 421 604 416 571 c 0
 416 567 415 563 415 559 c 0xc8
 415 529 424 495 424 459 c 0xc4
 424 448 423 437 421 426 c 0
 420 419 418 411 415 403 c 0
 392 341 319 304 271 293 c 1xc8
EndSplineSet
EndChar
StartChar: bar
Encoding: 124 124 161
Width: 517
VWidth: 32
Flags: HW
VStem: 117 290
LayerCount: 2
Fore
SplineSet
152 74 m 0
 187 252 239 542 266 683 c 1
 269 698 272 714 275 729 c 1
 319 729 363 729 407 729 c 1
 403 706 398 681 394 658 c 1
 368 523 325 272 293 109 c 1
 288 85 283 60 278 36 c 1
 267 -20 262 -48 250 -97 c 1
 206 -97 161 -96 117 -96 c 1
 125 -66 130 -45 135 -18 c 0
 139 5 144 32 152 74 c 0
EndSplineSet
EndChar
StartChar: braceright
Encoding: 125 125 162
Width: 517
VWidth: 32
Flags: HW
HStem: -138 106<28 117> 618 106<176 234>
VStem: 124 120<4 180> 133 122<-14 120> 177 127<389 480> 241 129<539 618>
LayerCount: 2
Fore
SplineSet
278 293 m 1xe0
 235 304 177 339 177 400 c 0
 177 403 l 0xc8
 177 411 178 419 179 426 c 0
 189 476 222 522 237 561 c 0
 238 565 240 568 240 571 c 0
 240 574 241 578 241 580 c 0
 241 607 211 616 155 618 c 1
 162 654 170 689 177 725 c 1
 242 722 321 721 356 668 c 0
 367 652 371 635 371 618 c 0xc4
 371 610 369 602 368 594 c 0
 362 558 341 522 323 490 c 1
 313 472 307 458 305 445 c 0
 304 440 304 434 304 430 c 0xc8
 304 378 368 369 421 353 c 1
 417 332 412 310 408 289 c 1
 404 270 401 253 397 234 c 1
 333 217 259 207 246 142 c 0
 245 135 244 128 244 120 c 0xe0
 244 113 245 105 246 97 c 1
 249 75 254 49 254 24 c 0
 254 14 253 3 251 -7 c 0
 246 -32 234 -58 210 -81 c 0
 154 -134 75 -135 10 -138 c 1
 16 -102 23 -67 29 -31 c 1
 91 -28 127 -17 132 16 c 0
 132 19 133 22 133 26 c 0
 133 30 l 0xd0
 133 59 124 92 124 128 c 0
 124 139 125 150 127 161 c 0
 128 168 130 177 133 184 c 0
 157 246 230 282 278 293 c 1xe0
EndSplineSet
EndChar
StartChar: tilde
Encoding: 126 126 120
Width: 517
VWidth: -5
Flags: HW
HStem: 183 103<335 409> 291 103<137 214>
LayerCount: 2
Fore
SplineSet
202 394 m 0
 314 394 322 286 366 286 c 0
 408 286 427 330 436 363 c 1
 468 354 501 345 533 336 c 1
 523 285 476 183 341 183 c 1
 232 183 234 291 179 291 c 0
 152 291 120 259 100 215 c 1
 74 233 47 251 21 269 c 1
 50 332 103 394 202 394 c 0
EndSplineSet
EndChar
StartChar: cent
Encoding: 162 162 155
Width: 517
VWidth: 2
Flags: HW
HStem: -4 137<189 261> 362 142<242 347>
VStem: 67 106<149 301>
LayerCount: 2
Fore
SplineSet
178 256 m 0
 175 238 173 224 173 211 c 0
 173 134 225 133 241 133 c 1
 242 133 245 133 246 133 c 1
 287 133 313 157 338 188 c 1
 365 171 393 155 420 138 c 1
 387 90 340 61 273 54 c 1
 269 34 265 16 261 -4 c 1
 223 -4 185 -4 147 -4 c 1
 151 17 156 39 160 60 c 1
 142 64 123 71 109 83 c 0
 78 109 67 145 67 188 c 0
 67 209 69 232 74 256 c 0
 94 357 149 413 232 434 c 1
 236 457 242 481 246 504 c 1
 284 504 322 504 360 504 c 1
 356 483 352 461 348 440 c 1
 372 437 394 430 409 419 c 0
 430 404 445 382 450 362 c 1
 418 349 385 336 353 323 c 1
 352 338 344 362 287 362 c 0
 227 362 189 311 178 256 c 0
EndSplineSet
EndChar
StartChar: sterling
Encoding: 163 163 154
Width: 517
VWidth: 0
Flags: HW
HStem: -8 100<280 369> -6 83<48 132> 325 98<100 178 296 447> 561 99<312 396>
VStem: 9 86<77 133> 179 116<187 323 423 544> 369 110<95 130>
LayerCount: 2
Fore
SplineSet
133 94 m 1x7e
 120 109 114 122 109 133 c 1
 106 131 97 116 96 106 c 0
 96 105 96 105 96 104 c 0
 95 83 98 77 102 77 c 0
 113 77 123 84 133 94 c 1x7e
447 327 m 1
 410 323 370 323 322 323 c 1
 313 323 303 323 294 323 c 1
 294 278 293 242 283 188 c 0
 278 163 271 136 265 124 c 1
 294 103 311 92 334 92 c 0
 347 92 367 96 369 109 c 0
 369 111 373 128 373 130 c 1
 410 130 447 130 484 130 c 1
 483 121 480 113 479 104 c 1
 464 38 406 -8 337 -8 c 0xbe
 279 -8 253 5 207 39 c 1
 168 -3 112 -6 70 -6 c 0
 25 -6 9 20 9 58 c 0
 9 69 11 81 13 93 c 0
 26 159 75 223 122 223 c 0
 151 223 155 209 165 187 c 1
 168 197 168 198 170 209 c 0
 178 252 179 271 179 303 c 0
 179 324 l 1
 154 325 112 325 90 325 c 1
 87 325 85 325 82 325 c 1
 88 358 95 390 101 423 c 1
 127 423 152 423 178 423 c 1
 178 458 178 477 184 509 c 0
 204 609 282 660 374 660 c 0
 454 660 505 613 508 551 c 1
 472 542 435 534 399 525 c 1
 397 555 375 561 354 561 c 0
 352 561 l 0
 326 561 307 545 301 513 c 0
 296 487 297 452 296 420 c 1
 312 420 326 422 342 422 c 1
 370 422 l 0
 406 422 438 422 466 425 c 1
 460 392 453 360 447 327 c 1
EndSplineSet
EndChar
StartChar: currency
Encoding: 164 164 153
Width: 517
VWidth: 2
Flags: HW
HStem: -10 6G<46 74 346 376> 62 73<194 289> 364 73<232 337> 489 10G<142 170>
VStem: 71 109<159 292> 346 109<199 336>
LayerCount: 2
Fore
SplineSet
295 153 m 1
 318 172 331 211 341 256 c 0
 341 258 342 259 342 261 c 0
 345 276 346 289 346 302 c 0
 346 338 333 364 292 364 c 0
 228 364 199 313 184 238 c 0
 182 226 181 216 181 206 c 0
 181 164 200 135 241 135 c 0
 242 135 l 0
 265 135 277 140 295 153 c 1
110 331 m 1
 90 356 69 381 49 406 c 1
 86 437 123 468 160 499 c 1
 180 475 200 449 220 425 c 1
 243 433 271 437 300 437 c 0
 335 437 362 432 384 424 c 1
 411 447 439 470 466 493 c 1
 491 462 516 430 541 399 c 1
 512 375 483 351 454 327 c 1
 454 320 455 312 455 305 c 0
 455 290 454 275 451 260 c 0
 444 221 430 185 409 153 c 1
 429 129 448 103 468 79 c 1
 431 48 394 17 357 -14 c 1
 335 13 312 42 290 69 c 1
 271 65 252 62 229 62 c 1
 228 62 l 1
 200 62 175 65 154 71 c 1
 122 44 90 17 58 -10 c 1
 33 21 8 52 -17 83 c 1
 13 108 43 134 73 159 c 1
 72 168 71 177 71 187 c 0
 71 201 73 216 76 232 c 0
 83 270 95 303 110 331 c 1
EndSplineSet
EndChar
StartChar: yen
Encoding: 165 165 150
Width: 517
VWidth: 0
Flags: HW
HStem: -3 10G<143 267> 158 106<56 175 320 450> 312 106<80 154 424 479> 656 10G<187 213 453 483>
LayerCount: 2
Fore
SplineSet
143 -3 m 1
 147 20 152 44 156 67 c 1
 160 86 167 121 175 158 c 1
 130 158 l 0
 101 158 70 157 36 155 c 1
 43 191 49 228 56 264 c 1
 110 267 156 268 199 268 c 1
 201 280 204 290 205 299 c 1
 205 300 203 303 202 305 c 1
 163 306 119 309 64 312 c 1
 67 327 72 351 76 374 c 0
 79 391 83 407 85 418 c 1
 110 417 133 416 154 415 c 1
 125 486 95 566 86 597 c 1
 126 620 167 643 207 666 c 1
 219 627 265 484 294 416 c 1
 356 485 440 629 467 672 c 1
 500 650 532 627 565 605 c 1
 546 578 483 493 424 417 c 1
 446 417 471 417 499 417 c 1
 492 381 486 346 479 310 c 1
 424 310 382 308 337 307 c 1
 333 302 329 297 326 294 c 1
 325 285 321 276 320 267 c 1
 370 266 416 264 470 264 c 1
 463 227 456 192 449 155 c 1
 395 155 346 157 296 157 c 1
 287 114 280 76 277 62 c 1
 273 40 269 19 265 -3 c 1
 224 -3 184 -3 143 -3 c 1
EndSplineSet
EndChar
StartChar: brokenbar
Encoding: 166 166 164
Width: 517
VWidth: 32
Flags: HW
VStem: 117 290
LayerCount: 2
Fore
SplineSet
209 380 m 1
 230 497 252 610 266 683 c 1
 269 698 272 714 275 729 c 1
 319 729 363 729 407 729 c 1
 403 706 398 681 394 658 c 1
 380 587 361 484 342 380 c 1
 298 380 253 380 209 380 c 1
322 263 m 1
 312 208 302 155 293 109 c 1
 288 85 283 60 278 36 c 1
 267 -20 262 -48 250 -97 c 1
 206 -97 161 -96 117 -96 c 1
 125 -66 130 -45 135 -18 c 0
 139 5 144 32 152 74 c 0
 163 129 175 195 188 263 c 1
 232 263 278 263 322 263 c 1
EndSplineSet
EndChar
StartChar: section
Encoding: 167 167 159
Width: 517
VWidth: 1
Flags: HW
HStem: -139 98<149 237> 513 10G<367 475> 570 98<274 363>
VStem: 34 109<-34 16> 42 122<278 348> 128 123<440 547> 260 122<-19 88> 347 123<179 251> 368 109<513 563>
LayerCount: 2
Fore
SplineSet
315 173 m 1xe9
 340 187 344 193 347 209 c 1
 347 212 l 0
 347 221 344 232 335 242 c 0
 288 295 231 332 197 356 c 1
 172 342 168 335 165 319 c 1
 165 316 l 0
 165 307 167 297 176 287 c 0
 222 235 264 209 311 176 c 1
 312 175 314 174 315 173 c 1xe9
137 431 m 1
 137 431 128 441 128 471 c 0
 128 482 130 496 133 512 c 0
 152 614 259 665 334 668 c 0
 343 668 l 0
 428 668 477 618 477 545 c 0
 477 535 476 524 474 513 c 1
 438 513 403 513 367 513 c 1
 368 518 368 523 368 527 c 0xe480
 368 557 346 570 318 570 c 1
 302 570 267 561 255 515 c 0
 255 514 254 511 254 509 c 0
 253 501 251 492 251 483 c 0
 251 467 255 452 271 440 c 0
 330 396 387 354 430 306 c 0
 458 275 469 256 469 230 c 0xe5
 469 221 467 211 465 199 c 0
 454 142 422 116 379 88 c 1
 379 88 382 74 382 53 c 0
 382 43 381 30 379 17 c 0
 359 -85 252 -136 177 -139 c 0
 168 -139 l 0
 82 -139 34 -89 34 -16 c 0
 34 -6 35 5 37 16 c 1
 73 16 108 16 144 16 c 1
 143 11 143 5 143 1 c 0
 143 -29 164 -42 192 -42 c 1
 208 -42 244 -32 256 14 c 0
 256 15 257 18 257 20 c 0
 258 27 260 36 260 45 c 0xf2
 260 61 256 77 240 89 c 0
 181 133 125 175 82 223 c 0
 54 254 42 272 42 299 c 0
 42 308 44 318 46 330 c 0
 60 399 137 431 137 431 c 1
EndSplineSet
EndChar
StartChar: copyright
Encoding: 169 169 165
Width: 517
VWidth: 2
Flags: HW
HStem: 19 86<175 332> 146 81<254 312> 351 80<271 355> 474 85<237 397>
VStem: 22 86<173 343> 155 97<227 333> 458 85<239 411>
LayerCount: 2
Fore
SplineSet
112 290 m 0
 110 277 108 264 108 252 c 0
 108 168 166 105 249 105 c 0
 345 105 435 187 455 290 c 0
 457 304 458 317 458 330 c 0
 458 413 404 474 321 474 c 0
 225 474 132 393 112 290 c 0
27 289 m 0
 59 452 172 560 335 560 c 0
 459 560 544 467 544 344 c 0
 544 326 542 308 539 289 c 0
 508 127 398 19 230 19 c 0
 106 19 22 111 22 234 c 0
 22 252 24 270 27 289 c 0
301 351 m 0
 279 351 261 322 254 285 c 0
 253 279 252 271 252 265 c 0
 252 245 258 226 276 226 c 1
 292 226 303 231 315 254 c 1
 392 213 l 1
 347 153 290 146 259 146 c 0
 208 146 155 174 155 247 c 0
 155 258 157 270 159 283 c 0
 176 371 239 431 317 431 c 0
 352 431 403 412 415 367 c 1
 326 324 l 1
 322 343 319 351 301 351 c 0
EndSplineSet
EndChar
StartChar: ordfeminine
Encoding: 170 170 193
Width: 517
VWidth: 2
Flags: HW
HStem: 248 82<97 450> 368 93<193 314> 652 104<276 384>
VStem: 119 107<465 598>
LayerCount: 2
Back
SplineSet
224.713867188 485.3515625 m 4
 220.727539062 464.84375 237.411132812 450.1953125 256.942382812 450.1953125 c 4
 302.840820312 450.1953125 344.086914062 461.42578125 374.208007812 505.859375 c 5
 361.592773438 526.3671875 332.932617188 534.66796875 295.823242188 534.66796875 c 4
 252.854492188 534.66796875 230.8828125 517.08984375 224.713867188 485.3515625 c 4
174.31640625 714.309570312 m 5
 227.823242188 744.545898438 288.801757812 750.48828125 345.098632812 750.48828125 c 5
 452.032226562 750.48828125 502.823242188 690.424804688 483.609375 586.376953125 c 4
 470.8046875 520.5078125 l 4
 466.8515625 500.1640625 463.551757812 473.14453125 470.66015625 459.47265625 c 4
 475.247070312 450.650390625 482.94921875 444.82421875 496.26953125 437.98828125 c 5
 432.62109375 364.2578125 l 5
 412.030273438 378.90625 393.828125 385.7421875 384.155273438 421.38671875 c 5
 343.264648438 381.8359375 295.196289062 368.1640625 221.954101562 368.1640625 c 4
 152.618164062 368.1640625 106.744140625 416.015625 119.462890625 481.4453125 c 4
 141.0078125 592.28515625 209.758789062 609.375 299.602539062 609.375 c 4
 345.500976562 609.375 372.331054688 596.6796875 388.216796875 577.9296875 c 5
 390.578125 625.244140625 377.331054688 662.59765625 328.991210938 662.59765625 c 4
 275.768554688 662.59765625 246.024414062 655.2734375 209.2421875 631.8359375 c 5
 174.31640625 714.309570312 l 5
EndSplineSet
Fore
SplineSet
235 565 m 0
 228 532 226 519 226 506 c 0
 226 481 241 461 261 461 c 0
 287 461 315 474 371 538 c 1
 390 625 l 1
 366 647 351 652 328 652 c 0
 300 652 248 625 235 565 c 0
470 494 m 2
 469 488 468 482 468 476 c 0
 468 460 478 445 496 438 c 1
 432 364 l 1
 399 375 379 395 371 434 c 1
 328 391 285 368 222 368 c 0
 164 368 119 405 119 488 c 0
 119 512 123 542 130 577 c 0
 153 698 247 756 335 756 c 1
 366 756 393 747 417 725 c 1
 420 735 422 743 425 753 c 1
 528 749 l 0
 470 494 l 2
97 330 m 1
 466 330 l 1
 450 248 l 1
 81 248 l 1
 97 330 l 1
EndSplineSet
EndChar
StartChar: guillemotleft
Encoding: 171 171 157
Width: 517
VWidth: 2
Flags: HW
VStem: 122 115<50 100> 318 115<44 97>
LayerCount: 2
Fore
SplineSet
226 276 m 1
 309 339 392 419 416 487 c 1
 451 475 485 464 520 452 c 1
 482 360 404 299 333 246 c 1
 384 188 427 130 433 46 c 1
 395 32 356 18 318 4 c 1
 314 77 279 151 215 220 c 1
 218 239 223 257 226 276 c 1
30 281 m 1
 113 344 195 424 219 492 c 1
 254 480 289 469 324 457 c 1
 286 365 208 304 137 251 c 1
 188 193 230 136 236 52 c 1
 198 38 160 23 122 9 c 1
 118 82 83 156 19 225 c 1
 22 244 27 262 30 281 c 1
EndSplineSet
EndChar
StartChar: logicalnot
Encoding: 172 172 194
Width: 517
VWidth: 2
Flags: HW
HStem: 200 119<65 357>
LayerCount: 2
Fore
SplineSet
65 319 m 1
 87 320 113 321 137 321 c 0
 186 321 235 319 268 319 c 0
 326 319 l 0
 366 319 440 318 492 318 c 1
 495 318 498 318 501 318 c 1
 496 293 491 267 486 242 c 1
 487 242 l 1
 477 191 467 139 457 88 c 1
 416 88 376 88 335 88 c 1
 342 126 350 162 357 200 c 1
 244 200 l 0
 223 200 178 202 129 202 c 0
 101 202 72 201 45 200 c 1
 49 220 53 239 57 259 c 1
 60 279 62 299 65 319 c 1
EndSplineSet
EndChar
StartChar: registered
Encoding: 174 174 166
Width: 517
VWidth: 2
Flags: HW
HStem: 19 86<173 339> 366 72<276 343> 474 85<224 396>
VStem: 22 86<172 346> 343 77<312 364> 459 84<243 410>
LayerCount: 2
Fore
SplineSet
27 289 m 0
 70 497 198 560 323 560 c 0
 448 560 543 464 543 339 c 0
 543 323 542 306 539 289 c 0
 499 82 374 19 247 19 c 0
 108 19 22 127 22 242 c 0
 22 258 24 273 27 289 c 0
334 251 m 1
 347 226 372 202 394 188 c 1
 312 130 l 1
 286 147 259 208 259 241 c 1
 255 241 l 1
 235 138 l 1
 157 138 l 1
 181 117 212 105 249 105 c 0
 345 105 429 170 455 290 c 0
 458 304 459 319 459 332 c 0
 459 414 403 474 321 474 c 0
 225 474 138 426 112 290 c 0
 110 277 108 264 108 252 c 0
 108 208 124 170 151 144 c 1
 193 359 l 2
 198 385 201 404 204 428 c 1
 245 434 281 438 311 438 c 0
 375 438 420 420 420 362 c 0
 420 354 419 345 417 335 c 0
 409 295 374 263 334 251 c 1
343 341 m 0
 343 342 343 344 343 345 c 0
 343 358 331 366 298 366 c 0
 290 366 283 364 277 362 c 1
 268 315 l 1
 274 312 284 308 299 308 c 0
 333 308 341 327 343 341 c 0
EndSplineSet
EndChar
StartChar: macron
Encoding: 175 175 176
Width: 517
VWidth: -16
Flags: HW
HStem: 714 95<236 463>
VStem: 218 263
LayerCount: 2
Fore
SplineSet
481 809 m 1
 475 777 468 746 462 714 c 1
 459 714 457 714 454 714 c 0
 426 713 377 711 341 711 c 0
 305 711 260 711 227 712 c 0
 224 712 221 713 218 713 c 1
 224 745 231 777 237 809 c 1
 240 809 243 808 246 808 c 0
 278 807 333 807 378 807 c 0
 408 807 451 809 473 809 c 0
 481 809 l 1
EndSplineSet
EndChar
StartChar: degree
Encoding: 176 176 175
Width: 517
VWidth: -3
Flags: HW
HStem: 385 94<258 339> 579 94<268 350>
VStem: 156 96<484 562> 354 96<495 573>
LayerCount: 2
Fore
SplineSet
331 673 m 0
 401 673 450 623 450 557 c 0
 450 448 359 385 275 385 c 0
 205 385 156 435 156 501 c 0
 156 608 247 673 331 673 c 0
252 519 m 0
 252 496 269 479 293 479 c 0
 323 479 354 505 354 539 c 0
 354 562 337 579 313 579 c 0
 283 579 252 553 252 519 c 0
EndSplineSet
EndChar
StartChar: plusminus
Encoding: 177 177 145
Width: 517
VWidth: -2
Flags: HW
HStem: 80 120<30 196 314 448> 307 115<68 212 355 491>
LayerCount: 2
Fore
SplineSet
68 417 m 1
 92 421 107 422 139 422 c 0
 158 422 l 1
 184 422 210 422 236 422 c 1
 247 480 259 538 270 596 c 1
 310 596 350 597 390 597 c 1
 378 539 367 480 355 422 c 1
 417 422 443 421 473 421 c 0
 513 421 l 1
 506 383 498 345 491 307 c 1
 489 307 486 307 484 307 c 1
 481 307 437 308 335 309 c 1
 328 273 321 237 314 201 c 1
 359 201 422 200 462 200 c 1
 465 200 468 200 471 200 c 1
 463 160 456 120 448 80 c 1
 445 80 442 80 439 80 c 1
 374 81 256 82 195 82 c 0
 162 82 85 81 10 77 c 1
 14 97 17 117 21 137 c 1
 24 157 27 177 30 197 c 1
 86 200 145 201 192 201 c 1
 199 237 205 271 212 307 c 1
 169 307 l 0
 104 307 76 307 47 303 c 1
 54 341 61 379 68 417 c 1
EndSplineSet
EndChar
StartChar: uni00B2
Encoding: 178 178 196
Width: 517
VWidth: 31
Flags: HW
HStem: 375 83<283 443> 664 82<308 389>
VStem: 391 106<602 661>
LayerCount: 2
Fore
SplineSet
188 645 m 1
 214 718 298 746 371 746 c 0
 436 746 498 722 498 657 c 0
 498 564 439 541 341 495 c 0
 302 476 289 473 283 458 c 1
 460 460 l 1
 443 375 l 1
 139 375 l 1
 141 391 144 406 147 422 c 0
 151 444 156 460 174 481 c 0
 206 520 391 586 391 633 c 0
 391 648 378 664 356 664 c 0
 315 664 304 642 295 621 c 1
 188 645 l 1
EndSplineSet
EndChar
StartChar: uni00B3
Encoding: 179 179 197
Width: 517
VWidth: 31
Flags: HW
HStem: 368 75<238 347> 485 10G<202 225> 536 64<302 360> 639 10G<259 274> 666 81<272 377>
VStem: 363 103<459 528> 379 106<605 693>
LayerCount: 2
Fore
SplineSet
213 495 m 1xfc
 235 464 251 443 296 443 c 0
 337 443 363 470 363 503 c 0xfc
 363 524 337 536 288 536 c 1
 302 601 l 1
 302 601 330 600 336 600 c 0
 363 600 379 617 379 645 c 0
 379 660 366 666 345 666 c 0
 313 666 283 654 265 639 c 1
 221 711 l 1
 251 732 298 747 357 747 c 2
 362 747 l 2
 441 747 485 722 485 664 c 0xfa
 485 620 462 591 421 575 c 1
 447 563 465 537 465 513 c 0
 465 416 382 368 286 368 c 0
 215 368 164 376 131 422 c 1
 213 495 l 1xfc
EndSplineSet
EndChar
StartChar: acute
Encoding: 180 180 174
Width: 517
VWidth: -20
Flags: HW
HStem: 619 216
VStem: 197 286
LayerCount: 2
Fore
SplineSet
197 704 m 1
 271 727 368 781 434 834 c 1
 451 806 466 778 483 750 c 1
 418 695 299 642 225 619 c 1
 216 647 206 676 197 704 c 1
EndSplineSet
EndChar
StartChar: mu
Encoding: 181 181 169
Width: 517
VWidth: 2
Flags: HW
HStem: -8 10G<378 406> 1 100<146 264> 488 10G<182 203>
VStem: 80 123<343 484>
LayerCount: 2
Fore
SplineSet
118 4 m 1x70
 104 -62 91 -128 77 -194 c 25
 36 -194 -4 -193 -45 -193 c 1
 -24 -91 -3 10 17 112 c 0
 25 152 34 199 43 246 c 0
 62 342 80 438 80 475 c 0
 80 478 79 482 79 484 c 1
 120 488 162 494 203 498 c 1
 203 493 l 0
 203 444 176 319 143 146 c 1
 143 143 l 0
 143 113 151 101 191 101 c 1x70
 288 101 315 181 320 204 c 1
 339 299 356 393 375 488 c 1
 417 488 459 488 501 488 c 1
 479 375 457 262 435 149 c 1
 435 147 434 146 434 144 c 0
 434 120 458 91 479 81 c 1
 450 51 421 22 392 -8 c 1xb0
 364 6 347 29 342 53 c 1
 298 15 239 2 165 1 c 1
 164 1 161 1 160 1 c 1
 146 1 132 2 118 4 c 1x70
EndSplineSet
EndChar
StartChar: paragraph
Encoding: 182 182 170
Width: 517
VWidth: 0
Flags: HW
HStem: -5 10G<316 318> 543 105<352 409>
LayerCount: 2
Fore
SplineSet
402 508 m 1
 404 520 407 531 409 543 c 1
 366 543 l 0
 352 543 l 1
 324 398 297 254 269 109 c 0
 260 64 229 -1 207 -20 c 1
 177 -3 146 13 116 30 c 1
 131 51 148 69 156 108 c 1
 163 144 170 179 177 215 c 1
 109 220 61 277 61 377 c 0
 61 399 64 424 69 451 c 0
 78 496 95 541 128 573 c 0
 197 642 282 648 392 648 c 0
 457 648 475 645 533 645 c 1
 491 429 448 212 406 -4 c 1
 371 -4 335 -5 300 -5 c 1
 332 162 360 295 402 508 c 1
EndSplineSet
EndChar
StartChar: cedilla
Encoding: 184 184 198
Width: 517
VWidth: 5
Flags: HW
HStem: -194 84<144 253> -58 86<187 255>
VStem: 254 109<-107 -60>
LayerCount: 2
Fore
SplineSet
297 27 m 1
 296 23 289 -8 289 -9 c 1
 331 -11 364 -34 364 -77 c 0
 364 -83 363 -89 362 -95 c 0
 349 -158 287 -194 210 -194 c 0
 178 -194 134 -186 110 -168 c 1
 125 -144 139 -120 154 -96 c 1
 169 -105 188 -110 213 -110 c 0
 231 -110 249 -105 254 -86 c 1
 254 -85 l 1
 254 -84 255 -81 255 -80 c 0
 255 -68 246 -58 225 -58 c 0
 202 -58 185 -59 170 -64 c 1
 176 -33 182 -3 188 28 c 1
 224 28 261 27 297 27 c 1
EndSplineSet
EndChar
StartChar: uni00B9
Encoding: 185 185 199
Width: 517
VWidth: 31
Flags: HW
HStem: 536 98<195 244>
VStem: 180 292
LayerCount: 2
Fore
SplineSet
360 746 m 1
 472 738 l 1
 402 375 l 1
 296 375 l 1
 346 625 l 1
 304 586 261 557 196 536 c 1
 180 634 l 1
 253 653 311 681 360 746 c 1
EndSplineSet
EndChar
StartChar: ordmasculine
Encoding: 186 186 200
Width: 517
VWidth: 2
Flags: HW
HStem: 248 82<97 450> 370 88<253 356> 657 88<286 396>
VStem: 140 103<467 608> 408 100<516 646>
LayerCount: 2
Fore
SplineSet
97 330 m 1
 466 330 l 1
 450 248 l 1
 81 248 l 1
 97 330 l 1
404 562 m 0
 406 574 408 584 408 594 c 0
 408 631 392 657 345 657 c 0
 297 657 260 627 247 562 c 0
 244 545 242 532 242 519 c 0
 242 479 259 458 298 458 c 1
 345 458 392 499 404 562 c 0
280 370 m 1
 185 370 140 424 140 507 c 0
 140 524 142 542 145 561 c 0
 171 693 254 745 345 745 c 0
 449 745 508 685 508 602 c 0
 508 590 506 577 504 564 c 0
 475 413 383 370 280 370 c 1
EndSplineSet
EndChar
StartChar: onequarter
Encoding: 188 188 201
Width: 517
VWidth: 0
Flags: HW
HStem: -81 81<197 261 377 422> 253 82<67 487> 536 98<195 244>
VStem: 180 292
LayerCount: 2
Fore
SplineSet
67 335 m 1
 503 335 l 1
 487 253 l 1
 51 253 l 1
 67 335 l 1
EndSplineSet
Refer: 782 8324 N 1 0 0 1 0 0 2
Refer: 199 185 N 1 0 0 1 0 0 2
EndChar
StartChar: onehalf
Encoding: 189 189 202
Width: 517
VWidth: 0
Flags: HW
HStem: -152 83<229 390> 136 82<254 335> 253 82<67 487> 536 98<195 244>
VStem: 180 292 337 106<75 133>
LayerCount: 2
Fore
SplineSet
67 335 m 1xf0
 503 335 l 1
 487 253 l 1
 51 253 l 1
 67 335 l 1xf0
EndSplineSet
Refer: 780 8322 N 1 0 0 1 0 0 2
Refer: 199 185 N 1 0 0 1 0 0 2
EndChar
StartChar: threequarters
Encoding: 190 190 203
Width: 517
VWidth: 0
Flags: HW
HStem: -81 81<197 261 377 422> 253 82<67 487> 368 75<238 347> 485 10G<202 225> 536 64<302 360> 639 10G<259 274> 666 81<272 377>
VStem: 363 103<459 528> 379 106<605 693>
LayerCount: 2
Fore
SplineSet
67 335 m 1xfe
 503 335 l 1
 487 253 l 1
 51 253 l 1
 67 335 l 1xfe
EndSplineSet
Refer: 782 8324 N 1 0 0 1 0 0 2
Refer: 197 179 N 1 0 0 1 0 0 2
EndChar
StartChar: AE
Encoding: 198 198 82
Width: 517
VWidth: 0
Flags: HW
HStem: -2 102<321 449> 137 102<159 213> 313 102<351 446> 544 102<363 538>
AnchorPoint: "above_accent" 360 646 basechar 0
LayerCount: 2
Fore
SplineSet
458 16 m 1
 433 4 401 -2 364 -2 c 1
 308 -2 253 -2 197 -2 c 1
 206 74 205 61 213 135 c 1
 204 136 198 137 191 137 c 0
 177 137 147 136 129 132 c 1
 103 65 104 67 78 0 c 1
 41 7 5 15 -32 22 c 1
 51 210 135 437 222 646 c 1
 245 646 269 645 292 645 c 1
 313 646 340 646 369 646 c 0
 430 646 l 1
 472 646 515 646 557 646 c 1
 551 612 544 579 538 545 c 1
 535 545 532 545 529 545 c 1
 488 545 495 544 435 544 c 1
 412 544 388 544 365 544 c 1
 360 501 356 456 351 413 c 1
 376 413 371 415 413 415 c 1
 430 415 447 415 464 415 c 1
 458 381 451 347 445 313 c 1
 428 313 410 313 393 313 c 1
 353 313 361 312 339 312 c 1
 333 241 327 170 321 99 c 1
 346 99 373 99 398 99 c 1
 428 99 449 111 449 111 c 1
 452 79 455 48 458 16 c 1
226 239 m 1
 232 299 246 427 252 487 c 1
 229 426 181 298 158 237 c 1
 173 238 201 239 226 239 c 1
EndSplineSet
EndChar
StartChar: Ccedilla
Encoding: 199 199 83
Width: 517
VWidth: 2
Flags: HW
HStem: -216 84<146 255> 551 100<289 400>
VStem: 41 129<133 355> 256 109<-129 -81>
LayerCount: 2
Fore
SplineSet
347 551 m 0
 291 551 212 485 178 307 c 0
 173 279 170 253 170 230 c 0
 170 144 205 97 246 97 c 1
 248 97 250 97 252 97 c 1
 313 97 338 128 374 191 c 1
 410 169 445 147 481 125 c 1
 440 63 372 19 299 4 c 1
 297 -3 292 -30 292 -31 c 1
 333 -33 365 -55 365 -98 c 0
 365 -104 364 -110 363 -117 c 0
 350 -180 289 -216 212 -216 c 0
 180 -216 137 -207 113 -189 c 1
 127 -165 142 -142 156 -118 c 1
 171 -127 191 -132 216 -132 c 0
 234 -132 251 -127 256 -108 c 1
 256 -107 l 1
 256 -106 257 -103 257 -102 c 0
 257 -90 248 -80 227 -80 c 0
 204 -80 187 -81 172 -86 c 1
 178 -56 183 -27 189 3 c 1
 151 10 114 26 89 57 c 1
 57 99 41 150 41 214 c 0
 41 243 44 276 51 311 c 0
 75 437 130 515 163 553 c 0
 208 606 284 650 369 650 c 0
 437 650 516 620 544 541 c 1
 502 520 461 500 419 479 c 1
 406 540 389 551 347 551 c 0
EndSplineSet
EndChar
StartChar: Eth
Encoding: 208 208 152
Width: 517
VWidth: 0
Flags: HW
HStem: -5 100<140 269> 357 103<54 70 213 319> 550 100<227 328>
VStem: 372 129<234 503>
LayerCount: 2
Fore
SplineSet
267 550 m 1
 262 550 257 550 252 550 c 1
 244 550 239 550 230 549 c 1
 228 536 226 521 223 506 c 0
 219 486 216 475 213 460 c 1
 255 460 295 460 337 460 c 1
 331 426 324 392 318 358 c 1
 276 358 235 357 193 357 c 1
 170 238 148 137 140 97 c 1
 182 96 159 95 188 95 c 0
 190 95 l 0
 210 95 280 96 327 172 c 0
 341 194 353 239 358 266 c 0
 368 315 372 359 372 396 c 0
 372 498 336 550 267 550 c 1
90 460 m 1
 91 466 92 471 93 477 c 1
 105 540 115 600 119 643 c 1
 160 647 182 650 230 650 c 0
 362 650 432 610 474 521 c 1
 492 482 501 432 501 379 c 0
 501 348 498 315 492 283 c 0
 486 249 475 216 462 184 c 0
 416 66 325 7 236 -1 c 0
 209 -3 184 -5 157 -5 c 0
 116 -5 52 -1 -4 -1 c 1
 -1 16 -1 14 10 62 c 1
 14 84 43 221 70 357 c 1
 59 357 47 357 36 357 c 1
 43 391 49 426 56 460 c 1
 67 460 79 460 90 460 c 1
EndSplineSet
EndChar
StartChar: multiply
Encoding: 215 215 128
Width: 517
VWidth: 2
Flags: HW
LayerCount: 2
Fore
SplineSet
155 488 m 1
 191 459 240 380 273 338 c 1
 333 386 392 435 452 483 c 1
 474 455 497 426 519 398 c 1
 459 350 400 301 340 253 c 1
 397 180 410 157 460 93 c 1
 427 66 395 40 362 13 c 1
 309 86 335 50 244 172 c 1
 185 121 127 70 68 19 c 1
 46 48 22 78 0 107 c 1
 58 158 116 208 174 259 c 1
 120 329 80 387 57 408 c 1
 90 435 122 461 155 488 c 1
EndSplineSet
EndChar
StartChar: Oslash
Encoding: 216 216 127
Width: 517
VWidth: 0
Flags: HW
HStem: -8 99<174 282> 560 99<270 370> 688 10G<498 518>
AnchorPoint: "above_accent" 345 646 basechar 0
LayerCount: 2
Fore
SplineSet
502 551 m 1
 511 524 517 490 517 448 c 0
 517 411 513 367 503 316 c 1
 503 314 502 313 502 311 c 1
 486 229 455 152 423 106 c 0
 373 34 292 -8 211 -8 c 0
 174 -8 135 -1 102 17 c 1
 83 -7 65 -32 46 -56 c 1
 24 -39 1 -22 -21 -5 c 1
 0 23 22 52 43 80 c 1
 30 108 24 141 24 178 c 0
 24 210 29 246 36 283 c 0
 70 455 114 533 157 580 c 0
 198 625 269 658 346 659 c 1
 378 659 419 653 453 626 c 1
 471 650 489 673 507 697 c 1
 530 680 552 665 575 648 c 1
 551 616 526 583 502 551 c 1
173 113 m 1
 186 95 203 91 230 91 c 0
 269 91 299 121 321 159 c 1
 340 188 365 264 375 312 c 1
 375 315 376 318 376 321 c 1
 380 344 385 372 388 399 c 1
 316 304 245 208 173 113 c 1
378 525 m 1
 366 551 349 560 327 560 c 0
 295 560 274 548 248 513 c 0
 217 472 188 408 165 289 c 0
 162 272 158 251 156 230 c 1
 231 329 304 427 378 525 c 1
EndSplineSet
EndChar
StartChar: Thorn
Encoding: 222 222 204
Width: 517
VWidth: 0
Flags: HW
HStem: -5 10G<115 143> 214 102<198 345> 482 103<251 372> 639 10G<238 261>
VStem: 392 132<359 464>
LayerCount: 2
Fore
SplineSet
391 405 m 0
 392 410 392 415 392 420 c 0
 392 467 345 482 309 482 c 0
 304 482 l 1
 274 482 252 480 230 480 c 1
 228 468 226 457 224 445 c 1
 206 354 198 317 198 317 c 1
 216 317 233 316 249 316 c 0
 306 316 376 327 391 405 c 0
135 -5 m 1
 94 -5 54 -4 13 -4 c 1
 55 212 98 429 140 645 c 1
 192 645 212 648 263 648 c 1
 259 627 255 606 251 585 c 1
 269 585 l 0
 379 585 461 579 504 510 c 0
 518 488 524 472 524 449 c 0
 524 438 523 426 520 412 c 0
 500 311 421 214 253 214 c 0
 230 214 204 215 178 216 c 1
 153 85 150 73 135 -5 c 1
EndSplineSet
EndChar
StartChar: germandbls
Encoding: 223 223 167
Width: 517
VWidth: 0
Flags: HW
HStem: -18 10G<11 30> -1 98<232 330> 310 101<225 302> 548 101<229 321>
VStem: 167 104<58 156> 330 123<441 538> 359 121<130 270>
LayerCount: 2
Fore
SplineSet
91 490 m 0xfc
 106 566 179 648 280 648 c 0
 382 648 453 616 453 530 c 0xfc
 453 519 451 506 449 493 c 1
 437 433 408 398 364 380 c 1
 422 370 480 336 480 242 c 0
 480 225 478 207 474 186 c 0
 445 37 375 -1 268 -1 c 0
 196 -1 167 27 167 88 c 0
 167 105 170 125 174 146 c 0
 177 157 l 1
 210 157 243 156 276 156 c 1
 274 145 272 135 272 126 c 0
 272 109 278 97 298 97 c 0
 324 97 342 121 356 193 c 0
 357 201 359 208 359 216 c 0xfa
 359 263 328 310 207 310 c 1
 213 344 221 376 227 410 c 1
 308 410 318 443 329 490 c 0
 330 494 330 498 330 501 c 0
 330 534 297 548 271 548 c 1
 238 548 219 524 213 492 c 0
 198 416 181 311 163 220 c 0
 159 200 156 181 152 162 c 0
 144 123 136 86 121 57 c 0
 100 17 45 -4 15 -18 c 1
 8 23 1 62 -6 103 c 1
 5 108 15 114 21 127 c 0
 27 140 31 157 38 194 c 0
 39 201 41 210 43 219 c 0
 62 310 74 405 91 490 c 0xfc
EndSplineSet
EndChar
StartChar: ae
Encoding: 230 230 65
Width: 517
VWidth: 2
Flags: HW
HStem: 0 102<308 376> 2 77<101 172> 248 75<144 212> 395 103<147 230 357 413>
VStem: -0 115<79 209> 415 95<317 393>
AnchorPoint: "above_accent" 313 541 basechar 0
LayerCount: 2
Fore
SplineSet
338 301 m 1x3c
 338 298 336 294 336 291 c 1
 400 309 415 333 415 359 c 0
 415 382 405 395 383 395 c 0
 363 395 352 380 338 301 c 1x3c
119 157 m 0
 116 141 115 129 115 118 c 0
 115 92 123 79 136 79 c 0x7c
 180 79 191 146 199 160 c 1
 203 184 208 207 212 231 c 1
 193 243 191 248 165 248 c 0
 149 248 128 206 119 157 c 0
316 0 m 0xbc
 239 0 227 36 219 47 c 1
 201 30 166 2 116 2 c 0x7c
 85 2 55 9 32 28 c 0
 8 48 0 76 -0 108 c 0
 0 122 1 137 4 151 c 0
 20 233 68 323 168 323 c 0
 206 323 210 315 227 307 c 1
 230 324 233 340 233 353 c 0
 233 378 224 395 190 395 c 1
 189 395 187 395 186 395 c 1
 160 395 148 385 126 343 c 1
 96 356 68 370 38 383 c 1
 90 474 149 497 207 497 c 0
 234 497 256 496 281 473 c 1
 289 465 296 453 300 444 c 1
 311 457 347 497 397 497 c 1
 465 497 510 454 510 366 c 0
 510 280 460 223 315 183 c 1
 305 134 l 1
 309 113 312 102 331 102 c 0
 368 102 377 120 384 142 c 1
 413 130 441 118 470 106 c 1
 470 106 426 0 316 0 c 0xbc
EndSplineSet
EndChar
StartChar: ccedilla
Encoding: 231 231 81
Width: 517
VWidth: 5
Flags: HW
HStem: -213 84<107 215> -3 102<252 316> 394 103<242 390>
VStem: 38 129<123 302> 217 109<-125 -78>
LayerCount: 2
Fore
SplineSet
173 258 m 0
 168 234 167 213 167 196 c 0
 167 101 227 99 247 99 c 0
 249 99 251 99 253 99 c 0
 302 99 335 131 366 171 c 1
 399 149 430 127 463 105 c 1
 419 36 353 1 257 -3 c 1
 255 -14 251 -27 251 -28 c 1
 293 -30 327 -52 327 -95 c 0
 327 -101 326 -108 325 -114 c 0
 312 -177 250 -213 173 -213 c 0
 141 -213 97 -205 73 -187 c 1
 88 -163 102 -138 117 -114 c 1
 132 -123 151 -129 176 -129 c 0
 194 -129 212 -123 217 -104 c 0
 217 -104 l 0
 217 -103 218 -100 218 -99 c 0
 218 -87 209 -77 188 -77 c 0
 165 -77 148 -78 133 -83 c 1
 138 -54 145 -24 150 5 c 1
 127 11 106 20 88 36 c 0
 52 69 38 112 38 167 c 0
 38 194 42 224 48 257 c 0
 80 423 181 497 335 497 c 0
 424 497 481 469 522 428 c 1
 494 395 466 363 438 330 c 1
 428 351 375 394 307 394 c 0
 235 394 187 328 173 258 c 0
EndSplineSet
EndChar
StartChar: eth
Encoding: 240 240 205
Width: 517
VWidth: 2
Flags: HW
HStem: 0 103<174 288> 494 10G<153 175> 695 10G<303 328 488 515>
VStem: 30 124<122 299> 371 124<204 382>
LayerCount: 2
Fore
SplineSet
335 403 m 1
 215 403 174 318 160 246 c 0
 157 228 154 209 154 192 c 0
 154 143 171 103 220 103 c 0
 303 103 345 163 365 264 c 0
 368 282 371 297 371 311 c 0
 371 345 359 370 335 403 c 1
235 614 m 1
 228 631 205 646 205 650 c 1
 244 669 284 686 323 705 c 1
 334 685 350 665 360 648 c 1
 411 663 462 679 513 694 c 1
 516 661 519 629 522 596 c 1
 480 590 439 583 397 577 c 1
 452 491 495 421 495 328 c 0
 495 307 492 286 488 263 c 0
 456 98 357 0 200 0 c 1
 199 0 l 1
 88 0 30 78 30 183 c 0
 30 204 33 224 37 246 c 0
 56 339 121 485 303 497 c 1
 300 502 289 523 278 538 c 1
 230 524 196 508 154 494 c 1
 151 527 148 560 145 593 c 1
 145 593 203 603 235 614 c 1
EndSplineSet
EndChar
StartChar: divide
Encoding: 247 247 146
Width: 517
VWidth: 2
Flags: HW
HStem: 1 138<163 292> 202 119<58 471> 370 137<235 364>
LayerCount: 2
Fore
SplineSet
236 507 m 1
 287 507 339 507 390 507 c 1
 381 462 372 415 363 370 c 1
 312 370 260 370 209 370 c 1
 218 415 227 462 236 507 c 1
164 139 m 1
 215 139 267 139 318 139 c 1
 309 93 300 47 291 1 c 1
 240 1 188 1 137 1 c 1
 146 47 155 93 164 139 c 1
58 319 m 1
 80 320 105 321 129 321 c 0
 178 321 227 319 260 319 c 0
 318 319 l 0
 358 319 432 318 484 318 c 1
 487 318 490 318 493 318 c 1
 485 278 478 239 470 199 c 1
 467 199 464 199 461 199 c 1
 396 200 297 200 236 200 c 0
 215 200 171 202 122 202 c 0
 94 202 65 201 38 200 c 1
 42 220 45 239 49 259 c 1
 52 279 55 299 58 319 c 1
EndSplineSet
EndChar
StartChar: oslash
Encoding: 248 248 140
Width: 517
VWidth: 2
Flags: HW
HStem: -3 99<181 288> 405 99<235 335>
AnchorPoint: "above_accent" 314 541 basechar 0
LayerCount: 2
Fore
SplineSet
292 121 m 1
 320 146 337 197 348 259 c 0
 348 262 350 264 350 267 c 0
 351 274 352 280 353 286 c 1
 293 233 235 179 175 126 c 1
 186 107 204 96 230 96 c 0
 257 96 271 103 292 121 c 1
479 521 m 1
 499 498 519 476 539 453 c 1
 518 434 497 415 476 396 c 1
 480 379 482 359 482 338 c 0
 482 314 479 288 475 265 c 0
 449 126 375 -3 211 -3 c 1
 210 -3 l 1
 149 -3 106 12 78 39 c 1
 63 26 50 13 35 0 c 1
 15 21 -4 44 -24 65 c 1
 -3 84 17 102 38 121 c 1
 36 132 35 144 35 157 c 0
 35 178 37 202 42 227 c 0
 77 408 165 504 308 504 c 0
 361 504 399 494 426 474 c 1
 444 490 461 505 479 521 c 1
336 392 m 1
 326 401 314 405 296 405 c 0
 223 405 188 338 168 239 c 1
 224 290 280 341 336 392 c 1
EndSplineSet
EndChar
StartChar: thorn
Encoding: 254 254 206
Width: 517
VWidth: 0
Flags: HW
HStem: -4 98<187 293> 396 98<244 351> 630 10G<220 240>
VStem: -19 122<-194 -58> 125 116<488 628> 360 127<216 390>
LayerCount: 2
Fore
SplineSet
84 361 m 1
 94 412 104 464 114 515 c 1
 122 556 124 595 125 627 c 1
 163 631 201 636 239 640 c 1
 240 633 241 625 241 615 c 0
 241 608 240 599 239 591 c 0
 231 544 221 497 212 450 c 1
 245 480 289 494 344 494 c 0
 448 494 487 437 487 350 c 0
 487 325 484 298 478 269 c 0
 445 105 389 -4 212 -4 c 0
 163 -4 144 14 133 29 c 1
 131 9 131 -9 128 -30 c 1
 125 -45 123 -59 120 -74 c 1
 111 -120 106 -161 103 -194 c 1
 62 -195 22 -197 -19 -198 c 1
 -17 -162 -9 -115 -0 -71 c 1
 28 73 56 217 84 361 c 1
351 259 m 0
 357 289 360 314 360 334 c 0
 360 376 346 396 317 396 c 0
 254 396 226 363 196 320 c 1
 185 264 175 208 164 152 c 1
 177 124 197 94 234 94 c 0
 290 94 326 129 351 259 c 0
EndSplineSet
EndChar
StartChar: Aogonek
Encoding: 260 260 209
Width: 517
VWidth: 15
Flags: HW
HStem: -245 96<261 376> 0 10G<-34 96> 137 109<200 329> 637 10G<247 413>
VStem: 135 125<-186 -88> 335 133<40 137 246 259>
LayerCount: 2
Fore
SplineSet
465 0 m 1
 339 -49 274 -71 261 -121 c 0
 261 -122 260 -124 260 -125 c 0
 260 -143 285 -149 314 -149 c 0
 342 -149 364 -135 381 -124 c 1
 397 -147 412 -170 428 -193 c 1
 402 -216 340 -245 291 -245 c 0
 210 -245 135 -222 135 -150 c 0
 135 -143 137 -134 138 -125 c 0
 156 -28 276 -6 334 40 c 1
 334 44 335 48 335 52 c 0
 335 62 334 72 333 82 c 1
 332 101 330 118 329 137 c 1
 254 136 213 138 151 123 c 1
 143 108 136 94 128 79 c 1
 112 49 98 21 93 0 c 1
 51 0 8 0 -34 0 c 1
 -26 30 -7 70 14 109 c 1
 107 288 200 468 293 647 c 1
 330 647 366 647 403 647 c 1
 423 471 443 295 463 119 c 1
 465 95 468 70 468 45 c 0
 468 30 467 16 464 1 c 1
 465 0 l 1
329 246 m 1
 329 250 l 0
 329 306 311 378 311 442 c 0
 311 458 311 472 314 487 c 1
 295 405 231 305 199 237 c 1
 230 243 288 244 329 246 c 1
EndSplineSet
EndChar
StartChar: aogonek
Encoding: 261 261 210
Width: 517
VWidth: 2
Flags: HW
HStem: -245 96<230 344> -5 98<125 249> 400 102<228 335>
VStem: 34 122<96 286> 104 125<-187 -101>
LayerCount: 2
Fore
SplineSet
167 250 m 0xf0
 158 206 155 175 155 152 c 0
 155 93 180 92 202 92 c 0
 256 92 313 183 327 210 c 1
 336 258 346 308 355 356 c 1
 341 377 313 400 282 400 c 0
 250 400 193 380 167 250 c 0xf0
435 154 m 0
 433 141 431 131 431 122 c 0
 431 99 439 90 452 90 c 1
 479 22 l 1
 237 -99 229 -112 229 -125 c 0
 229 -143 253 -149 282 -149 c 0
 310 -149 332 -136 349 -125 c 1
 365 -148 380 -170 396 -193 c 1
 370 -216 307 -245 258 -245 c 0
 177 -245 104 -222 104 -150 c 0xe8
 104 -89 163 -55 355 47 c 1
 348 53 342 68 342 81 c 0
 342 84 342 87 342 90 c 1
 286 26 224 -5 158 -5 c 0
 92 -5 34 24 34 147 c 0
 34 179 38 219 47 265 c 0
 84 457 210 502 281 502 c 0
 321 502 361 486 380 459 c 1
 383 473 387 486 390 500 c 1
 502 495 l 1
 480 382 457 267 435 154 c 0
EndSplineSet
EndChar
StartChar: dcroat
Encoding: 273 273 213
Width: 517
VWidth: 0
Flags: HW
HStem: -3 88<182 269> 397 98<240 334> 534 95<279 398 539 542> 680 10G<432 455>
VStem: 43 126<95 276>
LayerCount: 2
Fore
SplineSet
179 233 m 0
 174 205 170 180 170 159 c 0
 170 112 185 84 222 84 c 0
 252 84 293 120 328 170 c 1
 339 224 348 279 359 333 c 1
 348 360 326 397 291 397 c 0
 246 397 203 361 179 233 c 0
52 224 m 0
 88 410 165 495 293 495 c 0
 349 495 379 468 395 454 c 1
 395 461 394 468 394 474 c 0
 394 494 395 513 398 534 c 1
 353 534 307 534 262 534 c 1
 268 566 274 596 280 628 c 1
 326 628 372 628 418 628 c 1
 423 650 429 671 435 689 c 1
 475 688 516 686 556 685 c 1
 551 668 544 649 539 628 c 1
 546 628 552 628 559 628 c 1
 553 596 547 566 541 534 c 1
 534 534 526 534 519 534 c 1
 494 403 465 242 440 130 c 0
 439 126 439 123 438 119 c 0
 429 79 425 35 424 3 c 1
 391 0 360 -3 327 -6 c 1
 327 -6 314 18 314 38 c 0
 314 40 315 43 315 45 c 1
 292 19 249 -3 188 -3 c 0
 90 -3 43 46 43 142 c 0
 43 166 46 194 52 224 c 0
EndSplineSet
EndChar
StartChar: Eogonek
Encoding: 280 280 218
Width: 517
VWidth: 15
Flags: HW
HStem: -245 95<216 331> 0 100<158 238> 315 99<220 367> 546 100<241 505>
VStem: 91 125<-186 -90>
LayerCount: 2
Fore
SplineSet
138 644 m 1
 166 646 200 646 238 646 c 0
 286 646 l 1
 304 646 322 646 340 646 c 1
 413 646 479 645 515 645 c 1
 517 645 521 645 523 645 c 1
 517 612 509 579 503 546 c 1
 417 546 331 546 245 546 c 1
 237 502 228 459 220 415 c 1
 275 415 330 415 385 415 c 1
 379 382 372 348 366 315 c 1
 311 315 256 315 201 315 c 1
 200 310 199 305 198 300 c 1
 178 199 165 139 158 100 c 1
 226 100 293 101 361 101 c 1
 388 101 424 114 424 114 c 1
 429 82 436 49 441 17 c 1
 291 -61 229 -73 216 -122 c 0
 216 -123 216 -124 216 -125 c 0
 216 -143 241 -149 270 -149 c 0
 298 -149 319 -136 336 -125 c 1
 352 -148 368 -170 384 -193 c 1
 358 -216 295 -245 246 -245 c 0
 165 -245 91 -222 91 -150 c 0
 91 -143 92 -134 93 -125 c 0
 104 -64 154 -43 238 0 c 1
 163 0 88 0 13 0 c 1
 55 215 96 429 138 644 c 1
EndSplineSet
EndChar
StartChar: eogonek
Encoding: 281 281 219
Width: 517
VWidth: 15
Flags: HW
HStem: -245 96<196 309> 399 99<240 347>
VStem: 69 125<-187 -94> 360 124<308 386>
LayerCount: 2
Fore
SplineSet
206 -4 m 1
 99 1 43 72 43 179 c 0
 43 202 45 226 50 252 c 0
 77 392 171 499 309 499 c 0
 446 499 484 416 484 350 c 0
 484 333 480 312 476 300 c 0
 446 219 361 185 167 162 c 1
 167 131 196 96 242 96 c 0
 294 96 349 109 397 144 c 1
 414 115 430 85 447 56 c 1
 212 -75 194 -100 194 -125 c 0
 194 -143 219 -149 248 -149 c 0
 276 -149 298 -136 315 -125 c 1
 331 -148 346 -170 362 -193 c 1
 336 -216 273 -245 224 -245 c 0
 143 -245 69 -222 69 -150 c 0
 69 -108 94 -76 206 -4 c 1
177 265 m 1
 242 273 321 293 335 305 c 0
 347 315 360 331 360 347 c 0
 360 372 344 399 291 399 c 0
 243 399 193 349 177 265 c 1
EndSplineSet
EndChar
StartChar: Hbar
Encoding: 294 294 232
Width: 517
VWidth: 0
Flags: HW
HStem: 0 10G<-7 127 293 433> 292 105<195 350> 484 101<76 87 232 387 531 552> 636 7G<223 242 415 542>
LayerCount: 2
Fore
SplineSet
106 585 m 1
 110 605 114 625 118 645 c 1
 160 645 202 646 244 646 c 1
 240 626 236 605 232 585 c 1
 290 585 348 585 406 585 c 1
 409 603 413 621 417 643 c 1
 459 643 500 643 542 643 c 1
 538 623 535 605 531 585 c 1
 544 585 557 585 570 585 c 1
 564 551 557 518 551 484 c 1
 538 484 525 484 512 484 c 1
 481 323 448 161 417 0 c 1
 375 0 335 0 293 0 c 1
 312 98 331 194 350 292 c 1
 345 292 339 292 334 292 c 1
 263 292 232 291 172 278 c 1
 139 107 137 90 119 0 c 1
 77 0 35 0 -7 0 c 1
 24 161 56 323 87 484 c 1
 77 484 68 484 58 484 c 1
 64 518 71 551 77 585 c 1
 87 585 96 585 106 585 c 1
387 484 m 1
 328 484 271 484 212 484 c 1
 206 450 198 417 192 383 c 1
 239 393 269 397 328 397 c 1
 342 397 356 397 370 397 c 1
 377 432 383 461 387 484 c 1
EndSplineSet
EndChar
StartChar: hbar
Encoding: 295 295 233
Width: 517
VWidth: 0
Flags: HW
HStem: -5 5G<32 163 335 357> 396 98<261 365> 544 101<88 138 275 419> 679 10G<260 279>
VStem: 154 122<645 685> 329 121<8 165> 375 125<208 386>
LayerCount: 2
Fore
SplineSet
492 276 m 1xfa
 481 219 469 163 458 106 c 1
 453 81 450 57 450 38 c 0
 450 27 452 18 454 11 c 1
 415 2 376 -7 337 -16 c 1
 332 -7 329 8 329 29 c 0xfc
 329 45 331 63 335 86 c 1
 345 137 355 189 365 240 c 1
 372 277 375 305 375 326 c 0
 375 393 345 396 311 396 c 0
 276 396 238 360 217 333 c 1
 196 222 173 111 152 0 c 1
 112 0 72 0 32 0 c 1
 68 181 102 363 138 544 c 1
 115 544 92 544 69 544 c 1
 75 578 83 611 89 645 c 1
 110 645 133 645 154 645 c 1
 155 659 157 673 158 685 c 1
 199 686 239 688 280 689 c 1
 279 676 277 661 275 645 c 1
 329 645 384 645 438 645 c 1
 432 611 424 578 418 544 c 1
 365 544 311 544 258 544 c 1
 251 510 243 486 229 454 c 1
 250 468 291 494 347 494 c 0
 447 494 500 454 500 354 c 0
 500 331 498 305 492 276 c 1xfa
EndSplineSet
EndChar
StartChar: Iogonek
Encoding: 302 302 240
Width: 517
VWidth: 15
Flags: HW
HStem: -244 96<178 293> 2 104<49 167 313 379> 543 104<153 249 370 486>
VStem: 53 125<-186 -84>
LayerCount: 2
Fore
SplineSet
153 646 m 1
 230 648 279 649 326 649 c 0
 377 649 426 648 506 647 c 1
 499 613 492 578 485 544 c 1
 425 544 420 547 374 547 c 1
 346 401 316 253 288 107 c 1
 310 107 303 107 328 107 c 0
 350 107 373 106 398 105 c 1
 391 70 385 35 378 -0 c 1
 251 -32 191 -72 178 -121 c 0
 178 -122 178 -124 178 -125 c 0
 178 -143 202 -148 231 -148 c 0
 259 -148 282 -135 299 -124 c 1
 315 -147 330 -169 346 -192 c 1
 320 -215 257 -244 208 -244 c 0
 127 -244 53 -221 53 -149 c 0
 53 -142 54 -134 55 -125 c 0
 65 -67 110 -38 190 2 c 1
 153 2 97 -1 28 -1 c 1
 35 34 42 69 49 104 c 1
 91 106 109 106 137 106 c 1
 145 106 155 106 163 106 c 1
 192 252 220 400 249 546 c 1
 217 546 188 546 136 543 c 1
 142 578 147 611 153 646 c 1
EndSplineSet
EndChar
StartChar: iogonek
Encoding: 303 303 241
Width: 517
VWidth: 15
Flags: HW
HStem: -245 95<246 361> 397 98<102 213> 577 110<256 380>
VStem: 121 125<-145 -84> 152 133<58 163>
LayerCount: 2
Fore
SplineSet
257 687 m 1xe0
 304 687 352 687 399 687 c 1
 392 650 385 614 378 577 c 1
 331 577 283 577 236 577 c 1
 243 614 250 650 257 687 c 1xe0
232 495 m 1
 274 495 315 495 357 495 c 1
 331 362 287 134 287 134 c 2
 286 128 285 122 285 117 c 0xe8
 285 98 296 89 332 89 c 0
 377 89 409 105 444 133 c 1
 454 102 464 72 474 41 c 1
 473 40 471 39 470 38 c 0
 324 -61 252 -63 246 -121 c 0
 246 -122 246 -124 246 -125 c 0
 246 -142 270 -149 299 -149 c 0
 327 -149 350 -135 367 -124 c 1
 383 -147 398 -170 414 -193 c 1
 388 -216 325 -245 276 -245 c 0
 195 -245 121 -222 121 -150 c 0xf0
 121 -143 122 -134 123 -125 c 0
 133 -70 180 -47 250 -7 c 1
 222 -4 198 2 184 10 c 0
 159 25 152 47 152 69 c 0xe8
 152 80 154 91 156 101 c 1
 175 200 194 298 213 397 c 1
 189 397 145 394 97 383 c 1
 98 413 99 444 100 474 c 1
 148 488 193 495 232 495 c 1
EndSplineSet
EndChar
StartChar: dotlessi
Encoding: 305 305 177
Width: 517
VWidth: 0
Flags: HW
HStem: -9 98<241 412> 498 10G<221 255>
VStem: 157 133<60 188>
AnchorPoint: "above_accent" 295 541 basechar 0
LayerCount: 2
Fore
SplineSet
235 507 m 1
 276 503 316 499 357 495 c 1
 331 362 292 159 292 159 c 1
 291 151 290 142 290 134 c 0
 290 110 299 89 332 89 c 0
 377 89 409 105 444 133 c 1
 454 102 464 72 474 41 c 1
 425 6 349 -9 288 -9 c 0
 194 -9 157 29 157 90 c 0
 157 101 159 113 161 126 c 1
 176 204 191 282 206 360 c 1
 206 360 190 343 141 320 c 1
 123 350 104 380 86 410 c 1
 147 430 208 457 235 507 c 1
EndSplineSet
EndChar
StartChar: IJ
Encoding: 306 306 243
Width: 517
VWidth: 0
Flags: HW
HStem: 0 104<-11 32 155 162 275 363> 541 105<93 115 241 268 348 433 548 584> 546 103<91 115 236 267>
VStem: 200 116<105 211> 433 115<312 539>
LayerCount: 2
Fore
SplineSet
320 0 m 0xd8
 231 0 200 64 200 143 c 0
 200 165 203 188 207 212 c 1
 245 212 283 212 321 212 c 1
 318 189 316 170 316 154 c 0
 316 119 324 104 337 104 c 0
 367 104 382 148 413 312 c 0
 420 349 433 442 433 501 c 0
 433 516 432 530 430 539 c 1
 406 539 409 541 395 541 c 1
 356 540 351 535 341 532 c 1
 343 567 346 601 348 636 c 1
 359 639 372 645 415 646 c 1
 468 646 547 646 604 646 c 1
 597 611 590 575 583 540 c 1
 565 540 572 541 548 541 c 1
 548 483 542 366 531 312 c 0
 494 127 452 0 320 0 c 0xd8
94 646 m 1
 136 648 163 649 189 649 c 0
 217 649 244 648 288 647 c 1
 281 613 275 578 268 544 c 1
 259 545 249 546 240 547 c 1
 212 401 183 253 155 107 c 1
 164 107 172 105 181 105 c 1
 174 70 168 35 161 -0 c 1
 139 2 122 2 105 2 c 0
 92 2 79 2 63 2 c 0
 43 2 10 -1 -32 -1 c 1
 -25 34 -18 69 -11 104 c 1
 8 105 18 106 29 106 c 1
 58 252 86 400 115 546 c 1xb8
 102 545 88 544 75 543 c 1
 81 578 88 611 94 646 c 1
EndSplineSet
EndChar
StartChar: ij
Encoding: 307 307 244
Width: 517
VWidth: 0
Flags: HW
HStem: -190 99<147 295> -9 98<168 267> 388 91<59 122 316 399> 397 98<61 123 318 400> 577 110<166 290 434 557>
VStem: 62 131<59 194>
LayerCount: 2
Fore
SplineSet
142 495 m 1xdc
 184 495 225 495 267 495 c 1
 244 375 219 254 196 134 c 1
 194 123 192 113 192 106 c 0
 192 94 197 89 216 89 c 0
 245 89 251 90 275 118 c 1
 285 92 294 67 304 41 c 1
 270 6 221 -9 182 -9 c 0
 156 -9 112 -2 93 10 c 0
 68 26 62 48 62 70 c 0
 62 81 63 92 65 101 c 1
 84 200 104 298 123 397 c 1
 110 397 l 0xdc
 98 397 94 396 56 388 c 1
 57 418 58 449 59 479 c 1xec
 107 493 103 495 142 495 c 1xdc
439 -38 m 1
 424 -113 370 -190 230 -190 c 3
 217 -190 205 -190 192 -190 c 0
 146 -190 97 -183 13 -119 c 1
 43 -91 72 -62 102 -34 c 1
 153 -91 204 -92 235 -92 c 0
 238 -92 l 0
 247 -92 l 3
 306 -92 314 -40 318 -23 c 1
 345 117 373 257 400 397 c 1
 385 397 l 0xdc
 368 397 351 396 313 388 c 1
 314 418 315 449 316 479 c 1xec
 364 493 380 495 419 495 c 1
 461 495 501 495 543 495 c 1
 508 317 474 140 439 -38 c 1
436 687 m 1
 483 687 530 687 577 687 c 1
 570 650 563 614 556 577 c 1
 509 577 462 577 415 577 c 1
 422 614 429 650 436 687 c 1
167 687 m 1
 214 687 263 687 310 687 c 1
 303 650 296 614 289 577 c 1
 242 577 193 577 146 577 c 1
 153 614 160 650 167 687 c 1
EndSplineSet
EndChar
StartChar: Lcaron
Encoding: 317 317 254
Width: 517
VWidth: 15
Flags: HW
HStem: -1 103<184 449> 630 10G<363 425> 637 10G<145 290>
LayerCount: 2
Fore
SplineSet
475 622 m 1xc0
 460 566 450 512 433 437 c 1
 342 447 l 1
 349 518 359 589 367 640 c 1
 475 622 l 1xc0
EndSplineSet
Refer: 35 76 N 1 0 0 1 0 0 2
EndChar
StartChar: lcaron
Encoding: 318 318 255
Width: 517
VWidth: 15
Flags: HW
HStem: -9 105<240 399> 495 10G<373 465> 688 10G<386 448> 694 10G<175 212>
VStem: 91 129<115 273>
LayerCount: 2
Fore
SplineSet
498 680 m 1xe8
 483 624 473 570 456 495 c 1
 365 505 l 1
 372 576 382 647 390 698 c 1
 498 680 l 1xe8
EndSplineSet
Refer: 12 108 N 1 0 0 1 0 0 2
EndChar
StartChar: Lslash
Encoding: 321 321 258
Width: 517
VWidth: 0
Flags: HW
HStem: -1 103<237 449> 488 10G<407 433> 637 10G<211 344>
LayerCount: 2
Fore
SplineSet
143 250 m 1
 119 239 95 227 71 216 c 1
 60 248 51 279 40 311 c 1
 82 332 124 351 166 372 c 1
 184 464 202 555 220 647 c 1
 262 647 302 647 344 647 c 1
 330 577 317 508 303 438 c 1
 345 458 386 478 428 498 c 1
 439 466 448 434 459 402 c 1
 399 373 339 345 279 316 c 1
 265 244 251 173 237 101 c 1
 289 101 341 101 393 101 c 1
 422 102 427 104 450 111 c 1
 455 79 462 47 467 15 c 1
 443 7 411 -1 374 -1 c 1
 281 -1 186 -1 93 -1 c 1
 110 83 126 166 143 250 c 1
EndSplineSet
EndChar
StartChar: lslash
Encoding: 322 322 259
Width: 517
VWidth: 0
Flags: HW
HStem: -9 105<240 399> 561 103<336 472> 680 10G<448 469>
VStem: 17 119<522 586> 91 129<115 264>
LayerCount: 2
Fore
SplineSet
17 522 m 1xf0
 17 635 68 708 212 708 c 0
 273 708 311 694 360 677 c 0
 390 667 405 664 418 664 c 0
 436 664 446 669 451 689 c 1
 544 640 l 1
 508 578 468 561 417 561 c 0
 394 561 363 568 334 580 c 0
 330 581 326 584 322 585 c 1
 322 585 257 372 224 212 c 0
 221 197 220 185 220 173 c 0
 220 121 247 96 305 96 c 0
 350 96 400 114 439 139 c 1
 451 106 462 74 474 41 c 1
 425 6 353 -9 292 -9 c 0
 165 -9 91 56 91 141 c 0xe8
 91 155 92 169 95 185 c 0
 122 331 201 610 201 610 c 1
 172 605 136 588 136 522 c 1
 17 522 l 1xf0
EndSplineSet
EndChar
StartChar: Eng
Encoding: 330 330 266
Width: 517
VWidth: 0
Flags: HW
HStem: -193 108<136 248> -1 10G<16 20> 531 102<278 383> 634 10G<188 207>
VStem: 105 107<560 618> 393 121<342 519>
LayerCount: 2
Fore
SplineSet
350 633 m 1
 467 633 514 568 514 479 c 0
 514 460 512 441 508 420 c 0
 486 307 466 196 444 81 c 1
 443 76 441 69 440 64 c 1
 416 -61 377 -193 133 -193 c 1
 128 -193 122 -193 117 -193 c 1
 124 -157 131 -121 138 -85 c 1
 277 -85 299 -28 315 52 c 1
 338 174 363 294 386 416 c 1
 390 438 393 457 393 472 c 0
 393 517 372 531 329 531 c 0
 278 531 230 458 206 425 c 1
 179 283 151 142 124 0 c 1
 82 0 42 -1 -0 -1 c 1
 34 172 67 344 101 517 c 1
 104 536 105 552 105 567 c 0
 105 596 101 615 101 615 c 1
 136 625 170 634 205 644 c 1
 209 630 213 618 213 597 c 0
 213 590 212 581 211 572 c 1
 255 609 293 633 350 633 c 1
EndSplineSet
EndChar
StartChar: eng
Encoding: 331 331 267
Width: 517
VWidth: 2
Flags: HW
HStem: -199 107<147 212> 0 10G<12 146> 400 101<262 389> 504 10G<190 210>
VStem: 94 123<453 491> 345 132<290 445>
LayerCount: 2
Fore
SplineSet
216 453 m 1
 248 477 300 501 354 501 c 0
 425 501 477 476 477 414 c 0
 477 406 477 398 475 389 c 1
 458 305 442 220 425 136 c 1
 387 -58 329 -199 127 -199 c 1
 134 -163 140 -128 147 -92 c 1
 252 -92 279 16 294 93 c 1
 310 176 325 258 341 341 c 1
 343 353 345 363 345 372 c 0
 345 390 338 400 316 400 c 0
 285 400 250 381 202 345 c 1
 180 230 157 115 135 0 c 1
 94 0 53 0 12 0 c 1
 34 115 57 230 79 345 c 1
 90 403 94 428 94 451 c 0
 94 463 93 474 92 490 c 1
 131 498 170 506 209 514 c 1
 211 504 216 481 216 460 c 0
 216 453 l 1
EndSplineSet
EndChar
StartChar: OE
Encoding: 338 338 149
Width: 517
VWidth: 0
Flags: HW
HStem: -4 100<152 195 318 445> 314 100<379 463> 550 99<243 284 401 540>
VStem: 12 127<108 331>
LayerCount: 2
Fore
SplineSet
195 97 m 1
 224 248 255 399 284 550 c 1
 231 550 185 464 149 282 c 0
 142 247 139 215 139 188 c 0
 139 131 154 96 186 96 c 0
 194 96 189 97 195 97 c 1
379 101 m 1
 408 102 423 105 446 113 c 1
 450 80 455 49 459 16 c 1
 404 2 343 0 289 -0 c 0
 266 0 242 0 215 0 c 1
 206 -3 159 -4 152 -4 c 0
 46 -2 12 73 12 169 c 0
 12 207 17 250 25 292 c 0
 67 505 143 649 307 649 c 0
 320 649 333 648 345 646 c 1
 374 647 405 647 436 647 c 0
 478 647 519 647 559 647 c 1
 553 615 546 582 540 550 c 1
 495 550 499 551 464 551 c 0
 447 551 428 550 405 550 c 1
 396 505 388 460 379 415 c 1
 413 415 447 415 481 415 c 1
 475 382 467 347 461 314 c 1
 427 314 393 314 359 314 c 1
 340 215 325 140 318 101 c 1
 339 101 358 101 379 101 c 1
EndSplineSet
EndChar
StartChar: oe
Encoding: 339 339 95
Width: 517
VWidth: 2
Flags: HW
HStem: 0 102<114 178 307 376> 396 100<184 231 360 416>
VStem: 10 114<102 282> 417 93<320 393>
LayerCount: 2
Fore
SplineSet
470 106 m 1
 470 106 408 0 309 0 c 0
 264 0 231 19 210 46 c 1
 195 30 163 0 127 0 c 0
 100 0 67 2 36 44 c 0
 15 72 10 110 10 144 c 0
 10 176 16 205 19 224 c 0
 23 246 31 286 41 310 c 1
 63 370 118 497 220 497 c 0
 259 497 274 484 291 466 c 0
 295 462 298 458 300 455 c 1
 315 473 341 497 397 497 c 0
 477 497 510 432 510 369 c 0
 510 301 469 224 316 177 c 1
 305 134 l 1
 309 113 312 102 331 102 c 0
 368 102 377 120 384 142 c 1
 413 130 441 118 470 106 c 1
337 297 m 1
 337 294 335 290 335 287 c 1
 404 315 417 336 417 363 c 0
 417 384 407 395 384 395 c 0
 368 395 354 382 337 297 c 1
144 102 m 0
 169 102 191 136 196 165 c 1
 208 224 219 282 231 341 c 1
 231 344 233 352 233 360 c 0
 233 377 228 396 205 396 c 0
 191 396 152 335 131 231 c 0
 130 223 l 0
 127 204 124 180 124 159 c 0
 124 128 129 102 144 102 c 0
EndSplineSet
EndChar
StartChar: Scedilla
Encoding: 350 350 284
Width: 517
VWidth: 15
Flags: HW
HStem: -219 84<118 227> -83 181<163 229> -1 99<266 307> 546 103<237 361>
VStem: 11 131<116 205> 80 134<436 524> 229 109<-132 -85> 352 130<140 259>
LayerCount: 2
Fore
SplineSet
143 343 m 0xbb
 104 363 80 395 80 448 c 0
 80 461 81 475 84 491 c 0
 105 598 194 648 319 648 c 0
 323 648 l 0
 440 648 529 608 535 526 c 1
 487 509 440 494 392 477 c 1
 379 526 340 546 306 546 c 0
 264 546 222 528 215 495 c 0
 214 488 213 482 213 477 c 0
 213 444 235 434 257 425 c 0
 313 402 346 397 405 367 c 1
 445 346 481 306 481 237 c 0
 481 223 480 209 477 193 c 0
 454 69 368 14 271 -0 c 1
 269 -9 264 -34 264 -35 c 1
 306 -37 338 -59 338 -102 c 0
 338 -108 337 -114 336 -121 c 0
 323 -184 262 -219 185 -219 c 0
 153 -219 109 -211 85 -193 c 1
 100 -169 113 -145 128 -121 c 1
 143 -130 163 -135 188 -135 c 0
 206 -135 224 -130 229 -111 c 1
 229 -110 l 1
 229 -109 229 -106 229 -105 c 0
 229 -93 220 -83 199 -83 c 0xd7
 176 -83 160 -84 145 -89 c 1
 151 -60 157 -30 163 -1 c 1
 53 15 11 77 11 155 c 0
 11 172 14 188 17 206 c 1
 60 206 103 205 146 205 c 1
 144 192 142 181 142 171 c 0
 142 123 169 98 230 98 c 0
 283 98 336 116 350 187 c 0
 351 194 352 201 352 207 c 0
 352 247 325 269 295 284 c 0
 243 309 202 313 143 343 c 0xbb
EndSplineSet
EndChar
StartChar: scedilla
Encoding: 351 351 285
Width: 517
VWidth: 15
Flags: HW
HStem: -225 84<100 209> 405 98<219 349>
VStem: 22 125<98 161> 89 124<343 398> 210 109<-138 -90> 308 125<111 201>
LayerCount: 2
Fore
SplineSet
137 268 m 0xe4
 108 284 89 313 89 353 c 0
 89 362 90 371 92 381 c 0
 110 472 209 502 294 502 c 0
 362 502 436 495 478 436 c 1
 444 410 410 382 376 356 c 1
 355 384 323 405 276 405 c 0
 236 405 219 394 215 375 c 0
 214 371 213 367 213 364 c 0
 213 356 216 348 225 342 c 1
 329 296 433 277 433 173 c 0xd4
 433 161 431 150 429 136 c 0
 414 57 335 13 280 0 c 0
 271 -2 262 -4 252 -5 c 1
 250 -18 l 0
 248 -28 246 -39 246 -40 c 1
 287 -42 320 -64 320 -107 c 0
 320 -113 319 -119 318 -126 c 0
 305 -189 243 -225 166 -225 c 0
 134 -225 90 -216 66 -198 c 1
 81 -174 95 -150 110 -126 c 1
 125 -135 145 -141 170 -141 c 0
 188 -141 205 -136 210 -117 c 1
 210 -116 l 1xc8
 210 -114 211 -111 211 -110 c 0
 211 -98 202 -88 181 -88 c 0
 158 -88 141 -90 126 -95 c 1
 132 -65 138 -36 144 -6 c 1
 65 7 22 55 22 124 c 0
 22 136 24 148 26 161 c 1
 67 161 108 161 149 161 c 1
 147 152 147 144 147 137 c 0
 147 102 168 89 212 89 c 0
 241 89 299 99 306 142 c 0
 307 148 308 154 308 159 c 0
 308 178 300 190 284 203 c 1
 255 224 178 246 137 268 c 0xe4
EndSplineSet
EndChar
StartChar: Tcommaaccent
Encoding: 354 354 288
Width: 517
VWidth: 15
Flags: HW
HStem: -219 84<102 211> 546 101<107 243 366 513 513 525>
VStem: 212 109<-132 -84>
LayerCount: 2
Fore
SplineSet
136 -4 m 1
 172 180 207 362 243 546 c 1
 146 546 125 545 88 545 c 1
 94 579 102 612 108 646 c 1
 168 646 389 647 481 647 c 0
 517 647 550 642 561 639 c 1
 545 606 529 573 513 540 c 1
 513 540 488 546 459 546 c 1
 429 546 400 546 370 546 c 1
 334 362 299 180 263 -4 c 1
 260 -4 256 -4 253 -4 c 1
 251 -14 247 -33 247 -34 c 1
 289 -36 322 -59 322 -102 c 0
 322 -108 321 -113 320 -120 c 0
 307 -183 245 -219 168 -219 c 0
 136 -219 92 -211 68 -193 c 1
 83 -169 97 -145 112 -121 c 1
 127 -130 147 -135 172 -135 c 0
 190 -135 207 -130 212 -111 c 1
 212 -110 l 1
 212 -108 213 -105 213 -104 c 0
 213 -92 204 -83 183 -83 c 0
 160 -83 144 -84 129 -89 c 1
 134 -61 140 -32 145 -4 c 1
 142 -4 139 -4 136 -4 c 1
EndSplineSet
EndChar
StartChar: tcommaaccent
Encoding: 355 355 289
Width: 517
VWidth: 15
Flags: HW
HStem: -217 84<127 236> -2 98<274 336> 396 100<75 111 255 421>
VStem: 59 127<106 255> 238 109<-130 -83>
LayerCount: 2
Fore
SplineSet
194 212 m 1
 193 206 191 199 190 193 c 1
 187 178 186 165 186 154 c 0
 186 118 202 103 232 98 c 0
 240 97 257 96 263 96 c 0
 295 96 310 102 324 109 c 0
 352 123 365 157 370 166 c 1
 401 150 430 133 461 117 c 1
 454 103 417 49 356 17 c 0
 333 5 308 0 279 -2 c 1
 277 -12 272 -32 272 -33 c 1
 314 -35 347 -57 347 -100 c 0
 347 -106 346 -112 345 -119 c 0
 332 -182 270 -217 193 -217 c 0
 161 -217 118 -209 94 -191 c 1
 109 -167 122 -143 137 -119 c 1
 152 -128 172 -133 197 -133 c 0
 215 -133 232 -128 237 -109 c 1
 238 -108 l 1
 238 -106 238 -104 238 -103 c 0
 238 -91 229 -81 208 -81 c 0
 185 -81 169 -82 154 -87 c 1
 160 -58 165 -28 171 1 c 1
 118 9 78 29 64 80 c 0
 60 94 59 109 59 124 c 0
 59 146 62 169 67 194 c 1
 68 201 71 208 72 215 c 1
 81 259 93 316 111 396 c 1
 109 396 106 396 104 396 c 1
 90 396 76 394 63 391 c 1
 66 424 71 457 74 490 c 1
 87 494 109 496 125 496 c 1
 127 496 130 496 132 496 c 1
 139 530 148 576 155 610 c 1
 196 609 236 608 277 607 c 1
 271 575 262 531 255 498 c 1
 308 498 438 496 442 496 c 1
 435 463 428 429 421 396 c 1
 354 396 299 397 234 397 c 1
 215 315 205 261 194 212 c 1
EndSplineSet
EndChar
StartChar: tcaron
Encoding: 357 357 291
Width: 517
VWidth: 15
Flags: HW
HStem: -3 99<228 361> 393 100<254 463>
VStem: 86 124<112 231>
LayerCount: 2
Fore
SplineSet
463 721 m 1
 448 665 439 610 422 535 c 1
 331 545 l 1
 338 616 348 687 356 738 c 1
 463 721 l 1
EndSplineSet
Refer: 19 116 N 1 0 0 1 0 0 2
EndChar
StartChar: Tbar
Encoding: 358 358 292
Width: 517
VWidth: 0
Flags: HW
HStem: -4 10G<136 271> 246 106<93 185 332 415> 546 101<107 243 365 513 513 525>
LayerCount: 2
Fore
SplineSet
185 246 m 1
 148 246 111 246 74 246 c 1
 81 281 87 317 94 352 c 1
 131 352 168 352 205 352 c 1
 218 416 230 482 243 546 c 1
 146 546 125 545 88 545 c 1
 94 579 102 612 108 646 c 1
 168 646 389 647 481 647 c 0
 517 647 550 642 561 639 c 1
 545 606 529 573 513 540 c 1
 513 540 488 546 459 546 c 1
 429 546 400 546 370 546 c 1
 357 482 345 416 332 352 c 1
 366 352 400 352 434 352 c 1
 427 317 421 281 414 246 c 1
 380 246 346 246 312 246 c 1
 296 163 279 79 263 -4 c 1
 221 -4 178 -4 136 -4 c 1
 152 79 169 163 185 246 c 1
EndSplineSet
EndChar
StartChar: tbar
Encoding: 359 359 293
Width: 517
VWidth: 0
Flags: HW
HStem: -3 99<236 377> 211 100<32 111 256 355> 393 100<274 483>
VStem: 99 127<105 211>
LayerCount: 2
Fore
SplineSet
234 211 m 1
 233 205 232 199 231 193 c 1
 228 178 227 165 227 154 c 0
 227 118 242 102 272 98 c 0
 281 97 298 96 304 96 c 0
 336 96 351 102 365 109 c 0
 393 123 405 156 410 166 c 1
 441 150 471 133 502 117 c 1
 495 103 458 49 397 18 c 0
 365 1 328 -3 286 -3 c 0
 196 -3 125 8 105 80 c 0
 101 94 99 109 99 124 c 0
 99 146 103 169 108 194 c 1
 109 200 110 205 111 211 c 1
 79 211 46 211 14 211 c 1
 20 244 28 279 34 312 c 1
 67 312 100 312 133 312 c 1
 138 336 144 362 151 393 c 1
 149 393 146 393 144 393 c 1
 130 393 117 391 103 387 c 1
 107 420 110 454 114 487 c 1
 127 491 149 493 165 493 c 1
 167 493 170 493 172 493 c 1
 179 527 189 576 196 610 c 1
 237 609 277 608 318 607 c 1
 312 575 302 528 295 495 c 1
 348 495 500 493 504 493 c 1
 497 460 490 426 483 393 c 1
 416 393 339 394 274 394 c 1
 267 363 261 336 256 312 c 1
 295 312 334 312 373 312 c 1
 367 279 360 244 354 211 c 1
 314 211 274 211 234 211 c 1
EndSplineSet
EndChar
StartChar: Uogonek
Encoding: 370 370 304
Width: 517
VWidth: 15
Flags: HW
HStem: -246 96<188 304> 649 0G<115 250 428 454>
VStem: 35 128<110 325> 63 125<-187 -86 234 458> 434 121<577 646>
LayerCount: 2
Fore
SplineSet
434 659 m 1xe8
 475 655 514 650 555 646 c 1
 547 622 543 604 539 583 c 0
 538 579 537 574 536 569 c 0
 522 497 511 433 500 378 c 1
 498 368 497 360 495 350 c 1
 473 234 448 123 381 59 c 0
 296 -23 203 -65 188 -122 c 0
 188 -123 188 -125 188 -126 c 0
 188 -144 213 -150 242 -150 c 0
 270 -150 292 -136 309 -125 c 1
 325 -148 340 -171 356 -194 c 1
 330 -217 267 -246 218 -246 c 0
 137 -246 63 -223 63 -151 c 0xd8
 63 -143 64 -135 66 -126 c 0
 77 -71 112 -44 165 -3 c 1
 69 8 35 63 35 154 c 0
 35 175 37 198 40 223 c 0
 45 261 56 321 69 388 c 0
 86 473 106 570 124 649 c 1
 166 649 208 649 250 649 c 1
 232 567 208 455 190 363 c 0
 185 339 181 315 177 294 c 0
 171 263 166 237 165 219 c 0
 165 207 164 193 164 179 c 0
 164 139 172 99 222 98 c 1
 321 102 343 211 370 351 c 0
 382 413 393 485 410 569 c 0
 417 604 423 628 434 659 c 1xe8
EndSplineSet
EndChar
StartChar: uogonek
Encoding: 371 371 305
Width: 517
VWidth: 15
Flags: HW
HStem: -246 96<226 342> 1 100<140 261> 488 10G<175 195 368 503>
VStem: 8 128<104 208> 72 123<343 484> 102 125<-187 -95>
LayerCount: 2
Fore
SplineSet
342 53 m 1xe4
 298 15 231 2 157 1 c 1
 156 1 154 1 153 1 c 1
 85 1 8 22 8 91 c 0xf0
 8 97 9 105 10 112 c 0
 18 152 27 199 36 246 c 0
 55 342 72 438 72 475 c 0
 72 478 72 482 72 484 c 1
 113 488 154 494 195 498 c 1
 195 493 l 0xe8
 195 444 169 319 136 146 c 1
 136 143 l 0xf0
 136 113 144 101 184 101 c 1
 259 104 308 142 320 204 c 1
 339 302 358 401 377 499 c 1
 419 499 461 499 503 499 c 1
 480 383 458 265 435 149 c 1
 435 147 434 146 434 144 c 0
 434 120 458 91 479 81 c 1
 342 -76 240 -73 227 -122 c 0
 227 -123 226 -125 226 -126 c 0
 226 -144 251 -150 280 -150 c 0
 308 -150 330 -136 347 -125 c 1
 363 -148 379 -171 395 -194 c 1
 369 -217 305 -246 256 -246 c 0
 175 -246 102 -223 102 -151 c 0
 102 -143 102 -135 104 -126 c 0
 124 -30 255 -35 342 53 c 1xe4
EndSplineSet
EndChar
StartChar: longs
Encoding: 383 383 317
Width: 517
VWidth: 0
Flags: HW
HStem: 0 10G<122 263> 394 100<122 198> 594 98<370 494>
LayerCount: 2
Fore
SplineSet
492 589 m 1
 480 593 451 594 432 594 c 0
 368 594 356 558 350 529 c 0
 348 516 343 494 343 494 c 1
 311 329 279 165 247 0 c 1
 205 0 164 0 122 0 c 1
 147 131 173 263 198 394 c 1
 167 394 135 394 104 394 c 1
 110 427 118 461 124 494 c 1
 155 494 187 494 218 494 c 1
 219 502 221 511 223 520 c 0
 236 583 289 692 443 692 c 0
 473 692 511 691 533 686 c 1
 519 654 506 621 492 589 c 1
EndSplineSet
EndChar
StartChar: uni0180
Encoding: 384 384 975
Width: 517
VWidth: 0
Flags: HW
HStem: -3 88<235 322> 397 98<276 369> 545 100<88 154 291 379> 680 10G<275 294>
VStem: 170 121<645 685> 384 125<185 383>
LayerCount: 2
Fore
SplineSet
375 233 m 0
 381 266 384 293 384 314 c 0
 384 377 360 397 326 397 c 0
 291 397 254 360 233 333 c 1
 222 279 212 224 201 170 c 1
 216 120 244 84 274 84 c 0
 327 84 357 140 375 233 c 0
498 224 m 0
 469 74 396 -3 273 -3 c 0
 212 -3 179 19 165 45 c 1
 161 24 133 -6 133 -6 c 1
 102 -3 71 0 40 3 c 1
 51 35 62 79 71 119 c 0
 72 123 73 126 74 130 c 0
 99 245 128 411 154 545 c 1
 126 545 97 545 69 545 c 1
 75 578 83 612 89 645 c 1
 116 645 143 645 170 645 c 1
 172 660 173 673 174 685 c 1
 215 686 254 688 295 689 c 1
 294 675 293 661 291 645 c 1
 327 645 361 645 397 645 c 1
 391 612 384 578 378 545 c 1
 343 545 309 545 274 545 c 1
 266 511 259 486 245 454 c 1
 266 468 306 495 362 495 c 0
 464 495 510 442 510 336 c 0
 510 304 506 266 498 224 c 0
EndSplineSet
EndChar
StartChar: uni0190
Encoding: 400 400 428
Width: 517
VWidth: 0
Flags: HW
HStem: 0 91<159 344> 308 100<248 331> 499 10G<470 497> 541 92<255 448>
VStem: 14 125<111 244> 98 125<433 511>
LayerCount: 2
Fore
SplineSet
462 77 m 1xf8
 422 51 343 0 217 0 c 0
 128 0 86 17 53 52 c 0
 25 82 14 117 14 153 c 0xf8
 14 165 16 177 18 190 c 0
 35 277 88 338 166 356 c 1
 123 371 98 413 98 457 c 0
 98 465 100 473 101 481 c 0
 119 576 215 633 357 633 c 1
 359 633 362 633 364 633 c 1
 478 633 524 603 556 583 c 1
 533 555 508 527 485 499 c 1
 454 520 411 541 340 541 c 0
 281 541 232 518 224 481 c 0
 223 477 223 473 223 470 c 0xf4
 223 424 288 408 338 408 c 1
 339 408 339 408 340 408 c 1
 343 408 346 408 349 408 c 1
 343 374 336 341 330 307 c 1
 317 307 305 308 292 308 c 0
 198 308 158 268 142 189 c 0
 140 179 139 171 139 162 c 0
 139 121 162 91 235 91 c 0
 328 91 389 133 418 155 c 1
 433 129 447 103 462 77 c 1xf8
EndSplineSet
EndChar
StartChar: uni0191
Encoding: 401 401 339
Width: 517
VWidth: 0
Flags: HW
HStem: -148 129<-41 20> 313 105<240 380> 544 102<265 519>
LayerCount: 2
Fore
SplineSet
168 38 m 1
 147 -53 96 -148 -66 -148 c 1
 -58 -105 -49 -62 -41 -19 c 1
 10 -19 27 -3 40 42 c 1
 79 244 118 444 157 646 c 1
 268 646 380 646 491 646 c 1
 541 646 562 638 577 630 c 1
 558 597 538 564 519 531 c 1
 508 538 499 544 451 544 c 1
 439 544 428 544 416 544 c 1
 365 544 354 544 265 544 c 1
 257 502 248 460 240 418 c 1
 299 418 280 419 340 419 c 0
 384 419 415 410 433 401 c 1
 415 368 398 336 380 303 c 1
 363 311 340 313 318 313 c 0
 276 313 l 0
 261 313 251 313 219 312 c 1
 209 263 183 115 168 38 c 1
EndSplineSet
EndChar
StartChar: florin
Encoding: 402 402 340
Width: 517
VWidth: 0
Flags: HW
HStem: -166 119<-0 69> 394 100<130 181 326 459> 594 98<353 458>
LayerCount: 2
Fore
SplineSet
241 62 m 1
 216 -58 133 -166 -23 -166 c 1
 -15 -126 -7 -87 1 -47 c 1
 70 -47 99 -15 117 67 c 1
 138 176 160 285 181 394 c 1
 158 394 134 394 111 394 c 1
 117 427 125 461 131 494 c 1
 154 494 177 494 200 494 c 1
 201 502 203 511 205 520 c 0
 218 583 271 692 425 692 c 0
 521 692 556 668 579 592 c 1
 541 576 504 561 466 545 c 1
 461 585 445 594 415 594 c 0
 351 594 338 558 332 529 c 0
 330 516 326 494 326 494 c 1
 416 494 l 0
 467 494 486 488 500 484 c 1
 486 452 473 420 459 388 c 1
 449 391 440 394 413 394 c 1
 377 394 342 394 306 394 c 1
 285 283 262 173 241 62 c 1
EndSplineSet
EndChar
StartChar: uni01A4
Encoding: 420 420 972
Width: 517
VWidth: 0
Flags: HW
HStem: -0 10G<122 249> 215 105<304 366> 538 104<189 227 347 407>
VStem: 59 109<453 513> 417 124<376 529>
LayerCount: 2
Fore
SplineSet
417 480 m 0
 417 532 387 540 347 540 c 1
 339 498 l 2
 321 409 304 320 304 320 c 1
 366 320 417 365 417 480 c 0
241 -0 m 1
 122 0 l 1
 227 538 l 1
 196 536 181 520 168 453 c 1
 59 453 l 1
 94 634 175 642 350 642 c 0
 470 642 542 593 542 488 c 0
 542 293 446 215 335 215 c 0
 312 215 304 215 284 216 c 1
 259 88 256 76 241 -0 c 1
EndSplineSet
EndChar
StartChar: uni01EA
Encoding: 490 490 725
Width: 517
VWidth: 0
Flags: HW
HStem: -247 96<170 285> 560 99<270 369>
VStem: 25 128<112 330> 45 125<-188 -95> 391 125<291 538>
LayerCount: 2
Fore
SplineSet
346 659 m 1xe8
 411 659 517 635 517 448 c 0
 517 411 512 367 503 316 c 1
 503 314 502 313 502 311 c 1
 486 229 455 152 423 106 c 1
 333 -30 183 -75 170 -124 c 0
 170 -125 169 -126 169 -127 c 0
 169 -145 194 -151 223 -151 c 0
 251 -151 274 -137 291 -126 c 1
 307 -149 322 -172 338 -195 c 1
 312 -218 249 -247 200 -247 c 0
 119 -247 45 -224 45 -152 c 0xd8
 45 -144 45 -137 47 -128 c 0
 56 -82 122 -47 186 -7 c 1
 133 -2 79 19 53 62 c 0
 33 94 25 134 25 179 c 0
 25 211 29 246 36 283 c 0
 70 455 114 533 157 580 c 0
 198 625 269 658 346 659 c 1xe8
161 135 m 0
 177 99 194 91 230 91 c 0
 269 91 299 121 321 159 c 1
 340 188 365 264 375 312 c 1
 375 315 376 318 376 321 c 1
 383 359 391 408 391 450 c 0
 391 466 390 480 388 493 c 0
 378 545 356 560 327 560 c 0
 295 560 274 548 248 513 c 0
 217 472 188 408 165 289 c 0
 159 260 153 221 153 188 c 0xe8
 153 167 156 147 161 135 c 0
EndSplineSet
EndChar
StartChar: uni01EB
Encoding: 491 491 726
Width: 517
VWidth: 0
Flags: HW
HStem: -246 96<148 264> 405 99<234 342>
VStem: 23 125<-188 -92> 35 127<115 284> 356 126<208 393>
LayerCount: 2
Fore
SplineSet
372 56 m 1xd8
 254 -52 161 -74 148 -123 c 0
 148 -124 148 -125 148 -126 c 0
 148 -144 173 -150 202 -150 c 0
 230 -150 252 -136 269 -125 c 1
 285 -148 300 -171 316 -194 c 1
 290 -217 227 -246 178 -246 c 0
 97 -246 23 -223 23 -151 c 0xe8
 23 -144 24 -136 25 -127 c 0
 36 -64 94 -45 167 0 c 1
 75 13 35 72 35 157 c 0
 35 178 37 202 42 227 c 0
 77 408 165 504 308 504 c 0
 404 504 452 470 473 406 c 0
 479 387 482 363 482 339 c 0
 482 314 480 289 475 265 c 0
 459 184 427 107 372 56 c 1xd8
292 121 m 1
 320 146 337 197 348 259 c 0
 348 262 350 264 350 267 c 0
 354 289 356 309 356 328 c 0
 356 374 341 405 296 405 c 0
 222 405 187 337 167 235 c 0
 164 217 162 200 162 185 c 0xd8
 162 131 184 96 230 96 c 1
 257 96 271 103 292 121 c 1
EndSplineSet
EndChar
StartChar: Aringacute
Encoding: 506 506 458
Width: 517
VWidth: 0
Flags: HW
HStem: 0 10G<-34 96 338 475> 137 109<200 329> 637 10G<247 415> 684 64<330 409> 809 69<334 413>
VStem: 235 93<751 802> 414 94<756 807> 568 105<792 844>
LayerCount: 2
Fore
SplineSet
475 633 m 1
 518 698 549 787 568 870 c 1
 598 859 644 853 674 842 c 1
 657 759 598 642 555 578 c 1
 530 594 500 617 475 633 c 1
EndSplineSet
Refer: 76 197 N 1 0 0 1 0 0 3
EndChar
StartChar: aringacute
Encoding: 507 507 459
Width: 517
VWidth: 0
Flags: HW
HStem: -15 10G<380 403> -5 98<125 251> 400 102<228 335> 579 64<323 401> 704 69<327 405>
VStem: 34 122<96 286> 228 93<646 697> 342 91<39 134> 406 94<651 702> 605 105<801 853>
LayerCount: 2
Fore
SplineSet
512 642 m 1x3e40
 555 707 586 795 605 878 c 1
 635 867 680 862 710 851 c 1
 693 768 634 650 591 586 c 1
 566 602 537 626 512 642 c 1x3e40
EndSplineSet
Refer: 64 229 N 1 0 0 1 0 0 3
EndChar
StartChar: uni0228
Encoding: 552 552 733
Width: 517
VWidth: 0
Flags: HW
HStem: -216 84<131 240> -1 108<164 174 277 444> 344 108<231 385> 595 109<259 532>
VStem: 242 109<-129 -82>
LayerCount: 2
Fore
SplineSet
148 702 m 1
 177 704 212 704 252 704 c 0
 303 704 l 1
 322 704 340 704 359 704 c 1
 435 704 505 703 543 703 c 1
 545 703 549 703 551 703 c 1
 544 667 537 631 530 595 c 1
 440 595 349 595 259 595 c 1
 250 547 240 500 231 452 c 1
 289 452 347 452 405 452 c 1
 398 416 391 380 384 344 c 1
 326 344 268 344 210 344 c 1
 209 339 208 332 207 327 c 1
 186 217 172 149 164 107 c 1
 235 107 306 108 377 108 c 1
 406 108 444 123 444 123 c 1
 449 88 455 52 460 17 c 1
 434 10 410 -1 360 -1 c 1
 334 -1 308 -1 282 -1 c 1
 280 -11 276 -30 276 -31 c 1
 318 -33 351 -56 351 -99 c 0
 351 -105 350 -111 349 -117 c 0
 336 -180 274 -216 197 -216 c 0
 165 -216 122 -208 98 -190 c 1
 113 -166 126 -142 141 -118 c 1
 156 -127 176 -132 201 -132 c 0
 219 -132 237 -127 242 -108 c 1
 242 -107 l 1
 242 -106 242 -103 242 -102 c 0
 242 -90 233 -80 212 -80 c 0
 189 -80 173 -81 158 -86 c 1
 163 -58 169 -29 174 -1 c 1
 120 -1 65 -1 11 -1 c 1
 57 233 102 468 148 702 c 1
EndSplineSet
EndChar
StartChar: uni0229
Encoding: 553 553 734
Width: 517
VWidth: 0
Flags: HW
HStem: -220 84<119 228> 212 96<205 360> 399 99<240 346>
VStem: 47 123<116 196> 229 109<-132 -85> 360 122<308 386>
LayerCount: 2
Fore
SplineSet
190 296 m 1
 247 306 293 308 358 308 c 1
 359 316 360 324 360 331 c 0
 360 378 333 399 295 399 c 0
 245 399 204 353 190 296 c 1
313 499 m 0
 434 499 482 436 482 332 c 0
 482 302 478 269 471 233 c 0
 469 223 466 212 466 212 c 1
 326 210 222 203 170 193 c 1
 170 190 169 187 169 184 c 0
 169 134 193 96 235 96 c 0
 287 96 305 101 343 144 c 1
 371 123 400 102 428 81 c 1
 393 39 349 9 271 -1 c 1
 269 -10 264 -34 264 -35 c 1
 306 -37 339 -59 339 -102 c 0
 339 -108 338 -115 337 -121 c 0
 324 -184 262 -220 185 -220 c 0
 153 -220 109 -211 85 -193 c 1
 100 -169 114 -145 129 -121 c 1
 144 -130 163 -136 188 -136 c 0
 206 -136 224 -130 229 -111 c 1
 229 -110 l 1
 229 -109 230 -106 230 -105 c 0
 230 -93 221 -83 200 -83 c 0
 177 -83 160 -84 145 -89 c 1
 151 -59 157 -30 163 0 c 1
 84 18 47 80 47 170 c 0
 47 195 49 223 55 252 c 0
 83 392 175 499 313 499 c 0
EndSplineSet
EndChar
StartChar: uni0237
Encoding: 567 567 332
Width: 517
VWidth: 0
Flags: HW
HStem: -190 98<117 223> -14 10G<61 91> 407 87<216 318>
VStem: 322 124<262 403>
AnchorPoint: "above_accent" 326 541 basechar 0
LayerCount: 2
Fore
SplineSet
367 -38 m 1
 352 -113 298 -190 158 -190 c 3
 98 -190 25 -176 -17 -76 c 1
 14 -52 46 -28 77 -4 c 1
 105 -75 135 -92 166 -92 c 0
 175 -92 l 3
 234 -92 242 -40 246 -23 c 1
 271 101 296 224 321 348 c 1
 322 353 322 359 322 364 c 0
 322 390 308 407 281 407 c 0
 257 407 222 394 178 360 c 1
 158 382 140 404 120 426 c 1
 195 485 238 495 313 495 c 1
 423 495 446 419 446 378 c 0
 446 372 446 367 445 363 c 1
 419 229 393 96 367 -38 c 1
EndSplineSet
EndChar
StartChar: gravecomb
Encoding: 768 768 322
Width: 517
VWidth: -20
Flags: HW
HStem: 619 220
VStem: 186 274
AnchorPoint: "above_accent" 291 599 mark 0
LayerCount: 2
Fore
SplineSet
460 699 m 1
 410 619 l 1
 345 642 229 704 186 759 c 1
 256 838 l 1
 302 785 395 722 460 699 c 1
EndSplineSet
EndChar
StartChar: acutecomb
Encoding: 769 769 323
Width: 517
VWidth: -20
Flags: HW
HStem: 619 221
VStem: 196 287
AnchorPoint: "above_accent" 295 605 mark 0
LayerCount: 2
Fore
SplineSet
196 713 m 1
 270 736 351 786 417 839 c 1
 434 811 466 778 483 750 c 1
 418 695 299 642 225 619 c 1
 216 647 205 685 196 713 c 1
EndSplineSet
EndChar
StartChar: uni0302
Encoding: 770 770 324
Width: 517
VWidth: -4
Flags: HW
HStem: 611 219
AnchorPoint: "above_accent" 333 595 mark 0
LayerCount: 2
Fore
SplineSet
370 830 m 1
 535 688 l 1
 453 611 l 1
 359 709 l 1
 229 617 l 1
 166 693 l 1
 370 830 l 1
EndSplineSet
EndChar
StartChar: tildecomb
Encoding: 771 771 325
Width: 517
VWidth: -5
Flags: HW
HStem: 672 87<396 473> 687 10G<215 242> 735 88<250 334>
AnchorPoint: "above_accent" 316 638 mark 0
LayerCount: 2
Fore
SplineSet
289 823 m 0x60
 355 823 379 798 398 779 c 0
 409 768 419 759 435 759 c 0
 459 759 475 774 484 808 c 1
 568 781 l 1
 548 734 508 672 429 672 c 0x80
 375 672 347 703 325 722 c 0
 312 733 306 735 285 735 c 0
 264 735 247 718 237 687 c 1
 150 725 l 1
 175 770 220 823 289 823 c 0x60
EndSplineSet
EndChar
StartChar: uni0305
Encoding: 773 773 327
Width: 517
VWidth: -16
Flags: HW
HStem: 712 99<162 531>
AnchorPoint: "above_accent" 323 636 mark 0
LayerCount: 2
Fore
SplineSet
550 810 m 1
 544 777 537 744 531 711 c 1
 402 711 273 712 144 712 c 1
 150 745 158 778 164 811 c 1
 293 811 421 810 550 810 c 1
EndSplineSet
EndChar
StartChar: uni0306
Encoding: 774 774 328
Width: 517
VWidth: -5
Flags: HW
HStem: 647 89<300 421>
AnchorPoint: "above_accent" 325 576 mark 0
LayerCount: 2
Fore
SplineSet
355 736 m 0
 399 736 440 760 457 805 c 1
 561 791 l 1
 533 705 474 647 341 647 c 1
 262 647 174 685 172 795 c 1
 282 810 l 1
 284 753 318 736 355 736 c 0
EndSplineSet
EndChar
StartChar: uni0307
Encoding: 775 775 330
Width: 517
VWidth: -13
Flags: HW
HStem: 696 120<272 391>
VStem: 250 162
AnchorPoint: "above_accent" 300 635 mark 0
LayerCount: 2
Fore
SplineSet
273 816 m 1
 319 816 366 816 412 816 c 1
 405 776 397 736 390 696 c 1
 344 696 296 696 250 696 c 1
 258 736 265 776 273 816 c 1
EndSplineSet
EndChar
StartChar: uni0308
Encoding: 776 776 329
Width: 517
VWidth: -13
Flags: HW
HStem: 578 117<207 320 412 526>
AnchorPoint: "above_accent" 333 513 mark 0
LayerCount: 2
Fore
SplineSet
412 695 m 1
 549 694 l 1
 526 578 l 1
 389 578 l 1
 412 695 l 1
207 695 m 1
 343 695 l 1
 320 578 l 1
 184 578 l 1
 207 695 l 1
EndSplineSet
EndChar
StartChar: uni030A
Encoding: 778 778 331
Width: 517
VWidth: -3
Flags: HW
HStem: 624 64<317 395> 750 69<320 399>
VStem: 222 93<691 743> 400 94<696 748>
AnchorPoint: "above_accent" 333 586 mark 0
LayerCount: 2
Fore
SplineSet
363 750 m 0
 337 750 319 734 315 719 c 0
 315 718 315 716 315 715 c 0
 315 701 329 688 352 688 c 0
 377 688 395 704 399 719 c 0
 399 720 400 723 400 724 c 0
 400 738 386 750 363 750 c 0
223 719 m 0
 234 776 305 819 377 819 c 0
 443 819 494 783 494 734 c 0
 494 729 493 724 492 719 c 0
 481 663 417 624 339 624 c 0
 271 624 222 657 222 705 c 0
 222 709 222 714 223 719 c 0
EndSplineSet
EndChar
StartChar: uni030B
Encoding: 779 779 333
Width: 517
VWidth: -20
Flags: HW
HStem: 558 266
AnchorPoint: "above_accent" 271 537 mark 0
LayerCount: 2
Fore
SplineSet
315 628 m 1
 381 674 453 755 500 824 c 1
 529 803 557 783 586 762 c 1
 541 692 440 604 374 558 c 1
 354 581 335 605 315 628 c 1
129 631 m 1
 195 677 266 759 313 828 c 1
 342 807 370 787 399 766 c 1
 354 696 254 608 188 562 c 1
 168 585 149 608 129 631 c 1
EndSplineSet
EndChar
StartChar: uni030C
Encoding: 780 780 334
Width: 517
VWidth: -4
Flags: HW
HStem: 589 218
AnchorPoint: "above_accent" 327 564 mark 0
LayerCount: 2
Fore
SplineSet
333 589 m 1
 178 734 l 1
 262 801 l 1
 346 709 l 1
 492 807 l 1
 547 722 l 1
 333 589 l 1
EndSplineSet
EndChar
StartChar: uni030F
Encoding: 783 783 335
Width: 517
VWidth: -20
Flags: HW
HStem: 571 266
AnchorPoint: "above_accent" 308 546 mark 0
LayerCount: 2
Fore
SplineSet
370 641 m 1
 341 618 313 594 284 571 c 1
 235 617 170 705 152 775 c 1
 189 796 225 816 262 837 c 1
 283 768 322 687 370 641 c 1
558 645 m 1
 530 622 501 598 473 575 c 1
 424 621 357 709 339 779 c 1
 376 800 413 820 450 841 c 1
 471 772 510 691 558 645 c 1
EndSplineSet
EndChar
StartChar: uni0311
Encoding: 785 785 484
Width: 517
VWidth: -5
Flags: HW
HStem: 663 10G<189 271 435 508> 736 89<297 420>
AnchorPoint: "above_accent" 335 630 mark 0
LayerCount: 2
Fore
SplineSet
360 736 m 0
 323 736 282 720 258 663 c 1
 154 678 l 1
 199 788 271 826 381 826 c 0
 493 826 545 773 545 693 c 0
 545 690 545 686 545 682 c 1
 435 667 l 1
 435 670 436 674 436 676 c 0
 436 710 409 736 360 736 c 0
EndSplineSet
EndChar
StartChar: uni0312
Encoding: 786 786 485
Width: 517
VWidth: -20
Flags: HW
HStem: 604 205
VStem: 225 178
AnchorPoint: "above_accent" 268 564 mark 0
LayerCount: 2
Fore
SplineSet
225 626 m 1
 254 681 278 734 314 808 c 1
 403 792 l 1
 381 723 354 654 334 604 c 1
 225 626 l 1
EndSplineSet
EndChar
StartChar: uni0313
Encoding: 787 787 486
Width: 517
VWidth: 12
Flags: HW
HStem: 537 243
VStem: 279 157
AnchorPoint: "above_accent" 328 539 mark 0
LayerCount: 2
Fore
SplineSet
329 780 m 1
 436 780 l 1
 416 675 l 2
 402 601 361 564 293 537 c 1
 279 599 l 1
 311 613 326 624 335 672 c 1
 308 672 l 1
 329 780 l 1
EndSplineSet
EndChar
StartChar: uni0314
Encoding: 788 788 487
Width: 517
VWidth: 12
Flags: HW
HStem: 537 243<334 373>
VStem: 296 79<589 672>
AnchorPoint: "above_accent" 328 539 mark 0
LayerCount: 2
Fore
SplineSet
428 780 m 1
 407 672 l 1
 379 672 l 1
 377 660 375 651 375 643 c 0
 375 618 386 609 407 599 c 1
 369 537 l 1
 322 559 296 588 296 638 c 0
 296 649 298 662 300 675 c 2
 320 780 l 1
 428 780 l 1
EndSplineSet
EndChar
StartChar: uni0326
Encoding: 806 806 488
Width: 517
VWidth: 12
Flags: HW
HStem: -258 260
VStem: 106 180
AnchorPoint: "cedilla_accent" 217 26 mark 0
LayerCount: 2
Fore
SplineSet
154 2 m 1
 286 2 l 1
 266 -103 l 2
 252 -177 230 -208 159 -258 c 1
 106 -197 l 1
 136 -176 150 -160 161 -106 c 1
 133 -106 l 1
 154 2 l 1
EndSplineSet
EndChar
StartChar: uni0328
Encoding: 808 808 490
Width: 517
VWidth: 15
Flags: HW
HStem: -225 96<163 278>
VStem: 38 125<-166 -73>
LayerCount: 2
Fore
SplineSet
375 52 m 1
 266 -58 173 -51 163 -101 c 0
 163 -102 163 -104 163 -105 c 0
 163 -123 187 -129 216 -129 c 0
 244 -129 267 -115 284 -104 c 1
 331 -173 l 1
 305 -196 242 -225 193 -225 c 0
 112 -225 38 -202 38 -130 c 0
 38 -123 39 -114 40 -105 c 0
 59 -8 175 -19 259 53 c 1
 375 52 l 1
EndSplineSet
EndChar
StartChar: tonos
Encoding: 900 900 392
Width: 517
VWidth: -20
Flags: HW
HStem: 597 222
VStem: 249 220
AnchorPoint: "above_accent" 288 566 mark 0
LayerCount: 2
Fore
SplineSet
249 651 m 1
 307 708 325 743 359 818 c 1
 396 809 432 801 469 792 c 1
 438 717 386 654 328 597 c 1
 302 615 275 633 249 651 c 1
EndSplineSet
EndChar
StartChar: Gamma
Encoding: 915 915 370
Width: 517
VWidth: 0
Flags: HW
HStem: 0 10G<36 178> 546 103<263 528>
LayerCount: 2
Fore
SplineSet
162 648 m 1
 273 648 385 648 496 648 c 1
 533 648 562 640 583 632 c 1
 565 600 547 568 529 536 c 1
 509 543 503 545 475 546 c 1
 406 546 335 546 266 546 c 1
 231 364 195 182 160 0 c 1
 118 0 78 0 36 0 c 1
 78 216 120 432 162 648 c 1
EndSplineSet
EndChar
StartChar: uni0394
Encoding: 916 916 384
Width: 517
VWidth: 0
Flags: HW
HStem: 0 97<133 323> 637 10G<235 409>
LayerCount: 2
Fore
SplineSet
323 97 m 1
 323 156 306 322 306 424 c 0
 306 450 307 472 310 487 c 1
 291 406 166 167 133 97 c 1
 196 97 260 97 323 97 c 1
36 0 m 1
 12 6 -14 13 -38 19 c 1
 71 228 181 438 290 647 c 1
 326 647 362 647 398 647 c 1
 419 438 440 230 461 21 c 1
 438 14 414 7 391 0 c 1
 273 0 154 0 36 0 c 1
EndSplineSet
EndChar
StartChar: Theta
Encoding: 920 920 374
Width: 517
VWidth: 0
Flags: HW
HStem: -8 99<183 285> 300 99<226 359> 560 99<290 383>
VStem: 26 133<115 328> 405 130<291 537>
LayerCount: 2
Fore
SplineSet
359 659 m 1
 427 659 535 635 535 448 c 0
 535 411 531 367 521 316 c 1
 521 314 520 313 520 311 c 1
 504 229 472 152 438 106 c 0
 386 34 302 -8 219 -8 c 0
 157 -8 86 12 55 62 c 0
 35 94 26 134 26 179 c 0
 26 211 31 246 38 283 c 0
 72 455 119 533 164 580 c 0
 206 625 280 658 359 659 c 1
239 91 m 0
 308 91 370 226 388 312 c 1
 388 315 390 318 390 321 c 1
 397 355 405 403 405 447 c 0
 405 507 390 560 339 560 c 0
 269 560 198 424 171 289 c 0
 165 257 159 223 159 193 c 0
 159 136 178 91 239 91 c 0
228 399 m 1
 280 399 333 399 385 399 c 1
 376 366 366 333 357 300 c 1
 305 300 252 300 200 300 c 1
 209 333 219 366 228 399 c 1
EndSplineSet
EndChar
StartChar: Lambda
Encoding: 923 923 385
Width: 517
VWidth: 0
Flags: HW
HStem: -13 10G<57 95 327 351> 637 10G<235 409>
VStem: 329 132<19 236>
LayerCount: 2
Fore
SplineSet
194 237 m 1
 154 154 116 70 76 -13 c 1
 38 -2 0 8 -38 19 c 1
 71 228 181 438 290 647 c 1
 326 647 362 647 398 647 c 1
 419 438 440 230 461 21 c 1
 417 11 373 0 329 -10 c 1
 325 75 322 161 318 246 c 1
 318 250 l 0
 318 303 306 370 306 431 c 0
 306 451 307 469 310 487 c 1
 291 405 226 305 194 237 c 1
EndSplineSet
EndChar
StartChar: Xi
Encoding: 926 926 386
Width: 517
VWidth: 0
Flags: HW
HStem: -1 100<27 420> 315 99<195 363> 546 100<134 500>
LayerCount: 2
Back
SplineSet
49.8046875 644.04296875 m 1
 77.1484375 645.99609375 111.328125 645.99609375 149.4140625 645.99609375 c 0
 164.55078125 645.99609375 180.6640625 645.99609375 197.265625 645.99609375 c 2
 250.9765625 645.99609375 l 2
 323.73046875 645.99609375 390.13671875 644.53125 426.26953125 644.53125 c 2
 434.08203125 644.53125 l 1
 434.08203125 545.8984375 l 1
 175.78125 545.8984375 l 1
 175.78125 414.55078125 l 1
 340.8203125 414.55078125 l 1
 340.8203125 315.4296875 l 1
 175.78125 315.4296875 l 1
 175.78125 300.29296875 l 2
 175.78125 199.21875 174.8046875 136.71875 174.8046875 98.14453125 c 1
 377.9296875 99.12109375 l 2
 405.2734375 99.12109375 438.96484375 112.3046875 438.96484375 112.3046875 c 1
 474.12109375 15.13671875 l 1
 450.68359375 8.7890625 430.6640625 -1.46484375 382.8125 -1.46484375 c 2
 49.8046875 -1.46484375 l 1
 49.8046875 644.04296875 l 1
EndSplineSet
Fore
SplineSet
196 415 m 1
 258 415 318 415 380 415 c 1
 374 382 367 348 361 315 c 1
 299 315 239 315 177 315 c 1
 183 348 190 382 196 415 c 1
134 644 m 1
 162 646 196 646 234 646 c 0
 282 646 l 1
 300 646 318 646 336 646 c 1
 409 646 475 645 511 645 c 1
 513 645 517 645 519 645 c 1
 513 612 505 579 499 546 c 1
 371 546 241 546 113 546 c 1
 120 579 127 611 134 644 c 1
28 98 m 1
 137 98 247 99 356 99 c 1
 383 99 420 112 420 112 c 1
 425 80 432 47 437 15 c 1
 412 9 389 -1 341 -1 c 1
 230 -1 119 -1 8 -1 c 1
 14 32 22 65 28 98 c 1
EndSplineSet
EndChar
StartChar: Pi
Encoding: 928 928 387
Width: 517
VWidth: 0
Flags: HW
HStem: 0 10G<27 169 295 314> 537 96<254 385 506 561>
VStem: 294 124<4 179>
LayerCount: 2
Fore
SplineSet
151 0 m 1
 109 0 69 0 27 0 c 1
 61 177 96 354 130 531 c 1
 115 529 101 526 86 523 c 1
 85 555 85 586 84 618 c 1
 131 628 189 633 248 633 c 1
 358 633 468 633 578 633 c 1
 572 601 566 569 560 537 c 1
 543 537 526 537 509 537 c 1
 486 419 463 303 440 185 c 1
 428 123 421 61 417 4 c 1
 376 2 335 0 294 -2 c 1
 296 57 305 125 317 188 c 1
 339 305 363 420 385 537 c 1
 362 537 338 537 315 537 c 1
 294 537 276 537 257 537 c 1
 222 358 186 179 151 0 c 1
EndSplineSet
EndChar
StartChar: Sigma
Encoding: 931 931 388
Width: 517
VWidth: 0
Flags: HW
HStem: -1 101<191 442> 546 100<275 523>
LayerCount: 2
Fore
SplineSet
287 321 m 1
 225 399 162 476 100 554 c 1
 125 585 150 615 175 646 c 1
 186 647 195 646 204 646 c 0
 218 646 233 646 256 646 c 0
 304 646 l 1
 322 646 340 646 358 646 c 1
 430 646 497 645 534 645 c 1
 536 645 539 645 541 645 c 1
 535 612 527 579 521 546 c 1
 439 546 357 546 275 546 c 1
 326 482 377 418 428 354 c 1
 422 328 416 302 410 276 c 1
 337 216 264 158 191 98 c 1
 253 98 317 99 379 99 c 0
 406 99 442 112 442 112 c 1
 447 80 454 47 459 15 c 1
 434 9 412 -1 364 -1 c 1
 259 -1 154 0 49 0 c 1
 36 30 23 59 10 89 c 1
 102 166 195 244 287 321 c 1
EndSplineSet
EndChar
StartChar: Phi
Encoding: 934 934 389
Width: 517
VWidth: 0
Flags: HW
HStem: 0 10G<255 283> 690 10G<276 416>
VStem: 26 115<219 384> 428 115<296 480>
LayerCount: 2
Fore
SplineSet
181 205 m 1
 200 300 217 395 236 490 c 1
 233 488 231 486 228 484 c 0
 192 455 162 410 145 327 c 0
 143 317 142 305 142 293 c 0
 142 266 148 238 162 221 c 0
 167 215 174 209 181 205 c 1
320 201 m 1
 339 210 356 222 369 236 c 1
 390 256 415 309 422 343 c 1
 422 345 423 347 423 349 c 1
 426 364 428 381 428 399 c 0
 428 423 424 448 414 467 c 0
 405 485 392 497 378 505 c 1
 362 422 349 350 325 225 c 1
 324 217 321 209 320 201 c 1
162 104 m 1
 124 112 90 127 69 150 c 0
 41 181 26 223 26 270 c 0
 26 286 29 302 32 320 c 0
 58 452 108 512 151 549 c 0
 176 570 214 589 258 600 c 1
 261 617 265 634 268 651 c 1
 271 668 274 683 277 700 c 1
 323 700 370 700 416 700 c 1
 411 674 406 649 401 623 c 1
 400 617 398 611 397 606 c 1
 465 594 542 554 542 425 c 0
 542 402 540 375 535 346 c 1
 535 345 534 343 534 342 c 1
 522 279 487 220 456 184 c 0
 419 142 363 114 301 102 c 1
 294 66 288 40 278 0 c 1
 232 0 185 0 139 0 c 1
 147 33 153 56 158 85 c 0
 159 91 161 97 162 104 c 1
EndSplineSet
EndChar
StartChar: Psi
Encoding: 936 936 390
Width: 517
VWidth: 2
Flags: HW
HStem: 0 10G<171 300> 215 105<190 215 353 413> 648 10G<204 225 400 417 583 602>
VStem: 61 123<328 498> 100 125<496 645> 477 127<504 646>
LayerCount: 2
Fore
SplineSet
65 410 m 0xf4
 71 442 78 472 83 499 c 0
 99 579 100 592 100 629 c 0
 100 635 99 640 99 644 c 1
 141 649 183 653 225 658 c 1
 225 651 l 0xec
 225 613 223 600 206 513 c 0
 201 488 200 481 194 451 c 0
 188 421 184 395 184 374 c 0
 184 340 196 320 237 320 c 1
 261 437 273 498 294 602 c 1
 297 619 301 634 304 651 c 1
 343 651 380 652 419 652 c 1
 414 626 409 601 404 575 c 1
 385 479 376 433 353 320 c 1
 419 320 423 332 456 502 c 1
 465 551 473 604 477 646 c 1
 519 649 562 651 604 654 c 1
 601 611 592 557 585 522 c 0
 584 515 583 509 582 504 c 0
 547 317 523 216 338 216 c 1
 322 141 307 67 292 0 c 1
 251 0 212 0 171 0 c 1
 179 33 196 117 202 146 c 0
 206 168 211 192 215 215 c 1
 104 215 61 282 61 362 c 0
 61 378 62 394 65 410 c 0xf4
EndSplineSet
EndChar
StartChar: uni03A9
Encoding: 937 937 391
Width: 517
VWidth: 0
Flags: HW
HStem: 0 105<-4 83 387 490> 566 106<286 406>
VStem: 27 131<174 393> 434 126<297 536>
LayerCount: 2
Fore
SplineSet
161 0 m 1
 100 0 39 0 -22 0 c 1
 -16 35 -9 71 -3 106 c 1
 25 106 55 106 83 106 c 1
 54 156 27 210 27 277 c 0
 27 294 28 311 32 330 c 0
 80 569 209 672 363 672 c 0
 463 672 560 607 560 461 c 0
 560 258 491 181 387 106 c 1
 401 106 414 106 428 106 c 1
 457 106 491 120 491 120 c 1
 491 85 493 51 493 16 c 1
 468 9 448 0 411 0 c 0
 408 0 l 1
 362 0 317 0 271 0 c 1
 270 34 269 69 268 103 c 1
 369 167 434 259 434 466 c 0
 434 542 393 566 344 566 c 0
 279 566 193 479 164 333 c 0
 160 313 158 294 158 274 c 0
 158 192 188 118 209 105 c 1
 193 70 177 35 161 0 c 1
EndSplineSet
EndChar
StartChar: alpha
Encoding: 945 945 341
Width: 517
VWidth: 1
Flags: HW
HStem: -16 10G<384 425> -3 101<166 228> 398 99<214 276> 497 10G<439 469>
VStem: 30 124<106 305>
AnchorPoint: "above_accent" 323 541 basechar 0
LayerCount: 2
Fore
SplineSet
425 241 m 1xd8
 429 203 428 175 434 128 c 0
 438 100 451 88 481 75 c 1
 459 45 436 14 414 -16 c 1
 354 0 335 43 332 72 c 0
 331 83 329 94 328 105 c 1
 282 33 240 -3 176 -3 c 0
 68 -3 30 74 30 169 c 0
 30 197 33 227 39 257 c 0
 74 436 179 497 264 497 c 0xe8
 345 497 377 451 386 375 c 1
 410 423 427 461 453 506 c 1
 487 495 519 483 553 472 c 1
 509 410 467 323 425 241 c 1xd8
163 256 m 0
 157 224 154 199 154 178 c 0
 154 99 191 97 195 97 c 1
 196 97 198 97 199 97 c 1
 225 97 256 159 292 242 c 1
 290 347 285 398 249 398 c 0
 225 398 183 357 163 256 c 0
EndSplineSet
EndChar
StartChar: beta
Encoding: 946 946 342
Width: 517
VWidth: 0
Flags: HW
HStem: 0 97<222 339> 310 101<240 317> 548 101<243 334>
VStem: -20 114<-139 -60> 344 124<441 539> 372 123<138 272>
LayerCount: 2
Back
SplineSet
32.71484375 489.74609375 m 4xf4
 32.71484375 565.91796875 89.35546875 648.4375 190.4296875 648.4375 c 4
 305.6640625 648.4375 389.6484375 606.93359375 389.6484375 492.67578125 c 5xf4
 389.6484375 432.6171875 367.67578125 397.94921875 327.1484375 380.37109375 c 5
 397.4609375 368.1640625 474.609375 322.75390625 474.609375 186.03515625 c 4
 474.609375 37.109375 412.109375 -0.9765625 304.6875 -0.9765625 c 4
 213.37890625 -0.9765625 182.12890625 46.38671875 182.12890625 145.5078125 c 4
 182.12890625 149.4140625 182.6171875 153.3203125 182.6171875 157.2265625 c 5
 282.2265625 156.25 l 5
 282.2265625 125.48828125 284.66796875 97.16796875 315.4296875 97.16796875 c 4
 341.796875 97.16796875 355.46875 120.60546875 355.46875 192.87109375 c 4xfa
 355.46875 246.09375 324.21875 309.5703125 183.59375 309.5703125 c 5
 183.59375 410.15625 l 5
 264.16015625 410.15625 270.5078125 441.89453125 270.5078125 489.74609375 c 4
 270.5078125 531.25 230.46875 547.8515625 201.66015625 547.8515625 c 5
 168.9453125 547.8515625 154.296875 523.92578125 154.296875 491.69921875 c 4
 154.296875 415.52734375 156.73828125 311.03515625 156.73828125 219.7265625 c 4
 156.73828125 200.1953125 157.2265625 180.6640625 157.2265625 161.62109375 c 4
 157.2265625 122.55859375 155.76171875 85.9375 145.99609375 57.12890625 c 4
 132.8125 17.08984375 82.51953125 -4.39453125 55.17578125 -18.06640625 c 5
 10.25390625 103.02734375 l 5
 20.01953125 107.91015625 28.80859375 114.74609375 32.71484375 127.44140625 c 4
 36.62109375 140.13671875 37.109375 157.71484375 37.109375 194.3359375 c 4
 37.109375 201.66015625 37.109375 209.47265625 37.109375 218.75 c 4
 37.109375 310.05859375 32.71484375 404.78515625 32.71484375 489.74609375 c 4xf4
EndSplineSet
Fore
SplineSet
139 55 m 1xf4
 136 41 134 29 132 19 c 0
 120 -42 107 -99 94 -146 c 1
 56 -143 18 -141 -20 -138 c 1
 -6 -89 7 -36 18 18 c 0
 36 109 87 405 104 490 c 0
 119 566 190 648 287 648 c 0
 376 648 467 627 467 530 c 0xf8
 467 519 465 506 463 493 c 0
 446 406 399 391 380 380 c 1
 446 368 495 327 495 242 c 0
 495 225 493 207 489 187 c 0
 457 25 382 0 263 0 c 0
 259 0 l 0
 197 0 176 19 139 55 c 1xf4
283 97 m 0
 343 97 360 142 369 189 c 0
 371 199 372 208 372 216 c 0xf4
 372 285 310 310 222 310 c 1
 228 344 235 377 241 411 c 1
 309 411 333 431 343 490 c 0
 343 493 344 497 344 500 c 0
 344 524 327 548 286 548 c 0
 257 548 235 529 227 485 c 0
 218 436 195 312 172 194 c 1
 203 109 252 97 283 97 c 0
EndSplineSet
EndChar
StartChar: gamma
Encoding: 947 947 343
Width: 517
VWidth: 6
Flags: HW
HStem: 499 10G<73 85>
LayerCount: 2
Fore
SplineSet
157 -184 m 1
 167 -133 188 -13 188 29 c 0
 188 33 l 0
 184 154 147 284 116 361 c 0
 104 390 97 393 92 396 c 0
 86 400 75 400 63 400 c 0
 61 400 58 400 56 400 c 1
 63 436 70 472 77 508 c 1
 93 508 112 508 125 506 c 0
 155 501 189 493 210 448 c 0
 243 374 269 269 284 171 c 1
 341 277 453 518 453 518 c 1
 488 506 522 493 557 481 c 1
 557 481 398 189 316 7 c 1
 311 -33 302 -85 291 -142 c 0
 288 -156 285 -171 282 -185 c 1
 240 -185 199 -184 157 -184 c 1
EndSplineSet
EndChar
StartChar: delta
Encoding: 948 948 344
Width: 517
VWidth: 2
Flags: HW
HStem: 0 96<189 293> 577 96<231 426>
VStem: 42 125<116 283> 106 123<508 570> 352 125<182 322>
LayerCount: 2
Back
SplineSet
305.17578125 120.60546875 m 1
 328.125 145.99609375 334.47265625 196.77734375 334.47265625 258.7890625 c 0
 334.47265625 261.71875 334.47265625 263.671875 334.47265625 266.6015625 c 0
 333.49609375 343.26171875 316.40625 405.2734375 253.90625 405.2734375 c 0
 180.17578125 405.2734375 158.203125 336.9140625 158.203125 235.3515625 c 0
 158.203125 154.296875 188.96484375 96.19140625 248.046875 96.19140625 c 1
 274.90234375 96.6796875 287.59765625 103.02734375 305.17578125 120.60546875 c 1
247.55859375 -2.9296875 m 1
 96.19140625 -2.9296875 35.15625 89.84375 35.15625 226.5625 c 0
 35.15625 407.71484375 104.00390625 503.90625 246.58203125 503.90625 c 0
 342.7734375 503.90625 396.484375 470.21484375 430.6640625 405.76171875 c 0
 450.68359375 367.1875 459.47265625 312.01171875 459.47265625 265.13671875 c 0
 459.47265625 125.9765625 412.59765625 -2.9296875 248.53515625 -2.9296875 c 2
 247.55859375 -2.9296875 l 1
EndSplineSet
Fore
SplineSet
286 365 m 1xe8
 203 349 178 271 170 229 c 0
 168 216 166 201 166 186 c 0
 166 142 181 97 239 97 c 0
 322 97 345 209 351 247 c 0
 351 250 352 255 352 259 c 0
 352 289 334 336 286 365 c 1xe8
472 246 m 0
 447 119 377 0 220 0 c 1
 219 0 l 1
 106 0 42 66 42 170 c 0xe8
 42 188 43 207 47 227 c 0
 65 320 119 402 179 417 c 1
 159 428 153 437 142 447 c 0
 125 463 106 492 106 524 c 0
 106 529 106 534 107 539 c 0
 130 655 227 673 330 673 c 0
 391 673 456 660 512 646 c 1
 498 612 485 576 471 542 c 1
 409 560 354 577 307 577 c 0
 265 577 229 575 229 549 c 0xd8
 229 536 247 526 260 519 c 0
 364 462 477 419 477 294 c 0
 477 279 475 263 472 246 c 0
EndSplineSet
EndChar
StartChar: epsilon
Encoding: 949 949 345
Width: 517
VWidth: 0
Flags: HW
HStem: -2 96<186 377> 229 96<236 359> 403 97<221 455>
VStem: 41 131<111 193>
AnchorPoint: "above_accent" 347 541 basechar 0
LayerCount: 2
Fore
SplineSet
483 67 m 1
 443 41 352 -2 243 -2 c 0
 154 -2 110 7 79 36 c 0
 53 60 41 98 41 128 c 0
 41 134 41 141 42 147 c 0
 53 210 94 267 172 285 c 1
 110 292 86 325 86 364 c 0
 86 371 87 378 88 385 c 0
 106 475 224 500 332 500 c 1
 334 500 336 500 338 500 c 1
 452 500 502 470 510 464 c 1
 493 435 477 407 460 378 c 1
 450 385 385 403 314 403 c 0
 258 403 218 397 216 372 c 0
 216 371 216 369 216 368 c 0
 216 335 315 325 362 325 c 1
 363 325 364 325 365 325 c 1
 366 325 367 325 368 325 c 1
 371 325 373 325 376 325 c 1
 370 293 364 261 358 229 c 1
 345 229 333 229 320 229 c 0
 222 229 183 204 172 149 c 0
 172 147 172 144 172 142 c 0
 172 120 194 94 274 94 c 0
 356 94 413 122 442 144 c 1
 456 119 469 92 483 67 c 1
EndSplineSet
EndChar
StartChar: zeta
Encoding: 950 950 346
Width: 517
VWidth: 0
Flags: HW
HStem: -169 97<255 330> 0 105<210 341> 564 96<180 386> 662 10G<533 570> 681 10G<184 205>
VStem: 70 128<116 288> 342 112<-54 32>
LayerCount: 2
Fore
SplineSet
197 690 m 1
 213 669 229 660 268 660 c 0
 349 660 500 663 566 672 c 1
 573 639 581 607 588 574 c 1
 501 477 238 413 205 246 c 0
 200 222 198 202 198 183 c 0
 198 133 215 105 248 105 c 0
 250 105 331 105 333 105 c 0
 418 105 454 62 454 2 c 0
 454 -9 452 -20 450 -32 c 0
 428 -145 299 -164 254 -169 c 1
 254 -137 255 -105 255 -73 c 1
 297 -67 337 -57 341 -38 c 0
 342 -34 342 -30 342 -27 c 0
 342 -1 318 0 280 0 c 0
 270 0 l 0
 203 0 l 0
 123 0 70 58 70 165 c 0
 70 189 73 216 79 246 c 0
 113 420 253 484 389 568 c 1
 325 565 321 564 259 564 c 0
 203 564 148 574 119 622 c 1
 145 645 171 667 197 690 c 1
EndSplineSet
EndChar
StartChar: eta
Encoding: 951 951 347
Width: 517
VWidth: 2
Flags: HW
HStem: 0 10G<17 151> 400 101<272 411> 504 10G<195 215>
VStem: 99 123<453 491> 290 124<-154 30> 375 133<299 451>
AnchorPoint: "above_accent" 351 541 basechar 0
LayerCount: 2
Fore
SplineSet
457 145 m 1xf4
 446 87 434 28 423 -30 c 1
 418 -55 414 -100 414 -130 c 0
 414 -139 414 -147 415 -152 c 1
 374 -162 334 -173 293 -183 c 1
 292 -163 290 -144 290 -121 c 0xf8
 290 -99 292 -72 299 -33 c 1
 308 12 317 58 326 103 c 1
 342 186 357 267 373 350 c 1
 374 357 375 364 375 369 c 0
 375 391 364 400 338 400 c 0
 307 400 255 381 207 345 c 1
 185 230 162 115 140 0 c 1
 99 0 58 0 17 0 c 1
 39 115 62 230 84 345 c 1
 95 403 99 428 99 451 c 0
 99 463 98 474 97 490 c 1
 136 498 175 506 214 514 c 1
 216 504 221 481 221 460 c 0
 221 453 l 1
 253 477 321 501 375 501 c 0
 447 501 508 482 508 420 c 0
 508 413 507 405 506 397 c 1
 490 313 473 229 457 145 c 1xf4
EndSplineSet
EndChar
StartChar: theta
Encoding: 952 952 348
Width: 517
VWidth: 0
Flags: HW
HStem: -8 99<174 282> 277 108<189 366> 560 99<270 369>
VStem: 25 129<112 268> 391 125<387 538>
LayerCount: 2
Fore
SplineSet
161 135 m 0
 177 99 194 91 230 91 c 0
 269 91 299 121 321 159 c 1
 336 181 354 232 366 276 c 1
 358 276 349 277 340 277 c 0
 298 277 247 274 161 268 c 1
 157 242 154 212 154 186 c 0
 154 165 156 147 161 135 c 0
346 659 m 1
 411 659 517 635 517 448 c 0
 517 411 512 367 503 316 c 1
 503 314 502 313 502 311 c 1
 486 229 455 152 423 106 c 0
 373 34 292 -8 211 -8 c 0
 151 -8 83 12 53 62 c 0
 33 94 25 134 25 179 c 0
 25 211 29 246 36 283 c 0
 70 455 114 533 157 580 c 0
 198 625 269 658 346 659 c 1
387 385 m 1
 390 406 391 429 391 449 c 0
 391 465 390 480 388 493 c 0
 378 545 356 560 327 560 c 0
 295 560 274 548 248 513 c 0
 226 484 205 442 186 378 c 1
 257 384 317 385 368 385 c 0
 387 385 l 1
EndSplineSet
EndChar
StartChar: iota
Encoding: 953 953 349
Width: 517
VWidth: 0
Flags: HW
HStem: -9 99<272 373> 397 98<107 218>
VStem: 157 136<58 169>
AnchorPoint: "above_accent" 313 541 basechar 0
LayerCount: 2
Fore
SplineSet
237 495 m 1
 279 495 320 495 362 495 c 1
 336 362 294 145 294 145 c 2
 293 140 293 134 293 129 c 0
 293 106 306 90 329 90 c 0
 351 90 398 123 415 164 c 1
 441 148 468 132 494 116 c 1
 466 48 404 -9 293 -9 c 0
 251 -9 207 -2 188 10 c 0
 163 25 157 47 157 69 c 0
 157 80 159 91 161 101 c 1
 180 200 199 298 218 397 c 1
 194 397 150 394 102 383 c 1
 103 413 104 444 105 474 c 1
 153 488 198 495 237 495 c 1
EndSplineSet
EndChar
StartChar: kappa
Encoding: 954 954 350
Width: 517
VWidth: 0
Flags: HW
HStem: 0 2G<7 137 344 371> 489 10G<88 230>
LayerCount: 2
Fore
SplineSet
299 261 m 1
 359 210 461 115 477 54 c 1
 435 33 392 13 350 -8 c 1
 338 46 273 122 211 186 c 1
 211 186 178 155 157 120 c 1
 149 80 141 40 133 0 c 1
 91 0 49 0 7 0 c 1
 39 167 72 332 104 499 c 1
 146 499 188 499 230 499 c 1
 219 443 208 386 197 330 c 1
 261 401 465 507 492 517 c 1
 509 484 526 442 543 409 c 1
 431 351 335 297 299 261 c 1
EndSplineSet
EndChar
StartChar: lambda
Encoding: 955 955 351
Width: 517
VWidth: 6
Flags: HW
HStem: -3 120<382 467> 576 103<233 320>
VStem: 282 121<440 575> 303 106<118 296>
LayerCount: 2
Fore
SplineSet
62 -19 m 1xd0
 32 4 1 27 -29 50 c 1
 19 115 201 310 282 480 c 1
 282 563 274 576 259 576 c 0
 239 576 232 558 229 539 c 1
 195 539 160 540 126 540 c 1
 156 653 208 679 287 679 c 0
 353 679 403 633 403 548 c 0xe0
 403 402 405 246 409 170 c 1
 412 138 416 116 434 116 c 1
 447 116 465 126 465 126 c 1
 470 91 476 57 481 22 c 1
 468 10 454 -3 404 -3 c 0
 360 -3 309 26 303 122 c 0
 301 161 299 296 299 296 c 1
 258 224 159 111 62 -19 c 1xd0
EndSplineSet
EndChar
StartChar: nu
Encoding: 957 957 353
Width: 517
VWidth: 2
Flags: HW
HStem: -4 10G<136 216>
VStem: 404 128<295 479>
LayerCount: 2
Fore
SplineSet
170 515 m 1
 226 377 246 248 255 123 c 1
 350 182 378 239 399 344 c 0
 403 365 404 381 404 397 c 0
 404 434 396 458 392 475 c 1
 433 488 475 502 516 515 c 1
 527 485 532 452 532 419 c 0
 532 398 530 376 526 354 c 0
 474 92 297 -4 134 -4 c 1
 138 16 140 39 140 64 c 0
 140 195 92 376 55 451 c 1
 94 472 131 494 170 515 c 1
EndSplineSet
EndChar
StartChar: xi
Encoding: 958 958 354
Width: 517
VWidth: 0
Flags: HW
HStem: -169 97<258 332> 0 105<184 342> 323 96<341 420> 564 96<182 292> 662 10G<479 516> 688 10G<184 205>
VStem: 39 131<70 209> 190 131<432 494> 344 112<-56 40>
LayerCount: 2
Fore
SplineSet
197 697 m 1
 213 676 231 660 271 660 c 0
 351 660 446 663 512 672 c 1
 520 640 527 607 535 575 c 1
 488 539 329 511 322 471 c 0
 322 468 321 464 321 461 c 0
 321 424 370 419 438 419 c 1
 432 387 424 355 418 323 c 1
 283 291 188 246 170 166 c 0
 170 164 170 161 170 159 c 0
 170 139 185 105 250 105 c 0
 251 105 334 105 335 105 c 0
 405 105 456 75 456 4 c 0
 456 -7 454 -19 452 -32 c 0
 432 -136 318 -163 257 -169 c 1
 257 -137 258 -105 258 -73 c 1
 300 -67 339 -58 343 -38 c 0
 344 -34 344 -29 344 -26 c 0
 344 -7 330 0 294 0 c 0
 285 0 l 0
 205 0 l 0
 119 0 39 22 39 117 c 0
 39 130 40 144 43 159 c 0
 67 282 187 349 247 367 c 1
 230 372 190 385 190 442 c 0
 190 451 191 461 193 472 c 0
 201 516 245 549 293 567 c 1
 293 567 265 564 250 564 c 0
 193 564 148 577 119 617 c 1
 145 644 171 670 197 697 c 1
EndSplineSet
EndChar
StartChar: pi
Encoding: 960 960 356
Width: 517
VWidth: 2
Flags: HW
HStem: 0 116<352 457> 401 97<249 318 445 494>
VStem: 285 123<74 257> 319 127<239 401>
LayerCount: 2
Fore
SplineSet
458 498 m 0xd0
 478 498 486 507 503 531 c 1
 525 519 547 507 569 495 c 1
 547 459 524 401 460 401 c 1
 455 401 450 401 445 401 c 1
 446 394 447 387 447 378 c 0xd0
 447 358 444 331 435 287 c 1
 426 243 418 198 409 154 c 1
 408 148 407 143 407 139 c 0
 407 124 413 116 421 116 c 0
 433 116 441 117 452 126 c 1
 463 98 473 70 484 42 c 1
 465 21 441 0 379 0 c 0
 324 0 285 49 285 101 c 0xe0
 285 154 289 179 310 285 c 0
 317 323 319 345 319 361 c 0
 319 380 316 389 312 401 c 1
 292 401 273 401 253 401 c 1
 234 302 214 204 195 105 c 1
 188 69 175 22 163 -6 c 1
 123 -1 82 5 42 10 c 1
 57 43 64 71 71 107 c 1
 90 204 108 300 127 397 c 1
 104 393 92 389 73 376 c 1
 70 406 68 437 65 467 c 1
 92 483 143 498 192 498 c 2
 192 498 354 498 458 498 c 0xd0
EndSplineSet
EndChar
StartChar: rho
Encoding: 961 961 357
Width: 517
VWidth: 0
Flags: HW
HStem: -3 97<201 294> 399 104<241 345>
VStem: -5 139<-185 -152 -106 19> -5 125<-170 20> 363 138<208 384>
LayerCount: 2
Fore
SplineSet
355 252 m 0xc8
 357 260 l 0
 361 280 363 298 363 315 c 0
 363 363 346 399 297 399 c 0
 249 399 199 358 180 260 c 0
 176 240 174 222 174 205 c 0
 174 135 205 94 244 94 c 0
 310 94 339 171 355 252 c 0xc8
66 274 m 2
 94 417 199 504 327 504 c 0
 423 504 471 470 492 406 c 0
 498 387 500 363 500 339 c 0
 500 314 498 289 493 265 c 0
 465 126 403 -3 246 -3 c 1
 245 -3 l 1
 178 -3 157 8 132 47 c 1
 133 39 134 30 134 22 c 0xe8
 134 -7 128 -34 126 -48 c 0
 122 -69 120 -89 120 -106 c 0
 120 -139 126 -164 130 -184 c 1
 87 -194 43 -204 0 -214 c 1
 -3 -201 -5 -177 -5 -150 c 0xd8
 -5 -115 -2 -73 5 -34 c 1
 26 69 45 171 66 274 c 2
EndSplineSet
EndChar
StartChar: sigma1
Encoding: 962 962 358
Width: 517
VWidth: 1
Flags: HW
HStem: -169 97<255 330> 5 104<214 340> 394 103<269 401>
VStem: 65 130<128 302> 341 112<-56 40>
LayerCount: 2
Fore
SplineSet
201 258 m 0
 197 237 195 218 195 202 c 0
 195 137 224 109 254 108 c 0
 255 108 337 104 338 104 c 0
 407 102 454 75 454 6 c 0
 454 -5 453 -18 450 -32 c 0
 429 -136 315 -163 254 -169 c 1
 254 -137 255 -105 255 -73 c 1
 297 -67 336 -58 340 -38 c 0
 341 -34 341 -30 341 -27 c 0
 341 -8 328 -1 292 0 c 0
 289 0 285 0 282 0 c 0
 280 0 205 5 203 5 c 0
 172 6 136 17 115 36 c 1
 79 69 65 112 65 167 c 0
 65 194 69 224 75 257 c 0
 107 423 209 497 363 497 c 0
 409 497 454 488 481 467 c 0
 506 447 524 419 530 394 c 1
 491 377 452 361 413 344 c 1
 412 363 402 394 334 394 c 0
 262 394 214 328 201 258 c 0
EndSplineSet
EndChar
StartChar: sigma
Encoding: 963 963 359
Width: 517
VWidth: 2
Flags: HW
HStem: -3 99<188 293> 405 99<241 349>
VStem: 40 127<116 284> 362 125<206 397>
LayerCount: 2
Fore
SplineSet
480 397 m 1
 484 379 486 359 486 338 c 0
 486 314 483 288 479 265 c 0
 452 126 380 -3 216 -3 c 1
 215 -3 l 1
 91 -3 40 59 40 157 c 0
 40 178 42 202 47 227 c 0
 82 407 168 503 309 504 c 0
 313 504 l 0
 375 504 541 498 565 494 c 1
 557 460 550 427 542 393 c 1
 528 395 505 396 480 397 c 1
297 121 m 1
 325 146 342 197 353 259 c 0
 353 262 354 264 354 267 c 0
 359 294 362 314 362 333 c 0
 362 358 358 379 349 404 c 1
 349 404 312 405 301 405 c 0
 227 405 192 337 172 235 c 0
 169 217 167 200 167 185 c 0
 167 131 189 96 235 96 c 1
 262 96 276 103 297 121 c 1
EndSplineSet
EndChar
StartChar: tau
Encoding: 964 964 360
Width: 517
VWidth: 0
Flags: HW
HStem: -1 107<306 374> 403 95<106 176 176 227 350 529>
VStem: 172 130<108 250>
LayerCount: 2
Fore
SplineSet
338 498 m 1
 358 498 378 498 398 498 c 1
 466 498 l 1
 490 498 514 498 538 498 c 1
 541 498 543 498 546 498 c 1
 540 466 534 434 528 402 c 1
 479 402 428 403 379 403 c 1
 371 403 362 403 354 403 c 1
 330 303 323 264 312 215 c 1
 311 209 309 201 308 195 c 1
 304 176 302 161 302 149 c 0
 302 112 318 106 333 106 c 0
 361 106 371 119 392 156 c 1
 421 142 451 128 480 114 c 1
 465 87 409 -1 313 -1 c 0
 213 -1 172 31 172 113 c 0
 172 136 175 163 181 194 c 1
 182 201 185 208 186 215 c 1
 198 266 206 309 227 403 c 1
 217 403 176 402 176 402 c 2
 142 402 132 396 105 380 c 1
 92 405 79 431 66 456 c 1
 95 477 145 498 192 498 c 1
 241 498 289 498 338 498 c 1
EndSplineSet
EndChar
StartChar: upsilon
Encoding: 965 965 361
Width: 517
VWidth: 2
Flags: HW
HStem: -2 102<133 278> 494 10G<202 224 478 505>
VStem: 39 132<107 271> 93 130<352 490> 378 135<267 474>
AnchorPoint: "above_accent" 310 541 basechar 0
LayerCount: 2
Fore
SplineSet
43 178 m 0xe8
 49 207 54 238 60 267 c 0
 78 356 93 439 93 478 c 0
 93 482 93 487 93 490 c 1
 136 495 181 499 224 504 c 1
 224 500 l 0xd8
 224 462 207 376 188 280 c 0
 183 253 182 250 177 222 c 0
 174 204 171 185 171 168 c 0
 171 130 183 100 216 100 c 0
 244 100 275 111 310 151 c 0
 347 193 353 211 375 327 c 0
 377 340 378 353 378 367 c 0
 378 403 371 441 368 470 c 1
 412 484 456 498 500 512 c 1
 510 489 513 454 513 421 c 0
 513 386 510 354 506 337 c 0
 506 335 505 333 505 331 c 0
 504 325 503 319 502 313 c 0
 485 220 457 148 355 60 c 0
 318 28 254 -2 174 -2 c 0
 92 -2 39 60 39 140 c 0
 39 152 41 165 43 178 c 0xe8
EndSplineSet
EndChar
StartChar: phi
Encoding: 966 966 362
Width: 517
VWidth: 0
Flags: HW
HStem: 408 100<350 413>
VStem: 24 115<106 324> 417 111<251 404>
LayerCount: 2
Fore
SplineSet
270 -5 m 1
 251 -105 236 -184 235 -194 c 1
 195 -194 156 -193 116 -193 c 1
 117 -183 133 -103 152 -4 c 1
 109 4 74 28 52 65 c 0
 32 97 24 135 24 178 c 0
 24 208 28 242 35 278 c 0
 56 389 101 478 154 518 c 1
 181 498 207 479 234 459 c 1
 187 418 164 374 146 280 c 0
 142 257 139 229 139 204 c 0
 139 153 149 107 172 97 c 1
 186 169 199 240 213 312 c 1
 243 466 326 508 396 508 c 0
 454 508 528 497 528 382 c 0
 528 361 526 337 521 309 c 1
 521 307 520 305 520 303 c 1
 504 223 473 132 441 87 c 0
 398 27 336 5 270 -5 c 1
289 96 m 1
 357 112 386 198 408 305 c 1
 408 308 410 311 410 314 c 1
 414 337 417 355 417 368 c 0
 417 402 402 408 378 408 c 1
 377 408 l 1
 358 408 347 401 330 314 c 0
 316 245 305 180 289 96 c 1
EndSplineSet
EndChar
StartChar: chi
Encoding: 967 967 363
Width: 517
VWidth: 6
Flags: HW
HStem: -194 111<311 403> 401 107<77 128>
LayerCount: 2
Fore
SplineSet
191 182 m 1
 191 182 163 319 136 368 c 0
 120 396 94 401 56 401 c 1
 63 437 70 472 77 508 c 1
 110 508 l 0
 160 508 190 504 220 456 c 0
 259 393 270 281 270 281 c 1
 334 379 429 516 429 516 c 1
 457 500 486 484 514 468 c 1
 514 468 413 318 303 155 c 1
 317 71 353 -83 379 -83 c 0
 385 -83 388 -81 392 -73 c 1
 412 -89 432 -106 452 -122 c 1
 446 -141 411 -194 361 -194 c 0
 261 -194 236 -19 220 38 c 1
 168 -40 115 -118 63 -196 c 1
 31 -177 0 -159 -32 -140 c 1
 42 -33 117 75 191 182 c 1
EndSplineSet
EndChar
